<svg viewBox="0 0 16 21" fill="none" xmlns="http://www.w3.org/2000/svg">
<path d="M1 17.1758C0.716667 17.1758 0.479 17.0798 0.287 16.8878C0.0956668 16.6964 0 16.4591 0 16.1758C0 15.8924 0.0956668 15.6551 0.287 15.4638C0.479 15.2718 0.716667 15.1758 1 15.1758H2V8.17578C2 6.79245 2.41667 5.56311 3.25 4.48778C4.08333 3.41311 5.16667 2.70911 6.5 2.37578V1.67578C6.5 1.25911 6.646 0.905115 6.938 0.613781C7.22933 0.321781 7.58333 0.175781 8 0.175781C8.41667 0.175781 8.77067 0.321781 9.062 0.613781C9.354 0.905115 9.5 1.25911 9.5 1.67578V2.37578C10.8333 2.70911 11.9167 3.41311 12.75 4.48778C13.5833 5.56311 14 6.79245 14 8.17578V15.1758H15C15.2833 15.1758 15.5207 15.2718 15.712 15.4638C15.904 15.6551 16 15.8924 16 16.1758C16 16.4591 15.904 16.6964 15.712 16.8878C15.5207 17.0798 15.2833 17.1758 15 17.1758H1ZM8 20.1758C7.45 20.1758 6.97933 19.9801 6.588 19.5888C6.196 19.1968 6 18.7258 6 18.1758H10C10 18.7258 9.80433 19.1968 9.413 19.5888C9.021 19.9801 8.55 20.1758 8 20.1758ZM4 15.1758H12V8.17578C12 7.07578 11.6083 6.13411 10.825 5.35078C10.0417 4.56745 9.1 4.17578 8 4.17578C6.9 4.17578 5.95833 4.56745 5.175 5.35078C4.39167 6.13411 4 7.07578 4 8.17578V15.1758Z" fill="#0DB659"/>
<path d="M1 17.1758C0.716667 17.1758 0.479 17.0798 0.287 16.8878C0.0956668 16.6964 0 16.4591 0 16.1758C0 15.8924 0.0956668 15.6551 0.287 15.4638C0.479 15.2718 0.716667 15.1758 1 15.1758H2V8.17578C2 6.79245 2.41667 5.56311 3.25 4.48778C4.08333 3.41311 5.16667 2.70911 6.5 2.37578V1.67578C6.5 1.25911 6.646 0.905115 6.938 0.613781C7.22933 0.321781 7.58333 0.175781 8 0.175781C8.41667 0.175781 8.77067 0.321781 9.062 0.613781C9.354 0.905115 9.5 1.25911 9.5 1.67578V2.37578C10.8333 2.70911 11.9167 3.41311 12.75 4.48778C13.5833 5.56311 14 6.79245 14 8.17578V15.1758H15C15.2833 15.1758 15.5207 15.2718 15.712 15.4638C15.904 15.6551 16 15.8924 16 16.1758C16 16.4591 15.904 16.6964 15.712 16.8878C15.5207 17.0798 15.2833 17.1758 15 17.1758H1ZM8 20.1758C7.45 20.1758 6.97933 19.9801 6.588 19.5888C6.196 19.1968 6 18.7258 6 18.1758H10C10 18.7258 9.80433 19.1968 9.413 19.5888C9.021 19.9801 8.55 20.1758 8 20.1758ZM4 15.1758H12V8.17578C12 7.07578 11.6083 6.13411 10.825 5.35078C10.0417 4.56745 9.1 4.17578 8 4.17578C6.9 4.17578 5.95833 4.56745 5.175 5.35078C4.39167 6.13411 4 7.07578 4 8.17578V15.1758Z" fill="black" fill-opacity="0.4"/>
</svg>
