<svg viewBox="0 0 24 25" fill="none" xmlns="http://www.w3.org/2000/svg">
<path d="M16.6624 15.0736H15.7361L15.4078 14.757C16.8148 13.1156 17.5417 10.8762 17.1431 8.49608C16.592 5.23664 13.8719 2.63377 10.589 2.23514C5.6295 1.62546 1.45554 5.79942 2.06522 10.7589C2.46385 14.0418 5.06672 16.7619 8.32616 17.313C10.7063 17.7116 12.9457 16.9847 14.5871 15.5778L14.9037 15.906V16.8323L19.8866 21.8152C20.3673 22.296 21.1529 22.296 21.6336 21.8152C22.1143 21.3345 22.1143 20.549 21.6336 20.0683L16.6624 15.0736ZM9.62759 15.0736C6.70816 15.0736 4.35152 12.7169 4.35152 9.79752C4.35152 6.87809 6.70816 4.52144 9.62759 4.52144C12.547 4.52144 14.9037 6.87809 14.9037 9.79752C14.9037 12.7169 12.547 15.0736 9.62759 15.0736Z" fill="#0DB659"/>
<path d="M16.6624 15.0736H15.7361L15.4078 14.757C16.8148 13.1156 17.5417 10.8762 17.1431 8.49608C16.592 5.23664 13.8719 2.63377 10.589 2.23514C5.6295 1.62546 1.45554 5.79942 2.06522 10.7589C2.46385 14.0418 5.06672 16.7619 8.32616 17.313C10.7063 17.7116 12.9457 16.9847 14.5871 15.5778L14.9037 15.906V16.8323L19.8866 21.8152C20.3673 22.296 21.1529 22.296 21.6336 21.8152C22.1143 21.3345 22.1143 20.549 21.6336 20.0683L16.6624 15.0736ZM9.62759 15.0736C6.70816 15.0736 4.35152 12.7169 4.35152 9.79752C4.35152 6.87809 6.70816 4.52144 9.62759 4.52144C12.547 4.52144 14.9037 6.87809 14.9037 9.79752C14.9037 12.7169 12.547 15.0736 9.62759 15.0736Z" fill="black" fill-opacity="0.4"/>
</svg>
