<svg viewBox="0 0 14 15" fill="none" xmlns="http://www.w3.org/2000/svg">
<path d="M7 1.62012C5.60761 1.62012 4.27226 2.17324 3.28769 3.15781C2.30312 4.14237 1.75 5.47773 1.75 6.87012C1.75 8.2625 2.30312 9.59786 3.28769 10.5824C4.27226 11.567 5.60761 12.1201 7 12.1201V13.5785C7 13.8007 7.24044 13.9428 7.43294 13.8314C8.56424 13.1764 11.5553 11.0161 12.1418 7.92627C12.1449 7.90882 12.1479 7.89135 12.1509 7.87386C12.1763 7.73276 12.2009 7.59152 12.2158 7.44661C12.2378 7.25522 12.2492 7.06276 12.25 6.87012C12.25 5.47773 11.6969 4.14237 10.7123 3.15781C9.72774 2.17324 8.39239 1.62012 7 1.62012Z" fill="#F3F3F1"/>
<path d="M7 1.62012C5.60761 1.62012 4.27226 2.17324 3.28769 3.15781C2.30312 4.14237 1.75 5.47773 1.75 6.87012C1.75 8.2625 2.30312 9.59786 3.28769 10.5824C4.27226 11.567 5.60761 12.1201 7 12.1201V13.5785C7 13.8007 7.24044 13.9428 7.43294 13.8314C8.56424 13.1764 11.5553 11.0161 12.1418 7.92627C12.1449 7.90882 12.1479 7.89135 12.1509 7.87386C12.1763 7.73276 12.2009 7.59152 12.2158 7.44661C12.2378 7.25522 12.2492 7.06276 12.25 6.87012C12.25 5.47773 11.6969 4.14237 10.7123 3.15781C9.72774 2.17324 8.39239 1.62012 7 1.62012Z" fill="black" fill-opacity="0.25"/>
</svg>
