<svg viewBox="0 0 72 76" xmlns="http://www.w3.org/2000/svg" aria-hidden="true">
  <path
    d="M16.0697 36.9575C17.5682 36.9574 18.7838 38.1719 18.7845 39.6704L18.7894 56.1978C18.7898 56.697 19.1954 57.1019 19.6947 57.1021H60.8812C62.38 57.1022 63.595 58.3171 63.5951 59.8159V65.2437C63.5951 66.7425 62.38 67.9583 60.8812 67.9585H19.6996C19.1998 67.9585 18.7951 68.364 18.7953 68.8638L18.7963 73.0522C18.7967 74.551 17.5821 75.7663 16.0834 75.7671L10.6556 75.769C9.15665 75.7696 7.93942 74.5551 7.93884 73.0562V68.8628C7.93862 68.3634 7.53295 67.9586 7.03357 67.9585H2.83142C1.37933 67.9584 0.194035 66.8174 0.12146 65.3833L0.117554 65.2437V59.8159C0.117633 58.3171 1.33262 57.1022 2.83142 57.1021H7.02869C7.52826 57.1019 7.93307 56.6964 7.93298 56.1968L7.9281 39.6743C7.92784 38.1756 9.14224 36.9601 10.641 36.9595L16.0697 36.9575Z M60.8558 0.769043C62.3545 0.768691 63.5699 1.98324 63.5707 3.48193L63.5717 7.67529C63.5718 8.17474 63.9775 8.58041 64.4769 8.58057H68.6801C70.1788 8.58089 71.3939 9.79567 71.3939 11.2944L71.3929 16.7222C71.3928 18.2209 70.1778 19.4368 68.6791 19.437H64.4818C63.9823 19.4371 63.5776 19.8418 63.5775 20.3413L63.5824 36.8638C63.5828 38.3626 62.3683 39.578 60.8695 39.5786L55.4408 39.5806C53.9422 39.5807 52.7266 38.3664 52.726 36.8677L52.7211 20.3413C52.7208 19.8419 52.3152 19.4371 51.8158 19.437H10.6302C9.13136 19.4369 7.91638 18.2211 7.91638 16.7222V11.2944C7.91638 9.79552 9.13136 8.58067 10.6302 8.58057H51.8109C52.3105 8.58049 52.7152 8.17489 52.7152 7.67529L52.7142 3.48584C52.7139 1.98704 53.9293 0.771582 55.4281 0.770996L60.8558 0.769043Z"
    fill="#0DB659"
  />
</svg>