<svg width="27" height="34" viewBox="0 0 27 34" fill="none" xmlns="http://www.w3.org/2000/svg">
<g filter="url(#filter0_d_1834_2327)">
<path d="M13.5908 0.511719C18.1591 0.743133 21.7917 4.5198 21.792 9.14551C21.792 10.3121 21.4375 11.7015 20.9873 12.9678C20.5343 14.2419 19.9675 15.4394 19.5068 16.2373C18.8328 17.4048 15.8482 21.873 14.3877 24.0498C13.7948 24.9334 12.4977 24.9336 11.9043 24.0498C10.4486 21.8818 7.48058 17.4401 6.78613 16.2373C6.31155 15.4153 5.74372 14.2181 5.29395 12.9492C4.84686 11.6879 4.5 10.3112 4.5 9.14551L4.51172 8.70117C4.7433 4.13284 8.52062 0.5 13.1465 0.5L13.5908 0.511719Z" fill="#0DB659" stroke="white"/>
<ellipse cx="13.1461" cy="9.1499" rx="4" ry="4" fill="white"/>
</g>
<defs>
<filter id="filter0_d_1834_2327" x="0" y="0" width="26.2922" height="33.2129" filterUnits="userSpaceOnUse" color-interpolation-filters="sRGB">
<feFlood flood-opacity="0" result="BackgroundImageFix"/>
<feColorMatrix in="SourceAlpha" type="matrix" values="0 0 0 0 0 0 0 0 0 0 0 0 0 0 0 0 0 0 127 0" result="hardAlpha"/>
<feOffset dy="4"/>
<feGaussianBlur stdDeviation="2"/>
<feComposite in2="hardAlpha" operator="out"/>
<feColorMatrix type="matrix" values="0 0 0 0 0 0 0 0 0 0 0 0 0 0 0 0 0 0 0.07 0"/>
<feBlend mode="normal" in2="BackgroundImageFix" result="effect1_dropShadow_1834_2327"/>
<feBlend mode="normal" in="SourceGraphic" in2="effect1_dropShadow_1834_2327" result="shape"/>
</filter>
</defs>
</svg>
