<svg viewBox="0 0 71 61" fill="none" xmlns="http://www.w3.org/2000/svg">
<g clip-path="url(#clip0_532_112)">
<path d="M21.75 29.9629C21.3958 29.9629 21.0992 29.8429 20.86 29.6029C20.62 29.3637 20.5 29.0671 20.5 28.7129V27.9941C20.5 27.0775 20.9583 26.3429 21.875 25.7904C22.7917 25.2387 24 24.9629 25.5 24.9629C25.7708 24.9629 26.0262 24.9733 26.2662 24.9941C26.5054 25.015 26.7396 25.0462 26.9688 25.0879C26.6771 25.5046 26.4633 25.9525 26.3275 26.4316C26.1925 26.9108 26.125 27.4212 26.125 27.9629V29.9629H21.75ZM29.25 29.9629C28.8958 29.9629 28.5988 29.8429 28.3588 29.6029C28.1196 29.3637 28 29.0671 28 28.7129V27.9629C28 26.6087 28.6929 25.5096 30.0788 24.6654C31.4637 23.8221 33.2708 23.4004 35.5 23.4004C37.75 23.4004 39.5625 23.8221 40.9375 24.6654C42.3125 25.5096 43 26.6087 43 27.9629V28.7129C43 29.0671 42.88 29.3637 42.64 29.6029C42.4008 29.8429 42.1042 29.9629 41.75 29.9629H29.25ZM44.875 29.9629V27.9629C44.875 27.4212 44.8021 26.9108 44.6562 26.4316C44.5104 25.9525 44.3021 25.5046 44.0312 25.0879C44.2604 25.0462 44.495 25.015 44.735 24.9941C44.9742 24.9733 45.2292 24.9629 45.5 24.9629C47 24.9629 48.2083 25.2387 49.125 25.7904C50.0417 26.3429 50.5 27.0775 50.5 27.9941V28.7129C50.5 29.0671 50.38 29.3637 50.14 29.6029C49.9008 29.8429 49.6042 29.9629 49.25 29.9629H44.875ZM35.5 25.9004C34.3125 25.9004 33.25 26.0616 32.3125 26.3841C31.375 26.7075 30.8229 27.0671 30.6562 27.4629H40.3438C40.1562 27.0462 39.5992 26.6816 38.6725 26.3691C37.745 26.0566 36.6875 25.9004 35.5 25.9004ZM25.5 23.7129C24.8125 23.7129 24.2242 23.4679 23.735 22.9779C23.245 22.4887 23 21.9004 23 21.2129C23 20.5254 23.245 19.9366 23.735 19.4466C24.2242 18.9575 24.8125 18.7129 25.5 18.7129C26.1875 18.7129 26.7758 18.9575 27.265 19.4466C27.755 19.9366 28 20.5254 28 21.2129C28 21.9004 27.755 22.4887 27.265 22.9779C26.7758 23.4679 26.1875 23.7129 25.5 23.7129ZM45.5 23.7129C44.8125 23.7129 44.2237 23.4679 43.7337 22.9779C43.2446 22.4887 43 21.9004 43 21.2129C43 20.5254 43.2446 19.9366 43.7337 19.4466C44.2237 18.9575 44.8125 18.7129 45.5 18.7129C46.1875 18.7129 46.7763 18.9575 47.2663 19.4466C47.7554 19.9366 48 20.5254 48 21.2129C48 21.9004 47.7554 22.4887 47.2663 22.9779C46.7763 23.4679 46.1875 23.7129 45.5 23.7129ZM35.5 22.4629C34.4583 22.4629 33.5729 22.0983 32.8438 21.3691C32.1146 20.64 31.75 19.7546 31.75 18.7129C31.75 17.6712 32.1146 16.7858 32.8438 16.0566C33.5729 15.3275 34.4583 14.9629 35.5 14.9629C36.5417 14.9629 37.4271 15.3275 38.1562 16.0566C38.8854 16.7858 39.25 17.6712 39.25 18.7129C39.25 19.7546 38.8854 20.64 38.1562 21.3691C37.4271 22.0983 36.5417 22.4629 35.5 22.4629ZM35.5 17.4629C35.1458 17.4629 34.8492 17.5825 34.61 17.8216C34.37 18.0616 34.25 18.3587 34.25 18.7129C34.25 19.0671 34.37 19.3637 34.61 19.6029C34.8492 19.8429 35.1458 19.9629 35.5 19.9629C35.8542 19.9629 36.1513 19.8429 36.3913 19.6029C36.6304 19.3637 36.75 19.0671 36.75 18.7129C36.75 18.3587 36.6304 18.0616 36.3913 17.8216C36.1513 17.5825 35.8542 17.4629 35.5 17.4629ZM21.75 29.9629C21.3958 29.9629 21.0992 29.8429 20.86 29.6029C20.62 29.3637 20.5 29.0671 20.5 28.7129V27.9941C20.5 27.0775 20.9583 26.3429 21.875 25.7904C22.7917 25.2387 24 24.9629 25.5 24.9629C25.7708 24.9629 26.0262 24.9733 26.2662 24.9941C26.5054 25.015 26.7396 25.0462 26.9688 25.0879C26.6771 25.5046 26.4633 25.9525 26.3275 26.4316C26.1925 26.9108 26.125 27.4212 26.125 27.9629V29.9629H21.75ZM29.25 29.9629C28.8958 29.9629 28.5988 29.8429 28.3588 29.6029C28.1196 29.3637 28 29.0671 28 28.7129V27.9629C28 26.6087 28.6929 25.5096 30.0788 24.6654C31.4637 23.8221 33.2708 23.4004 35.5 23.4004C37.75 23.4004 39.5625 23.8221 40.9375 24.6654C42.3125 25.5096 43 26.6087 43 27.9629V28.7129C43 29.0671 42.88 29.3637 42.64 29.6029C42.4008 29.8429 42.1042 29.9629 41.75 29.9629H29.25ZM44.875 29.9629V27.9629C44.875 27.4212 44.8021 26.9108 44.6562 26.4316C44.5104 25.9525 44.3021 25.5046 44.0312 25.0879C44.2604 25.0462 44.495 25.015 44.735 24.9941C44.9742 24.9733 45.2292 24.9629 45.5 24.9629C47 24.9629 48.2083 25.2387 49.125 25.7904C50.0417 26.3429 50.5 27.0775 50.5 27.9941V28.7129C50.5 29.0671 50.38 29.3637 50.14 29.6029C49.9008 29.8429 49.6042 29.9629 49.25 29.9629H44.875ZM35.5 25.9004C34.3125 25.9004 33.25 26.0616 32.3125 26.3841C31.375 26.7075 30.8229 27.0671 30.6562 27.4629H40.3438C40.1562 27.0462 39.5992 26.6816 38.6725 26.3691C37.745 26.0566 36.6875 25.9004 35.5 25.9004ZM25.5 23.7129C24.8125 23.7129 24.2242 23.4679 23.735 22.9779C23.245 22.4887 23 21.9004 23 21.2129C23 20.5254 23.245 19.9366 23.735 19.4466C24.2242 18.9575 24.8125 18.7129 25.5 18.7129C26.1875 18.7129 26.7758 18.9575 27.265 19.4466C27.755 19.9366 28 20.5254 28 21.2129C28 21.9004 27.755 22.4887 27.265 22.9779C26.7758 23.4679 26.1875 23.7129 25.5 23.7129ZM45.5 23.7129C44.8125 23.7129 44.2237 23.4679 43.7337 22.9779C43.2446 22.4887 43 21.9004 43 21.2129C43 20.5254 43.2446 19.9366 43.7337 19.4466C44.2237 18.9575 44.8125 18.7129 45.5 18.7129C46.1875 18.7129 46.7763 18.9575 47.2663 19.4466C47.7554 19.9366 48 20.5254 48 21.2129C48 21.9004 47.7554 22.4887 47.2663 22.9779C46.7763 23.4679 46.1875 23.7129 45.5 23.7129ZM35.5 22.4629C34.4583 22.4629 33.5729 22.0983 32.8438 21.3691C32.1146 20.64 31.75 19.7546 31.75 18.7129C31.75 17.6712 32.1146 16.7858 32.8438 16.0566C33.5729 15.3275 34.4583 14.9629 35.5 14.9629C36.5417 14.9629 37.4271 15.3275 38.1562 16.0566C38.8854 16.7858 39.25 17.6712 39.25 18.7129C39.25 19.7546 38.8854 20.64 38.1562 21.3691C37.4271 22.0983 36.5417 22.4629 35.5 22.4629ZM35.5 17.4629C35.1458 17.4629 34.8492 17.5825 34.61 17.8216C34.37 18.0616 34.25 18.3587 34.25 18.7129C34.25 19.0671 34.37 19.3637 34.61 19.6029C34.8492 19.8429 35.1458 19.9629 35.5 19.9629C35.8542 19.9629 36.1513 19.8429 36.3913 19.6029C36.6304 19.3637 36.75 19.0671 36.75 18.7129C36.75 18.3587 36.6304 18.0616 36.3913 17.8216C36.1513 17.5825 35.8542 17.4629 35.5 17.4629Z" fill="#F3F3F1"/>
<path d="M21.75 29.9629C21.3958 29.9629 21.0992 29.8429 20.86 29.6029C20.62 29.3637 20.5 29.0671 20.5 28.7129V27.9941C20.5 27.0775 20.9583 26.3429 21.875 25.7904C22.7917 25.2387 24 24.9629 25.5 24.9629C25.7708 24.9629 26.0262 24.9733 26.2662 24.9941C26.5054 25.015 26.7396 25.0462 26.9688 25.0879C26.6771 25.5046 26.4633 25.9525 26.3275 26.4316C26.1925 26.9108 26.125 27.4212 26.125 27.9629V29.9629H21.75ZM29.25 29.9629C28.8958 29.9629 28.5988 29.8429 28.3588 29.6029C28.1196 29.3637 28 29.0671 28 28.7129V27.9629C28 26.6087 28.6929 25.5096 30.0788 24.6654C31.4637 23.8221 33.2708 23.4004 35.5 23.4004C37.75 23.4004 39.5625 23.8221 40.9375 24.6654C42.3125 25.5096 43 26.6087 43 27.9629V28.7129C43 29.0671 42.88 29.3637 42.64 29.6029C42.4008 29.8429 42.1042 29.9629 41.75 29.9629H29.25ZM44.875 29.9629V27.9629C44.875 27.4212 44.8021 26.9108 44.6562 26.4316C44.5104 25.9525 44.3021 25.5046 44.0312 25.0879C44.2604 25.0462 44.495 25.015 44.735 24.9941C44.9742 24.9733 45.2292 24.9629 45.5 24.9629C47 24.9629 48.2083 25.2387 49.125 25.7904C50.0417 26.3429 50.5 27.0775 50.5 27.9941V28.7129C50.5 29.0671 50.38 29.3637 50.14 29.6029C49.9008 29.8429 49.6042 29.9629 49.25 29.9629H44.875ZM35.5 25.9004C34.3125 25.9004 33.25 26.0616 32.3125 26.3841C31.375 26.7075 30.8229 27.0671 30.6562 27.4629H40.3438C40.1562 27.0462 39.5992 26.6816 38.6725 26.3691C37.745 26.0566 36.6875 25.9004 35.5 25.9004ZM25.5 23.7129C24.8125 23.7129 24.2242 23.4679 23.735 22.9779C23.245 22.4887 23 21.9004 23 21.2129C23 20.5254 23.245 19.9366 23.735 19.4466C24.2242 18.9575 24.8125 18.7129 25.5 18.7129C26.1875 18.7129 26.7758 18.9575 27.265 19.4466C27.755 19.9366 28 20.5254 28 21.2129C28 21.9004 27.755 22.4887 27.265 22.9779C26.7758 23.4679 26.1875 23.7129 25.5 23.7129ZM45.5 23.7129C44.8125 23.7129 44.2237 23.4679 43.7337 22.9779C43.2446 22.4887 43 21.9004 43 21.2129C43 20.5254 43.2446 19.9366 43.7337 19.4466C44.2237 18.9575 44.8125 18.7129 45.5 18.7129C46.1875 18.7129 46.7763 18.9575 47.2663 19.4466C47.7554 19.9366 48 20.5254 48 21.2129C48 21.9004 47.7554 22.4887 47.2663 22.9779C46.7763 23.4679 46.1875 23.7129 45.5 23.7129ZM35.5 22.4629C34.4583 22.4629 33.5729 22.0983 32.8438 21.3691C32.1146 20.64 31.75 19.7546 31.75 18.7129C31.75 17.6712 32.1146 16.7858 32.8438 16.0566C33.5729 15.3275 34.4583 14.9629 35.5 14.9629C36.5417 14.9629 37.4271 15.3275 38.1562 16.0566C38.8854 16.7858 39.25 17.6712 39.25 18.7129C39.25 19.7546 38.8854 20.64 38.1562 21.3691C37.4271 22.0983 36.5417 22.4629 35.5 22.4629ZM35.5 17.4629C35.1458 17.4629 34.8492 17.5825 34.61 17.8216C34.37 18.0616 34.25 18.3587 34.25 18.7129C34.25 19.0671 34.37 19.3637 34.61 19.6029C34.8492 19.8429 35.1458 19.9629 35.5 19.9629C35.8542 19.9629 36.1513 19.8429 36.3913 19.6029C36.6304 19.3637 36.75 19.0671 36.75 18.7129C36.75 18.3587 36.6304 18.0616 36.3913 17.8216C36.1513 17.5825 35.8542 17.4629 35.5 17.4629ZM21.75 29.9629C21.3958 29.9629 21.0992 29.8429 20.86 29.6029C20.62 29.3637 20.5 29.0671 20.5 28.7129V27.9941C20.5 27.0775 20.9583 26.3429 21.875 25.7904C22.7917 25.2387 24 24.9629 25.5 24.9629C25.7708 24.9629 26.0262 24.9733 26.2662 24.9941C26.5054 25.015 26.7396 25.0462 26.9688 25.0879C26.6771 25.5046 26.4633 25.9525 26.3275 26.4316C26.1925 26.9108 26.125 27.4212 26.125 27.9629V29.9629H21.75ZM29.25 29.9629C28.8958 29.9629 28.5988 29.8429 28.3588 29.6029C28.1196 29.3637 28 29.0671 28 28.7129V27.9629C28 26.6087 28.6929 25.5096 30.0788 24.6654C31.4637 23.8221 33.2708 23.4004 35.5 23.4004C37.75 23.4004 39.5625 23.8221 40.9375 24.6654C42.3125 25.5096 43 26.6087 43 27.9629V28.7129C43 29.0671 42.88 29.3637 42.64 29.6029C42.4008 29.8429 42.1042 29.9629 41.75 29.9629H29.25ZM44.875 29.9629V27.9629C44.875 27.4212 44.8021 26.9108 44.6562 26.4316C44.5104 25.9525 44.3021 25.5046 44.0312 25.0879C44.2604 25.0462 44.495 25.015 44.735 24.9941C44.9742 24.9733 45.2292 24.9629 45.5 24.9629C47 24.9629 48.2083 25.2387 49.125 25.7904C50.0417 26.3429 50.5 27.0775 50.5 27.9941V28.7129C50.5 29.0671 50.38 29.3637 50.14 29.6029C49.9008 29.8429 49.6042 29.9629 49.25 29.9629H44.875ZM35.5 25.9004C34.3125 25.9004 33.25 26.0616 32.3125 26.3841C31.375 26.7075 30.8229 27.0671 30.6562 27.4629H40.3438C40.1562 27.0462 39.5992 26.6816 38.6725 26.3691C37.745 26.0566 36.6875 25.9004 35.5 25.9004ZM25.5 23.7129C24.8125 23.7129 24.2242 23.4679 23.735 22.9779C23.245 22.4887 23 21.9004 23 21.2129C23 20.5254 23.245 19.9366 23.735 19.4466C24.2242 18.9575 24.8125 18.7129 25.5 18.7129C26.1875 18.7129 26.7758 18.9575 27.265 19.4466C27.755 19.9366 28 20.5254 28 21.2129C28 21.9004 27.755 22.4887 27.265 22.9779C26.7758 23.4679 26.1875 23.7129 25.5 23.7129ZM45.5 23.7129C44.8125 23.7129 44.2237 23.4679 43.7337 22.9779C43.2446 22.4887 43 21.9004 43 21.2129C43 20.5254 43.2446 19.9366 43.7337 19.4466C44.2237 18.9575 44.8125 18.7129 45.5 18.7129C46.1875 18.7129 46.7763 18.9575 47.2663 19.4466C47.7554 19.9366 48 20.5254 48 21.2129C48 21.9004 47.7554 22.4887 47.2663 22.9779C46.7763 23.4679 46.1875 23.7129 45.5 23.7129ZM35.5 22.4629C34.4583 22.4629 33.5729 22.0983 32.8438 21.3691C32.1146 20.64 31.75 19.7546 31.75 18.7129C31.75 17.6712 32.1146 16.7858 32.8438 16.0566C33.5729 15.3275 34.4583 14.9629 35.5 14.9629C36.5417 14.9629 37.4271 15.3275 38.1562 16.0566C38.8854 16.7858 39.25 17.6712 39.25 18.7129C39.25 19.7546 38.8854 20.64 38.1562 21.3691C37.4271 22.0983 36.5417 22.4629 35.5 22.4629ZM35.5 17.4629C35.1458 17.4629 34.8492 17.5825 34.61 17.8216C34.37 18.0616 34.25 18.3587 34.25 18.7129C34.25 19.0671 34.37 19.3637 34.61 19.6029C34.8492 19.8429 35.1458 19.9629 35.5 19.9629C35.8542 19.9629 36.1513 19.8429 36.3913 19.6029C36.6304 19.3637 36.75 19.0671 36.75 18.7129C36.75 18.3587 36.6304 18.0616 36.3913 17.8216C36.1513 17.5825 35.8542 17.4629 35.5 17.4629Z" fill="black" fill-opacity="0.15"/>
</g>
<path d="M23.4891 43.3242C23.4793 46.0586 22.7469 48.3535 19.5438 50.0137L18.8602 49.0762C20.2664 48.334 21.1404 47.5088 21.6531 46.5273L19.075 46.7617L18.909 45.707L22.0438 45.5215C22.1463 45.1455 22.2098 44.7451 22.2488 44.3203H19.3875V43.3242H23.4891ZM26.4188 42.4746V51.3613H25.1785V46.9082H23.4695V45.8926H25.1785V42.4746H26.4188ZM35.3961 47.4355V48.4316H33.5602V51.3809H32.3102V48.4316H30.3961V51.3809H29.1461V48.4316H27.2613V47.4355H35.3961ZM34.4195 42.8945V46.4785H28.2184V42.8945H34.4195ZM29.4488 43.8809V45.4824H33.1793V43.8809H29.4488ZM43.0844 42.4746V51.3613H41.8441V42.4746H43.0844ZM37.3227 43.3242V48.0996C38.5238 48.085 39.8129 47.9727 41.1215 47.7188L41.2777 48.7441C39.7152 49.0664 38.2504 49.1738 36.8734 49.1641H36.0922V43.3242H37.3227ZM48.966 43.207V44.2227H45.675V45.6875H48.5949V46.6641H45.675V48.3438C47.0373 48.334 48.1262 48.2852 49.3664 48.0898L49.4836 49.0957C48.0871 49.3008 46.8078 49.3398 45.2063 49.3398H44.4445V43.207H48.966ZM51.427 42.4746V51.3613H50.1672V42.4746H51.427Z" fill="#F3F3F1"/>
<path d="M23.4891 43.3242C23.4793 46.0586 22.7469 48.3535 19.5438 50.0137L18.8602 49.0762C20.2664 48.334 21.1404 47.5088 21.6531 46.5273L19.075 46.7617L18.909 45.707L22.0438 45.5215C22.1463 45.1455 22.2098 44.7451 22.2488 44.3203H19.3875V43.3242H23.4891ZM26.4188 42.4746V51.3613H25.1785V46.9082H23.4695V45.8926H25.1785V42.4746H26.4188ZM35.3961 47.4355V48.4316H33.5602V51.3809H32.3102V48.4316H30.3961V51.3809H29.1461V48.4316H27.2613V47.4355H35.3961ZM34.4195 42.8945V46.4785H28.2184V42.8945H34.4195ZM29.4488 43.8809V45.4824H33.1793V43.8809H29.4488ZM43.0844 42.4746V51.3613H41.8441V42.4746H43.0844ZM37.3227 43.3242V48.0996C38.5238 48.085 39.8129 47.9727 41.1215 47.7188L41.2777 48.7441C39.7152 49.0664 38.2504 49.1738 36.8734 49.1641H36.0922V43.3242H37.3227ZM48.966 43.207V44.2227H45.675V45.6875H48.5949V46.6641H45.675V48.3438C47.0373 48.334 48.1262 48.2852 49.3664 48.0898L49.4836 49.0957C48.0871 49.3008 46.8078 49.3398 45.2063 49.3398H44.4445V43.207H48.966ZM51.427 42.4746V51.3613H50.1672V42.4746H51.427Z" fill="black" fill-opacity="0.15"/>
<defs>
<clipPath id="clip0_532_112">
<rect width="30" height="30" fill="white" transform="translate(20.5 7.46289)"/>
</clipPath>
</defs>
</svg>
