<svg viewBox="0 0 70 61" fill="none" xmlns="http://www.w3.org/2000/svg">
<rect y="0.0888672" width="70" height="60" rx="10" fill="#0DB659" fill-opacity="0.2"/>
<path d="M31.25 21.5889C30.8958 21.5889 30.5992 21.4689 30.36 21.2289C30.12 20.9897 30 20.693 30 20.3389C30 19.9847 30.12 19.6876 30.36 19.4476C30.5992 19.2085 30.8958 19.0889 31.25 19.0889H38.75C39.1042 19.0889 39.4012 19.2085 39.6412 19.4476C39.8804 19.6876 40 19.9847 40 20.3389C40 20.693 39.8804 20.9897 39.6412 21.2289C39.4012 21.4689 39.1042 21.5889 38.75 21.5889H31.25ZM31.25 16.5889C30.8958 16.5889 30.5992 16.4693 30.36 16.2301C30.12 15.9901 30 15.693 30 15.3389C30 14.9847 30.12 14.6876 30.36 14.4476C30.5992 14.2085 30.8958 14.0889 31.25 14.0889H38.75C39.1042 14.0889 39.4012 14.2085 39.6412 14.4476C39.8804 14.6876 40 14.9847 40 15.3389C40 15.693 39.8804 15.9901 39.6412 16.2301C39.4012 16.4693 39.1042 16.5889 38.75 16.5889H31.25ZM27.5 24.0889H36.875C37.4792 24.0889 38.0417 24.2189 38.5625 24.4789C39.0833 24.7397 39.5208 25.1097 39.875 25.5889L42.5 29.0264V11.5889H27.5V24.0889ZM27.5 31.5889H41.3125L37.9062 27.1201C37.7812 26.9535 37.6304 26.8235 37.4537 26.7301C37.2762 26.636 37.0833 26.5889 36.875 26.5889H27.5V31.5889ZM42.5 34.0889H27.5C26.8125 34.0889 26.2242 33.8443 25.735 33.3551C25.245 32.8651 25 32.2764 25 31.5889V11.5889C25 10.9014 25.245 10.3126 25.735 9.82262C26.2242 9.33345 26.8125 9.08887 27.5 9.08887H42.5C43.1875 9.08887 43.7762 9.33345 44.2662 9.82262C44.7554 10.3126 45 10.9014 45 11.5889V31.5889C45 32.2764 44.7554 32.8651 44.2662 33.3551C43.7762 33.8443 43.1875 34.0889 42.5 34.0889Z" fill="#0DB659"/>
<path d="M31.25 21.5889C30.8958 21.5889 30.5992 21.4689 30.36 21.2289C30.12 20.9897 30 20.693 30 20.3389C30 19.9847 30.12 19.6876 30.36 19.4476C30.5992 19.2085 30.8958 19.0889 31.25 19.0889H38.75C39.1042 19.0889 39.4012 19.2085 39.6412 19.4476C39.8804 19.6876 40 19.9847 40 20.3389C40 20.693 39.8804 20.9897 39.6412 21.2289C39.4012 21.4689 39.1042 21.5889 38.75 21.5889H31.25ZM31.25 16.5889C30.8958 16.5889 30.5992 16.4693 30.36 16.2301C30.12 15.9901 30 15.693 30 15.3389C30 14.9847 30.12 14.6876 30.36 14.4476C30.5992 14.2085 30.8958 14.0889 31.25 14.0889H38.75C39.1042 14.0889 39.4012 14.2085 39.6412 14.4476C39.8804 14.6876 40 14.9847 40 15.3389C40 15.693 39.8804 15.9901 39.6412 16.2301C39.4012 16.4693 39.1042 16.5889 38.75 16.5889H31.25ZM27.5 24.0889H36.875C37.4792 24.0889 38.0417 24.2189 38.5625 24.4789C39.0833 24.7397 39.5208 25.1097 39.875 25.5889L42.5 29.0264V11.5889H27.5V24.0889ZM27.5 31.5889H41.3125L37.9062 27.1201C37.7812 26.9535 37.6304 26.8235 37.4537 26.7301C37.2762 26.636 37.0833 26.5889 36.875 26.5889H27.5V31.5889ZM42.5 34.0889H27.5C26.8125 34.0889 26.2242 33.8443 25.735 33.3551C25.245 32.8651 25 32.2764 25 31.5889V11.5889C25 10.9014 25.245 10.3126 25.735 9.82262C26.2242 9.33345 26.8125 9.08887 27.5 9.08887H42.5C43.1875 9.08887 43.7762 9.33345 44.2662 9.82262C44.7554 10.3126 45 10.9014 45 11.5889V31.5889C45 32.2764 44.7554 32.8651 44.2662 33.3551C43.7762 33.8443 43.1875 34.0889 42.5 34.0889Z" fill="black" fill-opacity="0.4"/>
<path d="M24.9297 41.6006V50.4873H23.7285V46.0439H22.8984V50.0576H21.7266V41.7471H22.8984V45.0381H23.7285V41.6006H24.9297ZM18.875 42.5869V47.2256C19.5879 47.2109 20.3691 47.1475 21.2285 46.9814L21.3555 48.0557C20.1641 48.2607 19.1484 48.3193 18.2305 48.3193H17.625V42.5869H18.875ZM35.7457 48.4365V49.4521H27.6109V48.4365H31.0387V46.7959H28.4703V42.167H29.7203V43.5439H33.5973V42.167H34.8375V46.7959H32.2789V48.4365H35.7457ZM29.7203 45.7998H33.5973V44.54H29.7203V45.7998ZM40.934 42.2451V42.8018C40.934 43.417 40.934 44.3057 40.7289 45.4092L39.5082 45.292C39.6645 44.4375 39.7035 43.793 39.7133 43.2607H36.3637V42.2451H40.934ZM38.727 44.2959V45.9951C39.6107 45.9609 40.5189 45.8926 41.3539 45.7705L41.4223 46.6689C39.5766 47.0107 37.4867 47.04 35.9438 47.0498L35.8363 46.0537C36.3344 46.0537 36.8959 46.0537 37.4867 46.0342V44.2959H38.727ZM43.1117 41.6006V44.3057H44.1859V45.3506H43.1117V48.251H41.8324V41.6006H43.1117ZM43.3852 49.335V50.3311H37.1449V47.6553H38.3949V49.335H43.3852ZM51.3469 41.6006V43.7881H52.548V44.833H51.3469V46.9619H50.0969V41.6006H51.3469ZM51.3469 47.3525V50.3896H45.5363V47.3525H51.3469ZM46.7668 48.3291V49.3936H50.1164V48.3291H46.7668ZM49.5695 42.4014V43.3877H44.2961V42.4014H46.3176V41.5518H47.5578V42.4014H49.5695ZM46.9328 43.6611C48.2219 43.6611 49.1203 44.3154 49.1203 45.2529C49.1203 46.2197 48.2219 46.8643 46.9328 46.8643C45.6242 46.8643 44.7258 46.2197 44.7258 45.2529C44.7258 44.3154 45.6242 43.6611 46.9328 43.6611ZM46.9328 44.5986C46.3371 44.5986 45.9367 44.833 45.9465 45.2529C45.9367 45.7021 46.3371 45.9463 46.9328 45.9463C47.5285 45.9463 47.9387 45.7021 47.9387 45.2529C47.9387 44.833 47.5285 44.5986 46.9328 44.5986Z" fill="#0DB659"/>
<path d="M24.9297 41.6006V50.4873H23.7285V46.0439H22.8984V50.0576H21.7266V41.7471H22.8984V45.0381H23.7285V41.6006H24.9297ZM18.875 42.5869V47.2256C19.5879 47.2109 20.3691 47.1475 21.2285 46.9814L21.3555 48.0557C20.1641 48.2607 19.1484 48.3193 18.2305 48.3193H17.625V42.5869H18.875ZM35.7457 48.4365V49.4521H27.6109V48.4365H31.0387V46.7959H28.4703V42.167H29.7203V43.5439H33.5973V42.167H34.8375V46.7959H32.2789V48.4365H35.7457ZM29.7203 45.7998H33.5973V44.54H29.7203V45.7998ZM40.934 42.2451V42.8018C40.934 43.417 40.934 44.3057 40.7289 45.4092L39.5082 45.292C39.6645 44.4375 39.7035 43.793 39.7133 43.2607H36.3637V42.2451H40.934ZM38.727 44.2959V45.9951C39.6107 45.9609 40.5189 45.8926 41.3539 45.7705L41.4223 46.6689C39.5766 47.0107 37.4867 47.04 35.9438 47.0498L35.8363 46.0537C36.3344 46.0537 36.8959 46.0537 37.4867 46.0342V44.2959H38.727ZM43.1117 41.6006V44.3057H44.1859V45.3506H43.1117V48.251H41.8324V41.6006H43.1117ZM43.3852 49.335V50.3311H37.1449V47.6553H38.3949V49.335H43.3852ZM51.3469 41.6006V43.7881H52.548V44.833H51.3469V46.9619H50.0969V41.6006H51.3469ZM51.3469 47.3525V50.3896H45.5363V47.3525H51.3469ZM46.7668 48.3291V49.3936H50.1164V48.3291H46.7668ZM49.5695 42.4014V43.3877H44.2961V42.4014H46.3176V41.5518H47.5578V42.4014H49.5695ZM46.9328 43.6611C48.2219 43.6611 49.1203 44.3154 49.1203 45.2529C49.1203 46.2197 48.2219 46.8643 46.9328 46.8643C45.6242 46.8643 44.7258 46.2197 44.7258 45.2529C44.7258 44.3154 45.6242 43.6611 46.9328 43.6611ZM46.9328 44.5986C46.3371 44.5986 45.9367 44.833 45.9465 45.2529C45.9367 45.7021 46.3371 45.9463 46.9328 45.9463C47.5285 45.9463 47.9387 45.7021 47.9387 45.2529C47.9387 44.833 47.5285 44.5986 46.9328 44.5986Z" fill="black" fill-opacity="0.4"/>
</svg>
