<svg viewBox="0 0 20 20" fill="none" xmlns="http://www.w3.org/2000/svg">
<path d="M14.1666 18.3332C13.9305 18.3332 13.7325 18.2533 13.5728 18.0936C13.4131 17.9339 13.3332 17.7359 13.3332 17.4998C13.3332 17.2637 13.4131 17.0658 13.5728 16.9061C13.7325 16.7464 13.9305 16.6665 14.1666 16.6665H16.6666V14.9998H14.1666C13.9305 14.9998 13.7325 14.92 13.5728 14.7603C13.4131 14.6005 13.3332 14.4026 13.3332 14.1665C13.3332 13.9304 13.4131 13.7325 13.5728 13.5728C13.7325 13.413 13.9305 13.3332 14.1666 13.3332H16.6666V11.6665H14.1666C13.9305 11.6665 13.7325 11.5866 13.5728 11.4269C13.4131 11.2672 13.3332 11.0693 13.3332 10.8332C13.3332 10.5971 13.4131 10.3991 13.5728 10.2394C13.7325 10.0797 13.9305 9.99984 14.1666 9.99984H16.6666V8.33317H14.1666C13.9305 8.33317 13.7325 8.25331 13.5728 8.09359C13.4131 7.93386 13.3332 7.73595 13.3332 7.49984C13.3332 7.26373 13.4131 7.06581 13.5728 6.90609C13.7325 6.74636 13.9305 6.6665 14.1666 6.6665H16.6666V4.99984H14.1666C13.9305 4.99984 13.7325 4.91998 13.5728 4.76025C13.4131 4.60053 13.3332 4.40261 13.3332 4.1665C13.3332 3.93039 13.4131 3.73248 13.5728 3.57275C13.7325 3.41303 13.9305 3.33317 14.1666 3.33317H17.4999C17.9582 3.33317 18.3506 3.49636 18.677 3.82275C19.0034 4.14914 19.1666 4.5415 19.1666 4.99984V16.6665C19.1666 17.1248 19.0034 17.5172 18.677 17.8436C18.3506 18.17 17.9582 18.3332 17.4999 18.3332H14.1666ZM5.33324 16.6665H7.9999L10.4582 9.87484L7.8749 8.33317H5.45824L2.8749 9.87484L5.33324 16.6665ZM3.77074 17.229L1.3124 10.4582C1.17352 10.0832 1.17004 9.70817 1.30199 9.33317C1.43393 8.95817 1.67352 8.6665 2.02074 8.45817L4.9999 6.6665V2.49984C4.9999 2.26373 5.07976 2.06581 5.23949 1.90609C5.39921 1.74637 5.59713 1.6665 5.83324 1.6665H7.4999C7.73601 1.6665 7.93393 1.74637 8.09365 1.90609C8.25338 2.06581 8.33324 2.26373 8.33324 2.49984V6.6665L11.3124 8.45817C11.6596 8.6665 11.8992 8.95817 12.0312 9.33317C12.1631 9.70817 12.1596 10.0832 12.0207 10.4582L9.5624 17.229C9.45129 17.5623 9.25338 17.8297 8.96865 18.0311C8.68393 18.2325 8.36101 18.3332 7.9999 18.3332H5.33324C4.97213 18.3332 4.64921 18.2325 4.36449 18.0311C4.07976 17.8297 3.88185 17.5623 3.77074 17.229Z" fill="#0DB659"/>
<path d="M14.1666 18.3332C13.9305 18.3332 13.7325 18.2533 13.5728 18.0936C13.4131 17.9339 13.3332 17.7359 13.3332 17.4998C13.3332 17.2637 13.4131 17.0658 13.5728 16.9061C13.7325 16.7464 13.9305 16.6665 14.1666 16.6665H16.6666V14.9998H14.1666C13.9305 14.9998 13.7325 14.92 13.5728 14.7603C13.4131 14.6005 13.3332 14.4026 13.3332 14.1665C13.3332 13.9304 13.4131 13.7325 13.5728 13.5728C13.7325 13.413 13.9305 13.3332 14.1666 13.3332H16.6666V11.6665H14.1666C13.9305 11.6665 13.7325 11.5866 13.5728 11.4269C13.4131 11.2672 13.3332 11.0693 13.3332 10.8332C13.3332 10.5971 13.4131 10.3991 13.5728 10.2394C13.7325 10.0797 13.9305 9.99984 14.1666 9.99984H16.6666V8.33317H14.1666C13.9305 8.33317 13.7325 8.25331 13.5728 8.09359C13.4131 7.93386 13.3332 7.73595 13.3332 7.49984C13.3332 7.26373 13.4131 7.06581 13.5728 6.90609C13.7325 6.74636 13.9305 6.6665 14.1666 6.6665H16.6666V4.99984H14.1666C13.9305 4.99984 13.7325 4.91998 13.5728 4.76025C13.4131 4.60053 13.3332 4.40261 13.3332 4.1665C13.3332 3.93039 13.4131 3.73248 13.5728 3.57275C13.7325 3.41303 13.9305 3.33317 14.1666 3.33317H17.4999C17.9582 3.33317 18.3506 3.49636 18.677 3.82275C19.0034 4.14914 19.1666 4.5415 19.1666 4.99984V16.6665C19.1666 17.1248 19.0034 17.5172 18.677 17.8436C18.3506 18.17 17.9582 18.3332 17.4999 18.3332H14.1666ZM5.33324 16.6665H7.9999L10.4582 9.87484L7.8749 8.33317H5.45824L2.8749 9.87484L5.33324 16.6665ZM3.77074 17.229L1.3124 10.4582C1.17352 10.0832 1.17004 9.70817 1.30199 9.33317C1.43393 8.95817 1.67352 8.6665 2.02074 8.45817L4.9999 6.6665V2.49984C4.9999 2.26373 5.07976 2.06581 5.23949 1.90609C5.39921 1.74637 5.59713 1.6665 5.83324 1.6665H7.4999C7.73601 1.6665 7.93393 1.74637 8.09365 1.90609C8.25338 2.06581 8.33324 2.26373 8.33324 2.49984V6.6665L11.3124 8.45817C11.6596 8.6665 11.8992 8.95817 12.0312 9.33317C12.1631 9.70817 12.1596 10.0832 12.0207 10.4582L9.5624 17.229C9.45129 17.5623 9.25338 17.8297 8.96865 18.0311C8.68393 18.2325 8.36101 18.3332 7.9999 18.3332H5.33324C4.97213 18.3332 4.64921 18.2325 4.36449 18.0311C4.07976 17.8297 3.88185 17.5623 3.77074 17.229Z" fill="black" fill-opacity="0.4"/>
</svg>
