<svg viewBox="0 0 20 20" fill="none" xmlns="http://www.w3.org/2000/svg">
<g clip-path="url(#clip0_1566_2351)">
<path d="M5.83333 2.5C5.375 2.5 5 2.875 5 3.33333V7.5C5 9.975 6.8 12.025 9.16667 12.425V15.8333H7.5C7.04167 15.8333 6.66667 16.2083 6.66667 16.6667C6.66667 17.125 7.04167 17.5 7.5 17.5H12.5C12.9583 17.5 13.3333 17.125 13.3333 16.6667C13.3333 16.2083 12.9583 15.8333 12.5 15.8333H10.8333V12.425C13.2 12.025 15 9.975 15 7.5V3.33333C15 2.875 14.625 2.5 14.1667 2.5H5.83333ZM13.3333 6.66667H6.66667V4.16667H13.3333V6.66667Z" fill="#0DB659"/>
<path d="M5.83333 2.5C5.375 2.5 5 2.875 5 3.33333V7.5C5 9.975 6.8 12.025 9.16667 12.425V15.8333H7.5C7.04167 15.8333 6.66667 16.2083 6.66667 16.6667C6.66667 17.125 7.04167 17.5 7.5 17.5H12.5C12.9583 17.5 13.3333 17.125 13.3333 16.6667C13.3333 16.2083 12.9583 15.8333 12.5 15.8333H10.8333V12.425C13.2 12.025 15 9.975 15 7.5V3.33333C15 2.875 14.625 2.5 14.1667 2.5H5.83333ZM13.3333 6.66667H6.66667V4.16667H13.3333V6.66667Z" fill="black" fill-opacity="0.4"/>
</g>
<defs>
<clipPath id="clip0_1566_2351">
<rect width="20" height="20" fill="white"/>
</clipPath>
</defs>
</svg>
