<svg viewBox="0 0 20 20" fill="none" xmlns="http://www.w3.org/2000/svg">
<path d="M10 14.1667C10.3472 14.1667 10.6422 14.045 10.885 13.8017C11.1283 13.5589 11.25 13.2639 11.25 12.9167V11.25H12.9167C13.2639 11.25 13.5589 11.1283 13.8017 10.885C14.045 10.6422 14.1667 10.3472 14.1667 10C14.1667 9.65278 14.045 9.35778 13.8017 9.115C13.5589 8.87167 13.2639 8.75 12.9167 8.75H11.25V7.08333C11.25 6.73611 11.1283 6.44111 10.885 6.19833C10.6422 5.955 10.3472 5.83333 10 5.83333C9.65278 5.83333 9.35778 5.955 9.115 6.19833C8.87167 6.44111 8.75 6.73611 8.75 7.08333V8.75H7.08333C6.73611 8.75 6.44111 8.87167 6.19833 9.115C5.955 9.35778 5.83333 9.65278 5.83333 10C5.83333 10.3472 5.955 10.6422 6.19833 10.885C6.44111 11.1283 6.73611 11.25 7.08333 11.25H8.75V12.9167C8.75 13.2639 8.87167 13.5589 9.115 13.8017C9.35778 14.045 9.65278 14.1667 10 14.1667ZM4.16667 17.5C3.70833 17.5 3.31583 17.3369 2.98917 17.0108C2.66306 16.6842 2.5 16.2917 2.5 15.8333V4.16667C2.5 3.70833 2.66306 3.31583 2.98917 2.98917C3.31583 2.66306 3.70833 2.5 4.16667 2.5H15.8333C16.2917 2.5 16.6842 2.66306 17.0108 2.98917C17.3369 3.31583 17.5 3.70833 17.5 4.16667V15.8333C17.5 16.2917 17.3369 16.6842 17.0108 17.0108C16.6842 17.3369 16.2917 17.5 15.8333 17.5H4.16667ZM4.16667 15.8333H15.8333V4.16667H4.16667V15.8333Z" fill="#0DB659"/>
<path d="M10 14.1667C10.3472 14.1667 10.6422 14.045 10.885 13.8017C11.1283 13.5589 11.25 13.2639 11.25 12.9167V11.25H12.9167C13.2639 11.25 13.5589 11.1283 13.8017 10.885C14.045 10.6422 14.1667 10.3472 14.1667 10C14.1667 9.65278 14.045 9.35778 13.8017 9.115C13.5589 8.87167 13.2639 8.75 12.9167 8.75H11.25V7.08333C11.25 6.73611 11.1283 6.44111 10.885 6.19833C10.6422 5.955 10.3472 5.83333 10 5.83333C9.65278 5.83333 9.35778 5.955 9.115 6.19833C8.87167 6.44111 8.75 6.73611 8.75 7.08333V8.75H7.08333C6.73611 8.75 6.44111 8.87167 6.19833 9.115C5.955 9.35778 5.83333 9.65278 5.83333 10C5.83333 10.3472 5.955 10.6422 6.19833 10.885C6.44111 11.1283 6.73611 11.25 7.08333 11.25H8.75V12.9167C8.75 13.2639 8.87167 13.5589 9.115 13.8017C9.35778 14.045 9.65278 14.1667 10 14.1667ZM4.16667 17.5C3.70833 17.5 3.31583 17.3369 2.98917 17.0108C2.66306 16.6842 2.5 16.2917 2.5 15.8333V4.16667C2.5 3.70833 2.66306 3.31583 2.98917 2.98917C3.31583 2.66306 3.70833 2.5 4.16667 2.5H15.8333C16.2917 2.5 16.6842 2.66306 17.0108 2.98917C17.3369 3.31583 17.5 3.70833 17.5 4.16667V15.8333C17.5 16.2917 17.3369 16.6842 17.0108 17.0108C16.6842 17.3369 16.2917 17.5 15.8333 17.5H4.16667ZM4.16667 15.8333H15.8333V4.16667H4.16667V15.8333Z" fill="black" fill-opacity="0.4"/>
</svg>
