<svg viewBox="0 0 18 17" fill="none" xmlns="http://www.w3.org/2000/svg">
<path d="M2.75008 8.00016C3.90067 8.00016 4.83341 7.06742 4.83341 5.91683C4.83341 4.76624 3.90067 3.8335 2.75008 3.8335C1.59949 3.8335 0.666748 4.76624 0.666748 5.91683C0.666748 7.06742 1.59949 8.00016 2.75008 8.00016Z" fill="#0DB659"/>
<path d="M2.75008 8.00016C3.90067 8.00016 4.83341 7.06742 4.83341 5.91683C4.83341 4.76624 3.90067 3.8335 2.75008 3.8335C1.59949 3.8335 0.666748 4.76624 0.666748 5.91683C0.666748 7.06742 1.59949 8.00016 2.75008 8.00016Z" fill="black" fill-opacity="0.4"/>
<path d="M6.50008 4.66667C7.65067 4.66667 8.58341 3.73393 8.58341 2.58333C8.58341 1.43274 7.65067 0.5 6.50008 0.5C5.34949 0.5 4.41675 1.43274 4.41675 2.58333C4.41675 3.73393 5.34949 4.66667 6.50008 4.66667Z" fill="#0DB659"/>
<path d="M6.50008 4.66667C7.65067 4.66667 8.58341 3.73393 8.58341 2.58333C8.58341 1.43274 7.65067 0.5 6.50008 0.5C5.34949 0.5 4.41675 1.43274 4.41675 2.58333C4.41675 3.73393 5.34949 4.66667 6.50008 4.66667Z" fill="black" fill-opacity="0.4"/>
<path d="M11.5001 4.66667C12.6507 4.66667 13.5834 3.73393 13.5834 2.58333C13.5834 1.43274 12.6507 0.5 11.5001 0.5C10.3495 0.5 9.41675 1.43274 9.41675 2.58333C9.41675 3.73393 10.3495 4.66667 11.5001 4.66667Z" fill="#0DB659"/>
<path d="M11.5001 4.66667C12.6507 4.66667 13.5834 3.73393 13.5834 2.58333C13.5834 1.43274 12.6507 0.5 11.5001 0.5C10.3495 0.5 9.41675 1.43274 9.41675 2.58333C9.41675 3.73393 10.3495 4.66667 11.5001 4.66667Z" fill="black" fill-opacity="0.4"/>
<path d="M15.2501 8.00016C16.4007 8.00016 17.3334 7.06742 17.3334 5.91683C17.3334 4.76624 16.4007 3.8335 15.2501 3.8335C14.0995 3.8335 13.1667 4.76624 13.1667 5.91683C13.1667 7.06742 14.0995 8.00016 15.2501 8.00016Z" fill="#0DB659"/>
<path d="M15.2501 8.00016C16.4007 8.00016 17.3334 7.06742 17.3334 5.91683C17.3334 4.76624 16.4007 3.8335 15.2501 3.8335C14.0995 3.8335 13.1667 4.76624 13.1667 5.91683C13.1667 7.06742 14.0995 8.00016 15.2501 8.00016Z" fill="black" fill-opacity="0.4"/>
<path d="M13.45 10.3833C12.725 9.53333 12.1166 8.80833 11.3833 7.95833C11 7.50833 10.5083 7.05833 9.92496 6.85833C9.83329 6.825 9.74162 6.8 9.64996 6.78333C9.44162 6.75 9.21662 6.75 8.99996 6.75C8.78329 6.75 8.55829 6.75 8.34162 6.79167C8.24996 6.80833 8.15829 6.83333 8.06662 6.86667C7.48329 7.06667 6.99996 7.51667 6.60829 7.96667C5.88329 8.81667 5.27496 9.54167 4.54162 10.3917C3.44996 11.4833 2.10829 12.6917 2.35829 14.3833C2.59996 15.2333 3.20829 16.075 4.29996 16.3167C4.90829 16.4417 6.84996 15.95 8.91662 15.95H9.06662C11.1333 15.95 13.075 16.4333 13.6833 16.3167C14.775 16.075 15.3833 15.225 15.625 14.3833C15.8833 12.6833 14.5416 11.475 13.45 10.3833Z" fill="#0DB659"/>
<path d="M13.45 10.3833C12.725 9.53333 12.1166 8.80833 11.3833 7.95833C11 7.50833 10.5083 7.05833 9.92496 6.85833C9.83329 6.825 9.74162 6.8 9.64996 6.78333C9.44162 6.75 9.21662 6.75 8.99996 6.75C8.78329 6.75 8.55829 6.75 8.34162 6.79167C8.24996 6.80833 8.15829 6.83333 8.06662 6.86667C7.48329 7.06667 6.99996 7.51667 6.60829 7.96667C5.88329 8.81667 5.27496 9.54167 4.54162 10.3917C3.44996 11.4833 2.10829 12.6917 2.35829 14.3833C2.59996 15.2333 3.20829 16.075 4.29996 16.3167C4.90829 16.4417 6.84996 15.95 8.91662 15.95H9.06662C11.1333 15.95 13.075 16.4333 13.6833 16.3167C14.775 16.075 15.3833 15.225 15.625 14.3833C15.8833 12.6833 14.5416 11.475 13.45 10.3833Z" fill="black" fill-opacity="0.4"/>
</svg>
