<svg viewBox="0 0 20 20" fill="none" xmlns="http://www.w3.org/2000/svg">
<path d="M14.9999 18.3332C14.7638 18.3332 14.566 18.2532 14.4066 18.0932C14.2466 17.9337 14.1666 17.7359 14.1666 17.4998V11.6665H13.3333C12.8749 11.6665 12.4827 11.5032 12.1566 11.1765C11.8299 10.8504 11.6666 10.4582 11.6666 9.99984V5.83317C11.6666 4.68039 12.073 3.69789 12.8858 2.88567C13.698 2.07289 14.6805 1.6665 15.8333 1.6665V17.4998C15.8333 17.7359 15.7533 17.9337 15.5933 18.0932C15.4338 18.2532 15.236 18.3332 14.9999 18.3332ZM6.66659 18.3332C6.43047 18.3332 6.23242 18.2532 6.07242 18.0932C5.91297 17.9337 5.83325 17.7359 5.83325 17.4998V10.7082C5.12492 10.5137 4.53131 10.1248 4.05242 9.5415C3.57297 8.95817 3.33325 8.27762 3.33325 7.49984V2.49984C3.33325 2.26373 3.41297 2.06567 3.57242 1.90567C3.73242 1.74623 3.93047 1.6665 4.16659 1.6665C4.4027 1.6665 4.60075 1.74623 4.76075 1.90567C4.9202 2.06567 4.99992 2.26373 4.99992 2.49984V7.49984H5.83325V2.49984C5.83325 2.26373 5.91297 2.06567 6.07242 1.90567C6.23242 1.74623 6.43047 1.6665 6.66659 1.6665C6.9027 1.6665 7.10075 1.74623 7.26075 1.90567C7.4202 2.06567 7.49992 2.26373 7.49992 2.49984V7.49984H8.33325V2.49984C8.33325 2.26373 8.41325 2.06567 8.57325 1.90567C8.7327 1.74623 8.93047 1.6665 9.16658 1.6665C9.4027 1.6665 9.60075 1.74623 9.76075 1.90567C9.9202 2.06567 9.99992 2.26373 9.99992 2.49984V7.49984C9.99992 8.27762 9.7602 8.95817 9.28075 9.5415C8.80186 10.1248 8.20825 10.5137 7.49992 10.7082V17.4998C7.49992 17.7359 7.4202 17.9337 7.26075 18.0932C7.10075 18.2532 6.9027 18.3332 6.66659 18.3332Z" fill="#0DB659"/>
<path d="M14.9999 18.3332C14.7638 18.3332 14.566 18.2532 14.4066 18.0932C14.2466 17.9337 14.1666 17.7359 14.1666 17.4998V11.6665H13.3333C12.8749 11.6665 12.4827 11.5032 12.1566 11.1765C11.8299 10.8504 11.6666 10.4582 11.6666 9.99984V5.83317C11.6666 4.68039 12.073 3.69789 12.8858 2.88567C13.698 2.07289 14.6805 1.6665 15.8333 1.6665V17.4998C15.8333 17.7359 15.7533 17.9337 15.5933 18.0932C15.4338 18.2532 15.236 18.3332 14.9999 18.3332ZM6.66659 18.3332C6.43047 18.3332 6.23242 18.2532 6.07242 18.0932C5.91297 17.9337 5.83325 17.7359 5.83325 17.4998V10.7082C5.12492 10.5137 4.53131 10.1248 4.05242 9.5415C3.57297 8.95817 3.33325 8.27762 3.33325 7.49984V2.49984C3.33325 2.26373 3.41297 2.06567 3.57242 1.90567C3.73242 1.74623 3.93047 1.6665 4.16659 1.6665C4.4027 1.6665 4.60075 1.74623 4.76075 1.90567C4.9202 2.06567 4.99992 2.26373 4.99992 2.49984V7.49984H5.83325V2.49984C5.83325 2.26373 5.91297 2.06567 6.07242 1.90567C6.23242 1.74623 6.43047 1.6665 6.66659 1.6665C6.9027 1.6665 7.10075 1.74623 7.26075 1.90567C7.4202 2.06567 7.49992 2.26373 7.49992 2.49984V7.49984H8.33325V2.49984C8.33325 2.26373 8.41325 2.06567 8.57325 1.90567C8.7327 1.74623 8.93047 1.6665 9.16658 1.6665C9.4027 1.6665 9.60075 1.74623 9.76075 1.90567C9.9202 2.06567 9.99992 2.26373 9.99992 2.49984V7.49984C9.99992 8.27762 9.7602 8.95817 9.28075 9.5415C8.80186 10.1248 8.20825 10.5137 7.49992 10.7082V17.4998C7.49992 17.7359 7.4202 17.9337 7.26075 18.0932C7.10075 18.2532 6.9027 18.3332 6.66659 18.3332Z" fill="black" fill-opacity="0.4"/>
</svg>
