<svg viewBox="0 0 20 20" fill="none" xmlns="http://www.w3.org/2000/svg">
<path d="M4.99992 12.7707C5.19436 12.6734 5.39575 12.604 5.60409 12.5623C5.81242 12.5207 6.0277 12.4998 6.24992 12.4998H6.66659V3.33317H6.24992C5.9027 3.33317 5.60756 3.4547 5.3645 3.69775C5.12145 3.94081 4.99992 4.23595 4.99992 4.58317V12.7707ZM8.33325 12.4998H14.9999V3.33317H8.33325V12.4998ZM6.24992 18.3332C5.44436 18.3332 4.75686 18.0484 4.18742 17.479C3.61797 16.9096 3.33325 16.2221 3.33325 15.4165V4.58317C3.33325 3.77761 3.61797 3.09011 4.18742 2.52067C4.75686 1.95123 5.44436 1.6665 6.24992 1.6665H14.9999C15.4583 1.6665 15.8506 1.8297 16.177 2.15609C16.5034 2.48248 16.6666 2.87484 16.6666 3.33317V13.7707C16.6666 13.8818 16.6214 13.9825 16.5312 14.0728C16.4409 14.163 16.2777 14.2637 16.0416 14.3748C15.8471 14.4721 15.6944 14.6109 15.5833 14.7915C15.4721 14.9721 15.4166 15.1804 15.4166 15.4165C15.4166 15.6526 15.4721 15.8644 15.5833 16.0519C15.6944 16.2394 15.8471 16.3748 16.0416 16.4582C16.236 16.5415 16.3888 16.6561 16.4999 16.8019C16.611 16.9478 16.6666 17.104 16.6666 17.2707V17.479C16.6666 17.7151 16.5867 17.9165 16.427 18.0832C16.2673 18.2498 16.0694 18.3332 15.8333 18.3332H6.24992ZM6.24992 16.6665H14.0208C13.9374 16.4721 13.8714 16.2741 13.8228 16.0728C13.7742 15.8714 13.7499 15.6526 13.7499 15.4165C13.7499 15.1943 13.7708 14.979 13.8124 14.7707C13.8541 14.5623 13.9235 14.3609 14.0208 14.1665H6.24992C5.88881 14.1665 5.5902 14.288 5.35409 14.5311C5.11797 14.7741 4.99992 15.0693 4.99992 15.4165C4.99992 15.7776 5.11797 16.0762 5.35409 16.3123C5.5902 16.5484 5.88881 16.6665 6.24992 16.6665Z" fill="#0DB659"/>
<path d="M4.99992 12.7707C5.19436 12.6734 5.39575 12.604 5.60409 12.5623C5.81242 12.5207 6.0277 12.4998 6.24992 12.4998H6.66659V3.33317H6.24992C5.9027 3.33317 5.60756 3.4547 5.3645 3.69775C5.12145 3.94081 4.99992 4.23595 4.99992 4.58317V12.7707ZM8.33325 12.4998H14.9999V3.33317H8.33325V12.4998ZM6.24992 18.3332C5.44436 18.3332 4.75686 18.0484 4.18742 17.479C3.61797 16.9096 3.33325 16.2221 3.33325 15.4165V4.58317C3.33325 3.77761 3.61797 3.09011 4.18742 2.52067C4.75686 1.95123 5.44436 1.6665 6.24992 1.6665H14.9999C15.4583 1.6665 15.8506 1.8297 16.177 2.15609C16.5034 2.48248 16.6666 2.87484 16.6666 3.33317V13.7707C16.6666 13.8818 16.6214 13.9825 16.5312 14.0728C16.4409 14.163 16.2777 14.2637 16.0416 14.3748C15.8471 14.4721 15.6944 14.6109 15.5833 14.7915C15.4721 14.9721 15.4166 15.1804 15.4166 15.4165C15.4166 15.6526 15.4721 15.8644 15.5833 16.0519C15.6944 16.2394 15.8471 16.3748 16.0416 16.4582C16.236 16.5415 16.3888 16.6561 16.4999 16.8019C16.611 16.9478 16.6666 17.104 16.6666 17.2707V17.479C16.6666 17.7151 16.5867 17.9165 16.427 18.0832C16.2673 18.2498 16.0694 18.3332 15.8333 18.3332H6.24992ZM6.24992 16.6665H14.0208C13.9374 16.4721 13.8714 16.2741 13.8228 16.0728C13.7742 15.8714 13.7499 15.6526 13.7499 15.4165C13.7499 15.1943 13.7708 14.979 13.8124 14.7707C13.8541 14.5623 13.9235 14.3609 14.0208 14.1665H6.24992C5.88881 14.1665 5.5902 14.288 5.35409 14.5311C5.11797 14.7741 4.99992 15.0693 4.99992 15.4165C4.99992 15.7776 5.11797 16.0762 5.35409 16.3123C5.5902 16.5484 5.88881 16.6665 6.24992 16.6665Z" fill="black" fill-opacity="0.4"/>
</svg>
