<svg viewBox="0 0 20 20" fill="none" xmlns="http://www.w3.org/2000/svg">
<g clip-path="url(#clip0_1566_2362)">
<path d="M15.4166 2.5H4.99992C4.08325 2.5 3.33325 3.25 3.33325 4.16667V8.925C3.33325 12.1167 5.79159 14.9083 8.98325 15C12.2833 15.1 14.9999 12.45 14.9999 9.16667V8.33333H15.4166C17.0249 8.33333 18.3333 7.025 18.3333 5.41667C18.3333 3.80833 17.0249 2.5 15.4166 2.5ZM13.3333 4.16667V6.66667H4.99992V4.16667H13.3333ZM15.4166 6.66667H14.9999V4.16667H15.4166C16.1083 4.16667 16.6666 4.725 16.6666 5.41667C16.6666 6.10833 16.1083 6.66667 15.4166 6.66667ZM4.16659 15.8333H15.8333C16.2916 15.8333 16.6666 16.2083 16.6666 16.6667C16.6666 17.125 16.2916 17.5 15.8333 17.5H4.16659C3.70825 17.5 3.33325 17.125 3.33325 16.6667C3.33325 16.2083 3.70825 15.8333 4.16659 15.8333Z" fill="#0DB659"/>
<path d="M15.4166 2.5H4.99992C4.08325 2.5 3.33325 3.25 3.33325 4.16667V8.925C3.33325 12.1167 5.79159 14.9083 8.98325 15C12.2833 15.1 14.9999 12.45 14.9999 9.16667V8.33333H15.4166C17.0249 8.33333 18.3333 7.025 18.3333 5.41667C18.3333 3.80833 17.0249 2.5 15.4166 2.5ZM13.3333 4.16667V6.66667H4.99992V4.16667H13.3333ZM15.4166 6.66667H14.9999V4.16667H15.4166C16.1083 4.16667 16.6666 4.725 16.6666 5.41667C16.6666 6.10833 16.1083 6.66667 15.4166 6.66667ZM4.16659 15.8333H15.8333C16.2916 15.8333 16.6666 16.2083 16.6666 16.6667C16.6666 17.125 16.2916 17.5 15.8333 17.5H4.16659C3.70825 17.5 3.33325 17.125 3.33325 16.6667C3.33325 16.2083 3.70825 15.8333 4.16659 15.8333Z" fill="black" fill-opacity="0.4"/>
</g>
<defs>
<clipPath id="clip0_1566_2362">
<rect width="20" height="20" fill="white"/>
</clipPath>
</defs>
</svg>
