<svg viewBox="0 0 20 20" fill="none" xmlns="http://www.w3.org/2000/svg">
<path d="M8.75008 8.33315C9.0973 8.33315 9.3923 8.21148 9.63508 7.96815C9.87842 7.72537 10.0001 7.43037 10.0001 7.08315C10.0001 6.73593 9.87842 6.44093 9.63508 6.19815C9.3923 5.95481 9.0973 5.83315 8.75008 5.83315C8.40286 5.83315 8.10786 5.95481 7.86508 6.19815C7.62175 6.44093 7.50008 6.73593 7.50008 7.08315C7.50008 7.43037 7.62175 7.72537 7.86508 7.96815C8.10786 8.21148 8.40286 8.33315 8.75008 8.33315ZM7.08341 12.4998C7.43064 12.4998 7.72564 12.3781 7.96842 12.1348C8.21175 11.892 8.33342 11.597 8.33342 11.2498C8.33342 10.9026 8.21175 10.6076 7.96842 10.3648C7.72564 10.1215 7.43064 9.99981 7.08341 9.99981C6.73619 9.99981 6.44119 10.1215 6.19842 10.3648C5.95508 10.6076 5.83341 10.9026 5.83341 11.2498C5.83341 11.597 5.95508 11.892 6.19842 12.1348C6.44119 12.3781 6.73619 12.4998 7.08341 12.4998ZM12.5001 13.3331C12.7362 13.3331 12.9342 13.2531 13.0942 13.0931C13.2537 12.9337 13.3334 12.7359 13.3334 12.4998C13.3334 12.2637 13.2537 12.0656 13.0942 11.9056C12.9342 11.7462 12.7362 11.6665 12.5001 11.6665C12.264 11.6665 12.0662 11.7462 11.9067 11.9056C11.7467 12.0656 11.6667 12.2637 11.6667 12.4998C11.6667 12.7359 11.7467 12.9337 11.9067 13.0931C12.0662 13.2531 12.264 13.3331 12.5001 13.3331ZM10.0001 18.3331C8.8473 18.3331 7.76397 18.1143 6.75008 17.6765C5.73619 17.2393 4.85425 16.6456 4.10425 15.8956C3.35425 15.1456 2.76064 14.2637 2.32341 13.2498C1.88564 12.2359 1.66675 11.1526 1.66675 9.99981C1.66675 8.87481 1.89953 7.78093 2.36508 6.71815C2.83008 5.65593 3.47591 4.72204 4.30258 3.91648C5.12869 3.11093 6.11119 2.49981 7.25008 2.08315C8.38897 1.66648 9.63897 1.54148 11.0001 1.70815C11.2084 1.73593 11.3681 1.82259 11.4792 1.96815C11.5904 2.11426 11.6529 2.31231 11.6667 2.56231C11.6945 3.4512 12.0245 4.21148 12.6567 4.84315C13.2884 5.47537 14.0417 5.80537 14.9167 5.83315C15.2084 5.84704 15.4306 5.93037 15.5834 6.08315C15.7362 6.23593 15.8195 6.47204 15.8334 6.79148C15.8612 7.37481 16.0384 7.85398 16.3651 8.22898C16.6912 8.60398 17.1459 8.8887 17.7292 9.08315C17.9237 9.15259 18.0729 9.25315 18.1767 9.38481C18.2812 9.51704 18.3334 9.68037 18.3334 9.87481C18.3612 11.0276 18.1598 12.1179 17.7292 13.1456C17.2987 14.1734 16.7084 15.0726 15.9584 15.8431C15.2084 16.6143 14.3195 17.222 13.2917 17.6665C12.264 18.1109 11.1667 18.3331 10.0001 18.3331ZM10.0001 16.6665C11.6945 16.6665 13.1981 16.0831 14.5109 14.9165C15.8231 13.7498 16.5417 12.2637 16.6667 10.4581C15.9723 10.1526 15.4273 9.73593 15.0317 9.20815C14.6356 8.68037 14.3681 8.09009 14.2292 7.43731C13.1598 7.28454 12.2431 6.8262 11.4792 6.06231C10.7154 5.29843 10.2431 4.38176 10.0626 3.31231C8.95147 3.28454 7.97564 3.48593 7.13508 3.91648C6.29508 4.34704 5.59397 4.89898 5.03175 5.57231C4.46897 6.2462 4.04536 6.97898 3.76091 7.77065C3.47591 8.56231 3.33341 9.30537 3.33341 9.99981C3.33341 11.847 3.98286 13.4201 5.28175 14.719C6.58008 16.0173 8.15286 16.6665 10.0001 16.6665Z" fill="#0DB659"/>
<path d="M8.75008 8.33315C9.0973 8.33315 9.3923 8.21148 9.63508 7.96815C9.87842 7.72537 10.0001 7.43037 10.0001 7.08315C10.0001 6.73593 9.87842 6.44093 9.63508 6.19815C9.3923 5.95481 9.0973 5.83315 8.75008 5.83315C8.40286 5.83315 8.10786 5.95481 7.86508 6.19815C7.62175 6.44093 7.50008 6.73593 7.50008 7.08315C7.50008 7.43037 7.62175 7.72537 7.86508 7.96815C8.10786 8.21148 8.40286 8.33315 8.75008 8.33315ZM7.08341 12.4998C7.43064 12.4998 7.72564 12.3781 7.96842 12.1348C8.21175 11.892 8.33342 11.597 8.33342 11.2498C8.33342 10.9026 8.21175 10.6076 7.96842 10.3648C7.72564 10.1215 7.43064 9.99981 7.08341 9.99981C6.73619 9.99981 6.44119 10.1215 6.19842 10.3648C5.95508 10.6076 5.83341 10.9026 5.83341 11.2498C5.83341 11.597 5.95508 11.892 6.19842 12.1348C6.44119 12.3781 6.73619 12.4998 7.08341 12.4998ZM12.5001 13.3331C12.7362 13.3331 12.9342 13.2531 13.0942 13.0931C13.2537 12.9337 13.3334 12.7359 13.3334 12.4998C13.3334 12.2637 13.2537 12.0656 13.0942 11.9056C12.9342 11.7462 12.7362 11.6665 12.5001 11.6665C12.264 11.6665 12.0662 11.7462 11.9067 11.9056C11.7467 12.0656 11.6667 12.2637 11.6667 12.4998C11.6667 12.7359 11.7467 12.9337 11.9067 13.0931C12.0662 13.2531 12.264 13.3331 12.5001 13.3331ZM10.0001 18.3331C8.8473 18.3331 7.76397 18.1143 6.75008 17.6765C5.73619 17.2393 4.85425 16.6456 4.10425 15.8956C3.35425 15.1456 2.76064 14.2637 2.32341 13.2498C1.88564 12.2359 1.66675 11.1526 1.66675 9.99981C1.66675 8.87481 1.89953 7.78093 2.36508 6.71815C2.83008 5.65593 3.47591 4.72204 4.30258 3.91648C5.12869 3.11093 6.11119 2.49981 7.25008 2.08315C8.38897 1.66648 9.63897 1.54148 11.0001 1.70815C11.2084 1.73593 11.3681 1.82259 11.4792 1.96815C11.5904 2.11426 11.6529 2.31231 11.6667 2.56231C11.6945 3.4512 12.0245 4.21148 12.6567 4.84315C13.2884 5.47537 14.0417 5.80537 14.9167 5.83315C15.2084 5.84704 15.4306 5.93037 15.5834 6.08315C15.7362 6.23593 15.8195 6.47204 15.8334 6.79148C15.8612 7.37481 16.0384 7.85398 16.3651 8.22898C16.6912 8.60398 17.1459 8.8887 17.7292 9.08315C17.9237 9.15259 18.0729 9.25315 18.1767 9.38481C18.2812 9.51704 18.3334 9.68037 18.3334 9.87481C18.3612 11.0276 18.1598 12.1179 17.7292 13.1456C17.2987 14.1734 16.7084 15.0726 15.9584 15.8431C15.2084 16.6143 14.3195 17.222 13.2917 17.6665C12.264 18.1109 11.1667 18.3331 10.0001 18.3331ZM10.0001 16.6665C11.6945 16.6665 13.1981 16.0831 14.5109 14.9165C15.8231 13.7498 16.5417 12.2637 16.6667 10.4581C15.9723 10.1526 15.4273 9.73593 15.0317 9.20815C14.6356 8.68037 14.3681 8.09009 14.2292 7.43731C13.1598 7.28454 12.2431 6.8262 11.4792 6.06231C10.7154 5.29843 10.2431 4.38176 10.0626 3.31231C8.95147 3.28454 7.97564 3.48593 7.13508 3.91648C6.29508 4.34704 5.59397 4.89898 5.03175 5.57231C4.46897 6.2462 4.04536 6.97898 3.76091 7.77065C3.47591 8.56231 3.33341 9.30537 3.33341 9.99981C3.33341 11.847 3.98286 13.4201 5.28175 14.719C6.58008 16.0173 8.15286 16.6665 10.0001 16.6665Z" fill="black" fill-opacity="0.4"/>
</svg>
