<svg viewBox="0 0 20 20" fill="none" xmlns="http://www.w3.org/2000/svg">
<g clip-path="url(#clip0_1582_2121)">
<path d="M16.6667 10.0002C16.6667 9.36683 17.0251 8.81683 17.5501 8.5335C18.0501 8.2585 18.3334 7.69183 18.3334 7.11683V5.00016C18.3334 4.0835 17.5834 3.3335 16.6667 3.3335H3.33341C2.41675 3.3335 1.67508 4.07516 1.67508 4.99183V7.11683C1.67508 7.69183 1.95008 8.2585 2.45841 8.52516C2.98341 8.81683 3.33341 9.36683 3.33341 10.0002C3.33341 10.6335 2.97508 11.1918 2.45008 11.4668C1.95008 11.7418 1.66675 12.3085 1.66675 12.8835V14.7585C1.66675 15.9168 2.41675 16.6668 3.33341 16.6668H16.6667C17.5834 16.6668 18.3334 15.9168 18.3334 15.0002V12.8835C18.3334 12.3085 18.0501 11.7418 17.5501 11.4668C17.0251 11.1835 16.6667 10.6335 16.6667 10.0002ZM12.0834 13.4168L10.0001 12.0835L7.91675 13.4252C7.60008 13.6252 7.19175 13.3335 7.29175 12.9668L7.91675 10.5668L6.00008 9.00016C5.70841 8.7585 5.85841 8.2835 6.24175 8.2585L8.70841 8.11683L9.60841 5.82516C9.75008 5.47516 10.2501 5.47516 10.3834 5.82516L11.2834 8.12516L13.7501 8.26683C14.1251 8.29183 14.2834 8.76683 13.9917 9.0085L12.0751 10.5752L12.7084 12.9585C12.8084 13.3335 12.4001 13.6252 12.0834 13.4168Z" fill="#0DB659"/>
<path d="M16.6667 10.0002C16.6667 9.36683 17.0251 8.81683 17.5501 8.5335C18.0501 8.2585 18.3334 7.69183 18.3334 7.11683V5.00016C18.3334 4.0835 17.5834 3.3335 16.6667 3.3335H3.33341C2.41675 3.3335 1.67508 4.07516 1.67508 4.99183V7.11683C1.67508 7.69183 1.95008 8.2585 2.45841 8.52516C2.98341 8.81683 3.33341 9.36683 3.33341 10.0002C3.33341 10.6335 2.97508 11.1918 2.45008 11.4668C1.95008 11.7418 1.66675 12.3085 1.66675 12.8835V14.7585C1.66675 15.9168 2.41675 16.6668 3.33341 16.6668H16.6667C17.5834 16.6668 18.3334 15.9168 18.3334 15.0002V12.8835C18.3334 12.3085 18.0501 11.7418 17.5501 11.4668C17.0251 11.1835 16.6667 10.6335 16.6667 10.0002ZM12.0834 13.4168L10.0001 12.0835L7.91675 13.4252C7.60008 13.6252 7.19175 13.3335 7.29175 12.9668L7.91675 10.5668L6.00008 9.00016C5.70841 8.7585 5.85841 8.2835 6.24175 8.2585L8.70841 8.11683L9.60841 5.82516C9.75008 5.47516 10.2501 5.47516 10.3834 5.82516L11.2834 8.12516L13.7501 8.26683C14.1251 8.29183 14.2834 8.76683 13.9917 9.0085L12.0751 10.5752L12.7084 12.9585C12.8084 13.3335 12.4001 13.6252 12.0834 13.4168Z" fill="black" fill-opacity="0.4"/>
</g>
<defs>
<clipPath id="clip0_1582_2121">
<rect width="20" height="20" fill="white"/>
</clipPath>
</defs>
</svg>
