<svg viewBox="0 0 20 20" fill="none" xmlns="http://www.w3.org/2000/svg">
<path d="M11.6666 7.31266C11.6666 7.18766 11.7119 7.05905 11.8024 6.92683C11.8924 6.79516 11.993 6.7085 12.1041 6.66683C12.5069 6.52794 12.9096 6.42377 13.3124 6.35433C13.7152 6.28489 14.1388 6.25016 14.5833 6.25016C14.861 6.25016 15.1355 6.26738 15.4066 6.30183C15.6771 6.33683 15.9444 6.38211 16.2083 6.43766C16.3333 6.46544 16.4408 6.53489 16.5308 6.646C16.6213 6.75711 16.6666 6.88211 16.6666 7.021C16.6666 7.25711 16.5902 7.43072 16.4374 7.54183C16.2846 7.65294 16.0902 7.68072 15.8541 7.62516C15.6596 7.5835 15.4549 7.55211 15.2399 7.531C15.0244 7.51044 14.8055 7.50016 14.5833 7.50016C14.2221 7.50016 13.868 7.53489 13.5208 7.60433C13.1735 7.67377 12.8402 7.76405 12.5208 7.87516C12.2708 7.97239 12.066 7.96544 11.9066 7.85433C11.7466 7.74322 11.6666 7.56266 11.6666 7.31266ZM11.6666 11.896C11.6666 11.771 11.7119 11.6424 11.8024 11.5102C11.8924 11.3785 11.993 11.2918 12.1041 11.2502C12.5069 11.1113 12.9096 11.0071 13.3124 10.9377C13.7152 10.8682 14.1388 10.8335 14.5833 10.8335C14.861 10.8335 15.1355 10.8507 15.4066 10.8852C15.6771 10.9202 15.9444 10.9654 16.2083 11.021C16.3333 11.0488 16.4408 11.1182 16.5308 11.2293C16.6213 11.3404 16.6666 11.4654 16.6666 11.6043C16.6666 11.8404 16.5902 12.0141 16.4374 12.1252C16.2846 12.2363 16.0902 12.2641 15.8541 12.2085C15.6596 12.1668 15.4549 12.1354 15.2399 12.1143C15.0244 12.0938 14.8055 12.0835 14.5833 12.0835C14.2221 12.0835 13.868 12.1149 13.5208 12.1777C13.1735 12.2399 12.8402 12.3266 12.5208 12.4377C12.2708 12.5349 12.066 12.5313 11.9066 12.4268C11.7466 12.3229 11.6666 12.146 11.6666 11.896ZM11.6666 9.60433C11.6666 9.47933 11.7119 9.35072 11.8024 9.2185C11.8924 9.08683 11.993 9.00016 12.1041 8.9585C12.5069 8.81961 12.9096 8.71544 13.3124 8.646C13.7152 8.57655 14.1388 8.54183 14.5833 8.54183C14.861 8.54183 15.1355 8.55905 15.4066 8.5935C15.6771 8.6285 15.9444 8.67377 16.2083 8.72933C16.3333 8.75711 16.4408 8.82655 16.5308 8.93766C16.6213 9.04877 16.6666 9.17377 16.6666 9.31266C16.6666 9.54877 16.5902 9.72239 16.4374 9.8335C16.2846 9.94461 16.0902 9.97238 15.8541 9.91683C15.6596 9.87516 15.4549 9.84377 15.2399 9.82266C15.0244 9.80211 14.8055 9.79183 14.5833 9.79183C14.2221 9.79183 13.868 9.82655 13.5208 9.896C13.1735 9.96544 12.8402 10.0557 12.5208 10.1668C12.2708 10.2641 12.066 10.2571 11.9066 10.146C11.7466 10.0349 11.6666 9.85433 11.6666 9.60433ZM5.41659 13.3335C6.06936 13.3335 6.70492 13.4063 7.32325 13.5518C7.94103 13.6979 8.55547 13.9168 9.16659 14.2085V6.00016C8.59714 5.66683 7.99297 5.41683 7.35409 5.25016C6.7152 5.0835 6.06936 5.00016 5.41659 5.00016C4.91659 5.00016 4.4202 5.04877 3.92742 5.146C3.43409 5.24322 2.95825 5.38905 2.49992 5.5835V13.8335C2.98603 13.6668 3.46881 13.5418 3.94825 13.4585C4.42714 13.3752 4.91659 13.3335 5.41659 13.3335ZM10.8333 14.2085C11.4444 13.9168 12.0591 13.6979 12.6774 13.5518C13.2952 13.4063 13.9305 13.3335 14.5833 13.3335C15.0833 13.3335 15.573 13.3752 16.0524 13.4585C16.5313 13.5418 17.0138 13.6668 17.4999 13.8335V5.5835C17.0416 5.38905 16.566 5.24322 16.0733 5.146C15.5799 5.04877 15.0833 5.00016 14.5833 5.00016C13.9305 5.00016 13.2846 5.0835 12.6458 5.25016C12.0069 5.41683 11.4027 5.66683 10.8333 6.00016V14.2085ZM9.99992 16.2293C9.80547 16.2293 9.62159 16.2052 9.44825 16.1568C9.27436 16.1079 9.11103 16.0418 8.95825 15.9585C8.41659 15.6391 7.84714 15.3996 7.24992 15.2402C6.6527 15.0802 6.04159 15.0002 5.41659 15.0002C4.83325 15.0002 4.26047 15.0766 3.69825 15.2293C3.13547 15.3821 2.59714 15.5974 2.08325 15.8752C1.79159 16.0279 1.51047 16.021 1.23992 15.8543C0.968808 15.6877 0.833252 15.4446 0.833252 15.1252V5.0835C0.833252 4.93072 0.871585 4.78488 0.948252 4.646C1.02436 4.50711 1.13881 4.40294 1.29159 4.3335C1.93047 4.00016 2.59714 3.75016 3.29159 3.5835C3.98603 3.41683 4.69436 3.3335 5.41659 3.3335C6.22214 3.3335 7.01047 3.43766 7.78159 3.646C8.55214 3.85433 9.29159 4.16683 9.99992 4.5835C10.7083 4.16683 11.448 3.85433 12.2191 3.646C12.9896 3.43766 13.7777 3.3335 14.5833 3.3335C15.3055 3.3335 16.0138 3.41683 16.7083 3.5835C17.4027 3.75016 18.0694 4.00016 18.7083 4.3335C18.861 4.40294 18.9758 4.50711 19.0524 4.646C19.1285 4.78488 19.1666 4.93072 19.1666 5.0835V15.1252C19.1666 15.4446 19.0313 15.6877 18.7608 15.8543C18.4896 16.021 18.2083 16.0279 17.9166 15.8752C17.4027 15.5974 16.8644 15.3821 16.3016 15.2293C15.7394 15.0766 15.1666 15.0002 14.5833 15.0002C13.9583 15.0002 13.3471 15.0802 12.7499 15.2402C12.1527 15.3996 11.5833 15.6391 11.0416 15.9585C10.8888 16.0418 10.7258 16.1079 10.5524 16.1568C10.3785 16.2052 10.1944 16.2293 9.99992 16.2293Z" fill="#0DB659"/>
<path d="M11.6666 7.31266C11.6666 7.18766 11.7119 7.05905 11.8024 6.92683C11.8924 6.79516 11.993 6.7085 12.1041 6.66683C12.5069 6.52794 12.9096 6.42377 13.3124 6.35433C13.7152 6.28489 14.1388 6.25016 14.5833 6.25016C14.861 6.25016 15.1355 6.26738 15.4066 6.30183C15.6771 6.33683 15.9444 6.38211 16.2083 6.43766C16.3333 6.46544 16.4408 6.53489 16.5308 6.646C16.6213 6.75711 16.6666 6.88211 16.6666 7.021C16.6666 7.25711 16.5902 7.43072 16.4374 7.54183C16.2846 7.65294 16.0902 7.68072 15.8541 7.62516C15.6596 7.5835 15.4549 7.55211 15.2399 7.531C15.0244 7.51044 14.8055 7.50016 14.5833 7.50016C14.2221 7.50016 13.868 7.53489 13.5208 7.60433C13.1735 7.67377 12.8402 7.76405 12.5208 7.87516C12.2708 7.97239 12.066 7.96544 11.9066 7.85433C11.7466 7.74322 11.6666 7.56266 11.6666 7.31266ZM11.6666 11.896C11.6666 11.771 11.7119 11.6424 11.8024 11.5102C11.8924 11.3785 11.993 11.2918 12.1041 11.2502C12.5069 11.1113 12.9096 11.0071 13.3124 10.9377C13.7152 10.8682 14.1388 10.8335 14.5833 10.8335C14.861 10.8335 15.1355 10.8507 15.4066 10.8852C15.6771 10.9202 15.9444 10.9654 16.2083 11.021C16.3333 11.0488 16.4408 11.1182 16.5308 11.2293C16.6213 11.3404 16.6666 11.4654 16.6666 11.6043C16.6666 11.8404 16.5902 12.0141 16.4374 12.1252C16.2846 12.2363 16.0902 12.2641 15.8541 12.2085C15.6596 12.1668 15.4549 12.1354 15.2399 12.1143C15.0244 12.0938 14.8055 12.0835 14.5833 12.0835C14.2221 12.0835 13.868 12.1149 13.5208 12.1777C13.1735 12.2399 12.8402 12.3266 12.5208 12.4377C12.2708 12.5349 12.066 12.5313 11.9066 12.4268C11.7466 12.3229 11.6666 12.146 11.6666 11.896ZM11.6666 9.60433C11.6666 9.47933 11.7119 9.35072 11.8024 9.2185C11.8924 9.08683 11.993 9.00016 12.1041 8.9585C12.5069 8.81961 12.9096 8.71544 13.3124 8.646C13.7152 8.57655 14.1388 8.54183 14.5833 8.54183C14.861 8.54183 15.1355 8.55905 15.4066 8.5935C15.6771 8.6285 15.9444 8.67377 16.2083 8.72933C16.3333 8.75711 16.4408 8.82655 16.5308 8.93766C16.6213 9.04877 16.6666 9.17377 16.6666 9.31266C16.6666 9.54877 16.5902 9.72239 16.4374 9.8335C16.2846 9.94461 16.0902 9.97238 15.8541 9.91683C15.6596 9.87516 15.4549 9.84377 15.2399 9.82266C15.0244 9.80211 14.8055 9.79183 14.5833 9.79183C14.2221 9.79183 13.868 9.82655 13.5208 9.896C13.1735 9.96544 12.8402 10.0557 12.5208 10.1668C12.2708 10.2641 12.066 10.2571 11.9066 10.146C11.7466 10.0349 11.6666 9.85433 11.6666 9.60433ZM5.41659 13.3335C6.06936 13.3335 6.70492 13.4063 7.32325 13.5518C7.94103 13.6979 8.55547 13.9168 9.16659 14.2085V6.00016C8.59714 5.66683 7.99297 5.41683 7.35409 5.25016C6.7152 5.0835 6.06936 5.00016 5.41659 5.00016C4.91659 5.00016 4.4202 5.04877 3.92742 5.146C3.43409 5.24322 2.95825 5.38905 2.49992 5.5835V13.8335C2.98603 13.6668 3.46881 13.5418 3.94825 13.4585C4.42714 13.3752 4.91659 13.3335 5.41659 13.3335ZM10.8333 14.2085C11.4444 13.9168 12.0591 13.6979 12.6774 13.5518C13.2952 13.4063 13.9305 13.3335 14.5833 13.3335C15.0833 13.3335 15.573 13.3752 16.0524 13.4585C16.5313 13.5418 17.0138 13.6668 17.4999 13.8335V5.5835C17.0416 5.38905 16.566 5.24322 16.0733 5.146C15.5799 5.04877 15.0833 5.00016 14.5833 5.00016C13.9305 5.00016 13.2846 5.0835 12.6458 5.25016C12.0069 5.41683 11.4027 5.66683 10.8333 6.00016V14.2085ZM9.99992 16.2293C9.80547 16.2293 9.62159 16.2052 9.44825 16.1568C9.27436 16.1079 9.11103 16.0418 8.95825 15.9585C8.41659 15.6391 7.84714 15.3996 7.24992 15.2402C6.6527 15.0802 6.04159 15.0002 5.41659 15.0002C4.83325 15.0002 4.26047 15.0766 3.69825 15.2293C3.13547 15.3821 2.59714 15.5974 2.08325 15.8752C1.79159 16.0279 1.51047 16.021 1.23992 15.8543C0.968808 15.6877 0.833252 15.4446 0.833252 15.1252V5.0835C0.833252 4.93072 0.871585 4.78488 0.948252 4.646C1.02436 4.50711 1.13881 4.40294 1.29159 4.3335C1.93047 4.00016 2.59714 3.75016 3.29159 3.5835C3.98603 3.41683 4.69436 3.3335 5.41659 3.3335C6.22214 3.3335 7.01047 3.43766 7.78159 3.646C8.55214 3.85433 9.29159 4.16683 9.99992 4.5835C10.7083 4.16683 11.448 3.85433 12.2191 3.646C12.9896 3.43766 13.7777 3.3335 14.5833 3.3335C15.3055 3.3335 16.0138 3.41683 16.7083 3.5835C17.4027 3.75016 18.0694 4.00016 18.7083 4.3335C18.861 4.40294 18.9758 4.50711 19.0524 4.646C19.1285 4.78488 19.1666 4.93072 19.1666 5.0835V15.1252C19.1666 15.4446 19.0313 15.6877 18.7608 15.8543C18.4896 16.021 18.2083 16.0279 17.9166 15.8752C17.4027 15.5974 16.8644 15.3821 16.3016 15.2293C15.7394 15.0766 15.1666 15.0002 14.5833 15.0002C13.9583 15.0002 13.3471 15.0802 12.7499 15.2402C12.1527 15.3996 11.5833 15.6391 11.0416 15.9585C10.8888 16.0418 10.7258 16.1079 10.5524 16.1568C10.3785 16.2052 10.1944 16.2293 9.99992 16.2293Z" fill="black" fill-opacity="0.4"/>
</svg>
