<svg viewBox="0 0 20 20" fill="none" xmlns="http://www.w3.org/2000/svg">
<path d="M4.16659 17.5C3.93047 17.5 3.73242 17.42 3.57242 17.26C3.41297 17.1006 3.33325 16.9028 3.33325 16.6667V15.8333C2.63881 15.8333 2.04853 15.5903 1.56242 15.1042C1.07631 14.6181 0.833252 14.0278 0.833252 13.3333V9.16667C0.833252 8.47222 1.07631 7.88194 1.56242 7.39583C2.04853 6.90972 2.63881 6.66667 3.33325 6.66667V5C3.33325 4.30556 3.57631 3.71528 4.06242 3.22917C4.54853 2.74306 5.13881 2.5 5.83325 2.5H14.1666C14.861 2.5 15.4513 2.74306 15.9374 3.22917C16.4235 3.71528 16.6666 4.30556 16.6666 5V6.66667C17.361 6.66667 17.9513 6.90972 18.4374 7.39583C18.9235 7.88194 19.1666 8.47222 19.1666 9.16667V13.3333C19.1666 14.0278 18.9235 14.6181 18.4374 15.1042C17.9513 15.5903 17.361 15.8333 16.6666 15.8333V16.6667C16.6666 16.9028 16.5866 17.1006 16.4266 17.26C16.2671 17.42 16.0694 17.5 15.8333 17.5C15.5971 17.5 15.3994 17.42 15.2399 17.26C15.0799 17.1006 14.9999 16.9028 14.9999 16.6667V15.8333H4.99992V16.6667C4.99992 16.9028 4.9202 17.1006 4.76075 17.26C4.60075 17.42 4.4027 17.5 4.16659 17.5ZM3.33325 14.1667H16.6666C16.9027 14.1667 17.1005 14.0867 17.2599 13.9267C17.4199 13.7672 17.4999 13.5694 17.4999 13.3333V9.16667C17.4999 8.93056 17.4199 8.7325 17.2599 8.5725C17.1005 8.41305 16.9027 8.33333 16.6666 8.33333C16.4305 8.33333 16.2327 8.41305 16.0733 8.5725C15.9133 8.7325 15.8333 8.93056 15.8333 9.16667V12.5H4.16659V9.16667C4.16659 8.93056 4.08686 8.7325 3.92742 8.5725C3.76742 8.41305 3.56936 8.33333 3.33325 8.33333C3.09714 8.33333 2.89936 8.41305 2.73992 8.5725C2.57992 8.7325 2.49992 8.93056 2.49992 9.16667V13.3333C2.49992 13.5694 2.57992 13.7672 2.73992 13.9267C2.89936 14.0867 3.09714 14.1667 3.33325 14.1667ZM5.83325 10.8333H14.1666V9.16667C14.1666 8.79167 14.243 8.45139 14.3958 8.14583C14.5485 7.84028 14.7499 7.56944 14.9999 7.33333V5C14.9999 4.76389 14.9199 4.56583 14.7599 4.40583C14.6005 4.24639 14.4027 4.16667 14.1666 4.16667H5.83325C5.59714 4.16667 5.39909 4.24639 5.23909 4.40583C5.07964 4.56583 4.99992 4.76389 4.99992 5V7.33333C5.24992 7.56944 5.45131 7.84028 5.60409 8.14583C5.75686 8.45139 5.83325 8.79167 5.83325 9.16667V10.8333Z" fill="#0DB659"/>
<path d="M4.16659 17.5C3.93047 17.5 3.73242 17.42 3.57242 17.26C3.41297 17.1006 3.33325 16.9028 3.33325 16.6667V15.8333C2.63881 15.8333 2.04853 15.5903 1.56242 15.1042C1.07631 14.6181 0.833252 14.0278 0.833252 13.3333V9.16667C0.833252 8.47222 1.07631 7.88194 1.56242 7.39583C2.04853 6.90972 2.63881 6.66667 3.33325 6.66667V5C3.33325 4.30556 3.57631 3.71528 4.06242 3.22917C4.54853 2.74306 5.13881 2.5 5.83325 2.5H14.1666C14.861 2.5 15.4513 2.74306 15.9374 3.22917C16.4235 3.71528 16.6666 4.30556 16.6666 5V6.66667C17.361 6.66667 17.9513 6.90972 18.4374 7.39583C18.9235 7.88194 19.1666 8.47222 19.1666 9.16667V13.3333C19.1666 14.0278 18.9235 14.6181 18.4374 15.1042C17.9513 15.5903 17.361 15.8333 16.6666 15.8333V16.6667C16.6666 16.9028 16.5866 17.1006 16.4266 17.26C16.2671 17.42 16.0694 17.5 15.8333 17.5C15.5971 17.5 15.3994 17.42 15.2399 17.26C15.0799 17.1006 14.9999 16.9028 14.9999 16.6667V15.8333H4.99992V16.6667C4.99992 16.9028 4.9202 17.1006 4.76075 17.26C4.60075 17.42 4.4027 17.5 4.16659 17.5ZM3.33325 14.1667H16.6666C16.9027 14.1667 17.1005 14.0867 17.2599 13.9267C17.4199 13.7672 17.4999 13.5694 17.4999 13.3333V9.16667C17.4999 8.93056 17.4199 8.7325 17.2599 8.5725C17.1005 8.41305 16.9027 8.33333 16.6666 8.33333C16.4305 8.33333 16.2327 8.41305 16.0733 8.5725C15.9133 8.7325 15.8333 8.93056 15.8333 9.16667V12.5H4.16659V9.16667C4.16659 8.93056 4.08686 8.7325 3.92742 8.5725C3.76742 8.41305 3.56936 8.33333 3.33325 8.33333C3.09714 8.33333 2.89936 8.41305 2.73992 8.5725C2.57992 8.7325 2.49992 8.93056 2.49992 9.16667V13.3333C2.49992 13.5694 2.57992 13.7672 2.73992 13.9267C2.89936 14.0867 3.09714 14.1667 3.33325 14.1667ZM5.83325 10.8333H14.1666V9.16667C14.1666 8.79167 14.243 8.45139 14.3958 8.14583C14.5485 7.84028 14.7499 7.56944 14.9999 7.33333V5C14.9999 4.76389 14.9199 4.56583 14.7599 4.40583C14.6005 4.24639 14.4027 4.16667 14.1666 4.16667H5.83325C5.59714 4.16667 5.39909 4.24639 5.23909 4.40583C5.07964 4.56583 4.99992 4.76389 4.99992 5V7.33333C5.24992 7.56944 5.45131 7.84028 5.60409 8.14583C5.75686 8.45139 5.83325 8.79167 5.83325 9.16667V10.8333Z" fill="black" fill-opacity="0.4"/>
</svg>
