<svg viewBox="0 0 20 20" fill="none" xmlns="http://www.w3.org/2000/svg">
<path d="M5.70825 12.5002C6.13881 12.5002 6.52422 12.3752 6.8645 12.1252C7.20478 11.8752 7.44436 11.5488 7.58325 11.146L7.89575 10.1877C8.11797 9.521 8.06242 8.90641 7.72909 8.34391C7.39575 7.78141 6.91659 7.50016 6.29159 7.50016H3.35409L3.74992 10.771C3.81936 11.2571 4.03811 11.6668 4.40617 12.0002C4.77422 12.3335 5.20825 12.5002 5.70825 12.5002ZM14.2916 12.5002C14.7916 12.5002 15.2256 12.3335 15.5937 12.0002C15.9617 11.6668 16.1805 11.2571 16.2499 10.771L16.6458 7.50016H13.7291C13.1041 7.50016 12.6249 7.78488 12.2916 8.35433C11.9583 8.92377 11.9027 9.54183 12.1249 10.2085L12.4166 11.146C12.5555 11.5488 12.7951 11.8752 13.1353 12.1252C13.4756 12.3752 13.861 12.5002 14.2916 12.5002ZM5.70825 14.1668C4.79159 14.1668 3.9895 13.8647 3.302 13.2606C2.6145 12.6564 2.2152 11.896 2.10409 10.9793L1.66659 7.50016C1.43047 7.50016 1.23256 7.4203 1.07284 7.26058C0.913113 7.10086 0.833252 6.90294 0.833252 6.66683C0.833252 6.43072 0.913113 6.2328 1.07284 6.07308C1.23256 5.91336 1.43047 5.8335 1.66659 5.8335H6.29159C6.9027 5.8335 7.46172 5.9828 7.96867 6.28141C8.47561 6.58002 8.87492 6.98627 9.16659 7.50016H10.8541C11.1458 6.98627 11.5451 6.58002 12.052 6.28141C12.5589 5.9828 13.118 5.8335 13.7291 5.8335H18.3333C18.5694 5.8335 18.7673 5.91336 18.927 6.07308C19.0867 6.2328 19.1666 6.43072 19.1666 6.66683C19.1666 6.90294 19.0867 7.10086 18.927 7.26058C18.7673 7.4203 18.5694 7.50016 18.3333 7.50016L17.8958 10.9793C17.7846 11.896 17.3853 12.6564 16.6978 13.2606C16.0103 13.8647 15.2083 14.1668 14.2916 14.1668C13.4999 14.1668 12.7881 13.9411 12.1562 13.4897C11.5242 13.0384 11.0833 12.4377 10.8333 11.6877L10.5208 10.7502C10.493 10.6529 10.4652 10.5522 10.4374 10.4481C10.4096 10.3439 10.3819 10.1946 10.3541 10.0002H9.64575C9.61797 10.1668 9.5902 10.3022 9.56242 10.4064C9.53464 10.5106 9.50686 10.6113 9.47909 10.7085L9.16659 11.6668C8.91659 12.4168 8.47561 13.021 7.84367 13.4793C7.21172 13.9377 6.49992 14.1668 5.70825 14.1668Z" fill="#0DB659"/>
<path d="M5.70825 12.5002C6.13881 12.5002 6.52422 12.3752 6.8645 12.1252C7.20478 11.8752 7.44436 11.5488 7.58325 11.146L7.89575 10.1877C8.11797 9.521 8.06242 8.90641 7.72909 8.34391C7.39575 7.78141 6.91659 7.50016 6.29159 7.50016H3.35409L3.74992 10.771C3.81936 11.2571 4.03811 11.6668 4.40617 12.0002C4.77422 12.3335 5.20825 12.5002 5.70825 12.5002ZM14.2916 12.5002C14.7916 12.5002 15.2256 12.3335 15.5937 12.0002C15.9617 11.6668 16.1805 11.2571 16.2499 10.771L16.6458 7.50016H13.7291C13.1041 7.50016 12.6249 7.78488 12.2916 8.35433C11.9583 8.92377 11.9027 9.54183 12.1249 10.2085L12.4166 11.146C12.5555 11.5488 12.7951 11.8752 13.1353 12.1252C13.4756 12.3752 13.861 12.5002 14.2916 12.5002ZM5.70825 14.1668C4.79159 14.1668 3.9895 13.8647 3.302 13.2606C2.6145 12.6564 2.2152 11.896 2.10409 10.9793L1.66659 7.50016C1.43047 7.50016 1.23256 7.4203 1.07284 7.26058C0.913113 7.10086 0.833252 6.90294 0.833252 6.66683C0.833252 6.43072 0.913113 6.2328 1.07284 6.07308C1.23256 5.91336 1.43047 5.8335 1.66659 5.8335H6.29159C6.9027 5.8335 7.46172 5.9828 7.96867 6.28141C8.47561 6.58002 8.87492 6.98627 9.16659 7.50016H10.8541C11.1458 6.98627 11.5451 6.58002 12.052 6.28141C12.5589 5.9828 13.118 5.8335 13.7291 5.8335H18.3333C18.5694 5.8335 18.7673 5.91336 18.927 6.07308C19.0867 6.2328 19.1666 6.43072 19.1666 6.66683C19.1666 6.90294 19.0867 7.10086 18.927 7.26058C18.7673 7.4203 18.5694 7.50016 18.3333 7.50016L17.8958 10.9793C17.7846 11.896 17.3853 12.6564 16.6978 13.2606C16.0103 13.8647 15.2083 14.1668 14.2916 14.1668C13.4999 14.1668 12.7881 13.9411 12.1562 13.4897C11.5242 13.0384 11.0833 12.4377 10.8333 11.6877L10.5208 10.7502C10.493 10.6529 10.4652 10.5522 10.4374 10.4481C10.4096 10.3439 10.3819 10.1946 10.3541 10.0002H9.64575C9.61797 10.1668 9.5902 10.3022 9.56242 10.4064C9.53464 10.5106 9.50686 10.6113 9.47909 10.7085L9.16659 11.6668C8.91659 12.4168 8.47561 13.021 7.84367 13.4793C7.21172 13.9377 6.49992 14.1668 5.70825 14.1668Z" fill="black" fill-opacity="0.4"/>
</svg>
