<svg viewBox="0 0 16 16" fill="none" xmlns="http://www.w3.org/2000/svg">
<g clip-path="url(#clip0_1566_2390)">
<path d="M11.252 1.55566C12.0592 1.5557 12.7147 1.71895 13.2412 2.01074C13.7685 2.30306 14.1508 2.71578 14.4258 3.18652C14.95 4.08457 15.0867 5.20399 15.123 6.15527L15.6699 6.8457L15.6719 6.84766C15.7707 6.97513 15.8128 7.13572 15.792 7.29297C15.7707 7.4523 15.6862 7.59496 15.5605 7.69043L15.5596 7.69141C15.4249 7.79289 15.2834 7.87642 15.1377 7.94629V8.77539C15.4983 9.04533 15.7353 9.47231 15.7354 9.96289C15.7352 10.4532 15.498 10.8795 15.1377 11.1494V12.6523C15.1372 13.6379 14.3294 14.4451 13.3438 14.4453H2.58789C1.6023 14.4451 0.795393 13.6379 0.794922 12.6523V11.1494C0.434357 10.8795 0.197415 10.4534 0.197266 9.96289C0.197344 9.47198 0.433943 9.0453 0.794922 8.77539V7.91211C0.673867 7.85017 0.554446 7.77776 0.439453 7.69141C0.17889 7.49657 0.123782 7.13231 0.307617 6.86914L0.30957 6.86523L0.808594 6.1709C0.849797 5.19074 1.10043 4.06959 1.68066 3.1748C2.2891 2.23667 3.25909 1.55225 4.68066 1.55566C5.9869 1.5588 7.63006 1.5584 8.94629 1.55762C9.60419 1.55723 10.181 1.55713 10.5928 1.55664C10.7985 1.5564 10.9639 1.55582 11.0771 1.55566H11.252ZM13.3438 14.1455C13.3935 14.1455 13.4427 14.1425 13.4912 14.1377C13.4427 14.1425 13.3935 14.1455 13.3438 14.1455ZM13.5273 14.1318C13.5642 14.1272 13.6007 14.1225 13.6367 14.1152C13.6007 14.1225 13.5642 14.1272 13.5273 14.1318ZM2.29492 14.1152C2.31747 14.1198 2.34038 14.1225 2.36328 14.126C2.34038 14.1225 2.31748 14.1198 2.29492 14.1152ZM13.6807 14.1045C13.7113 14.0973 13.7416 14.0901 13.7715 14.0811C13.7416 14.0901 13.7113 14.0973 13.6807 14.1045ZM2.16992 14.084C2.17764 14.0863 2.18559 14.0877 2.19336 14.0898C2.18559 14.0877 2.17764 14.0863 2.16992 14.084ZM13.8369 14.0586C13.8602 14.0504 13.8835 14.0426 13.9062 14.0332C13.8835 14.0426 13.8602 14.0503 13.8369 14.0586ZM2.02539 14.0332C2.04405 14.0409 2.06301 14.0478 2.08203 14.0547C2.06301 14.0478 2.04405 14.0409 2.02539 14.0332ZM13.9561 14.0107C13.9836 13.9982 14.0105 13.9848 14.0371 13.9707C14.0105 13.9848 13.9836 13.9982 13.9561 14.0107ZM1.90332 13.9756C1.92062 13.9846 1.93837 13.9926 1.95605 14.001C1.93837 13.9926 1.92062 13.9846 1.90332 13.9756ZM14.0859 13.9434C14.1091 13.9299 14.1319 13.916 14.1543 13.9014C14.1319 13.916 14.1091 13.9299 14.0859 13.9434ZM1.77637 13.9014C1.79618 13.9143 1.81647 13.9264 1.83691 13.9385C1.81647 13.9264 1.79619 13.9143 1.77637 13.9014ZM1.66699 13.8223C1.6856 13.837 1.70433 13.8514 1.72363 13.8652C1.70433 13.8514 1.6856 13.837 1.66699 13.8223ZM14.207 13.8652C14.2273 13.8507 14.2471 13.8358 14.2666 13.8203C14.2471 13.8358 14.2273 13.8507 14.207 13.8652ZM14.3115 13.7842C14.3354 13.7638 14.3583 13.7425 14.3809 13.7207C14.3584 13.7425 14.3353 13.7638 14.3115 13.7842ZM1.56445 13.7344C1.57886 13.748 1.59347 13.7614 1.6084 13.7744C1.59347 13.7614 1.57886 13.748 1.56445 13.7344ZM14.4131 13.6875C14.4337 13.6663 14.4534 13.6444 14.4727 13.6221C14.4534 13.6445 14.4336 13.6663 14.4131 13.6875ZM1.47168 13.6387C1.48223 13.6506 1.49299 13.6623 1.50391 13.6738C1.49299 13.6623 1.48223 13.6506 1.47168 13.6387ZM14.5049 13.584C14.5262 13.5576 14.5469 13.5308 14.5664 13.5029C14.5469 13.5308 14.5262 13.5576 14.5049 13.584ZM1.37793 13.5215C1.39114 13.5398 1.40494 13.5575 1.41895 13.5752C1.40494 13.5575 1.39115 13.5398 1.37793 13.5215ZM2.49609 13.543L2.58789 13.5479C2.53703 13.5478 2.48704 13.5423 2.43848 13.5342C2.45754 13.5374 2.47664 13.541 2.49609 13.543ZM1.99219 12.6523C1.99265 12.9809 2.25927 13.2478 2.58789 13.248H13.3438C13.6724 13.2478 13.939 12.981 13.9395 12.6523V11.458H1.99219V12.6523ZM2.27734 13.4912C2.32147 13.5076 2.36698 13.521 2.41406 13.5303C2.36699 13.521 2.32147 13.5075 2.27734 13.4912ZM14.5859 13.4746C14.6039 13.4476 14.6205 13.4198 14.6367 13.3916C14.6205 13.4198 14.6039 13.4476 14.5859 13.4746ZM1.30664 13.4121C1.31617 13.428 1.32487 13.4444 1.33496 13.46C1.32486 13.4444 1.31617 13.428 1.30664 13.4121ZM14.1436 13.0518C14.081 13.1766 13.9906 13.284 13.8799 13.3672C13.9906 13.2841 14.081 13.1765 14.1436 13.0518ZM14.8066 12.9463C14.8162 12.8994 14.8251 12.852 14.8301 12.8037L14.8369 12.6523V12.6514C14.8369 12.7523 14.826 12.8508 14.8066 12.9463ZM1.23828 13.2852C1.24677 13.3031 1.25449 13.3213 1.26367 13.3389C1.25449 13.3213 1.24678 13.3031 1.23828 13.2852ZM1.12891 12.9688C1.10646 12.8664 1.09473 12.7601 1.09473 12.6514V12.6523C1.09476 12.7034 1.09742 12.7539 1.10254 12.8037C1.10829 12.8597 1.11707 12.9147 1.12891 12.9688ZM1.69141 11.1572V12.6514L1.69238 12.6523V11.1582H14.2393V11.1572H1.69141ZM1.69238 9.66602C1.58394 9.66602 1.51358 9.70126 1.47168 9.74316C1.42995 9.78507 1.39458 9.85487 1.39453 9.96289C1.39463 10.0711 1.42984 10.1417 1.47168 10.1836C1.51363 10.2253 1.58426 10.2607 1.69238 10.2607H14.2402C14.3481 10.2606 14.4181 10.2253 14.46 10.1836C14.5018 10.1417 14.537 10.0711 14.5371 9.96289C14.5371 9.85494 14.5017 9.78508 14.46 9.74316C14.4181 9.70134 14.3483 9.66615 14.2402 9.66602H1.69238ZM1.69141 9.36523H1.69238H1.69141ZM14.3682 9.37695L14.3672 9.37598L14.3682 9.37695ZM1.69141 8.76758H1.69238V7.88086H1.69141V8.76758ZM3.17383 7.88965C2.80253 8.08535 2.39849 8.18724 1.99219 8.19336V8.46777H13.9395V8.18555C13.5537 8.17192 13.1688 8.07597 12.8145 7.89062L12.627 8L12.626 7.99902C11.8172 8.47589 10.8468 8.49718 10.043 8.04102H10.0332L9.77539 7.89355L9.20703 8.1748L9.19629 8.18652L9.14941 8.20801C8.42053 8.55341 7.57658 8.55329 6.84766 8.20801L6.80078 8.18652L6.79004 8.1748L6.21875 7.89258L6.02051 8.00293C5.18506 8.49396 4.16429 8.50305 3.3457 7.99609L3.17383 7.88965ZM7.99805 8.16699C8.07893 8.167 8.15967 8.16154 8.24023 8.15332C8.15967 8.16154 8.07892 8.16701 7.99805 8.16699ZM7.51074 8.11426C7.57585 8.12787 7.64124 8.13838 7.70703 8.14648C7.64124 8.13837 7.57585 8.12788 7.51074 8.11426ZM8.29297 8.14648C8.35324 8.13897 8.41295 8.12835 8.47266 8.11621C8.41295 8.12834 8.35324 8.13897 8.29297 8.14648ZM5.87402 7.74023L5.875 7.74121L6.21094 7.55469L6.9668 7.92773C6.9702 7.93113 6.97312 7.93406 6.97656 7.9375C7.05745 7.9758 7.13997 8.00936 7.22363 8.03809C7.3007 8.06455 7.37923 8.08518 7.45801 8.10352C7.29359 8.06523 7.13208 8.0102 6.97656 7.93652C6.97312 7.93308 6.9702 7.93113 6.9668 7.92773L6.21094 7.55371L5.87402 7.74023ZM9.03027 7.92773C9.02681 7.9312 9.02398 7.93305 9.02051 7.93652C8.86812 8.00872 8.70981 8.06236 8.54883 8.10059C8.62421 8.08268 8.69964 8.06343 8.77344 8.03809L9.02051 7.9375L9.03027 7.92773L9.78613 7.55469L10.1133 7.74121H10.123L10.1221 7.74023H10.1133L9.78613 7.55371L9.03027 7.92773ZM3.50293 7.74121C3.54806 7.76916 3.59414 7.79492 3.64062 7.81934C3.59411 7.79489 3.5481 7.76823 3.50293 7.74023V7.74121ZM12.4756 7.74023C12.4292 7.76764 12.3815 7.79338 12.334 7.81738V7.81836C12.3816 7.7943 12.429 7.76869 12.4756 7.74121V7.74023ZM0.501953 7.25879C0.513531 7.33317 0.553288 7.40364 0.618164 7.45215C0.655693 7.48035 0.693746 7.50711 0.732422 7.53223C0.810009 7.58272 0.890292 7.62634 0.97168 7.66602C1.0123 7.68578 1.05337 7.70518 1.09473 7.72266V7.72168C0.92901 7.65166 0.768709 7.56437 0.618164 7.45117C0.553355 7.40269 0.513572 7.33297 0.501953 7.25879ZM15.0293 7.66406C15.0397 7.65892 15.0502 7.65376 15.0605 7.64844C15.0502 7.65377 15.0397 7.65891 15.0293 7.66406ZM15.3789 7.45117V7.45215V7.45117ZM4.68457 7.47754V7.47656V7.47754ZM11.0605 7.46094C11.1349 7.47152 11.2099 7.47734 11.2852 7.47754L11.2861 7.47656C11.2109 7.4764 11.1359 7.47148 11.0615 7.46094H11.0605ZM10.5225 7.28516C10.4885 7.26719 10.455 7.248 10.4219 7.22754H10.4209L10.5225 7.28516ZM6.2002 6.91699C6.24828 6.91537 6.29651 6.92575 6.34082 6.94727H6.3418C6.29735 6.92563 6.2485 6.91522 6.2002 6.91699ZM1.79102 7.29395V7.29297V7.29395ZM7.2998 7.0957H7.30469L7.36523 7.12402C7.76654 7.31127 8.23159 7.31152 8.63281 7.12402L8.69336 7.0957H8.69727L8.93359 6.97656H7.06348L7.2998 7.0957ZM1.56445 7.24609V7.24512V7.24609ZM13.0889 7.04492H13.0898H13.0889ZM13.6816 6.97656C13.8677 7.01973 14.0596 7.0211 14.248 6.98242L14.2441 6.97656H13.6816ZM1.56934 4.02539C1.46762 4.2656 1.38416 4.515 1.31738 4.76758C1.38414 4.515 1.46765 4.26559 1.56934 4.02539ZM11.0498 2.75391C10.9188 2.75459 10.7291 2.75578 10.4961 2.75684C10.0296 2.75895 9.38734 2.76101 8.68555 2.7627C7.28277 2.76607 5.63742 2.76646 4.67578 2.75293C3.84831 2.74128 3.22683 3.18946 2.78027 3.85352C2.39671 4.42402 2.15921 5.135 2.05371 5.7793H13.8848C13.7985 5.11889 13.6322 4.41473 13.291 3.85254C12.9054 3.2174 12.2926 2.753 11.252 2.75293H11.2012C11.1666 2.75312 11.1152 2.75356 11.0498 2.75391ZM5.60059 4.23633C6.01357 4.23646 6.34863 4.57136 6.34863 4.98438C6.34821 5.39703 6.0133 5.73229 5.60059 5.73242C5.18794 5.73221 4.85297 5.39697 4.85254 4.98438C4.85254 4.57141 5.18767 4.23654 5.60059 4.23633ZM5.43457 5.39844C5.45903 5.40824 5.48438 5.41745 5.51074 5.42285L5.60059 5.43262C5.62937 5.4326 5.65728 5.42807 5.68457 5.42285C5.65735 5.42802 5.6293 5.43164 5.60059 5.43164C5.54175 5.43162 5.48605 5.41909 5.43457 5.39844ZM5.71094 5.41602C5.73104 5.41087 5.75061 5.40522 5.76953 5.39746C5.75062 5.40519 5.73104 5.4109 5.71094 5.41602ZM5.78809 5.38867C5.80501 5.3808 5.82121 5.37215 5.83691 5.3623C5.82121 5.37212 5.80502 5.38082 5.78809 5.38867ZM5.37012 5.36523C5.3826 5.37279 5.39496 5.38038 5.4082 5.38672C5.39496 5.38038 5.3826 5.3728 5.37012 5.36523ZM5.30078 5.31445C5.31384 5.3263 5.3274 5.3374 5.3418 5.34766C5.3274 5.33739 5.31385 5.3263 5.30078 5.31445ZM5.87012 5.33887C5.87976 5.33153 5.88943 5.32448 5.89844 5.31641C5.88943 5.32447 5.87976 5.33154 5.87012 5.33887ZM5.92871 5.28711C5.9391 5.27588 5.9488 5.26419 5.95801 5.25195C5.9488 5.26419 5.9391 5.27589 5.92871 5.28711ZM5.23535 5.24121C5.24434 5.25393 5.25442 5.26565 5.26465 5.27734C5.25441 5.26565 5.24434 5.25393 5.23535 5.24121ZM5.97754 5.22461C5.98713 5.20965 5.99514 5.19384 6.00293 5.17773C5.99514 5.19384 5.98713 5.20965 5.97754 5.22461ZM5.19629 5.1748C5.20351 5.19004 5.21188 5.20452 5.2207 5.21875C5.21187 5.20451 5.20351 5.19004 5.19629 5.1748ZM6.04785 4.9834L6.04004 5.07422C6.0346 5.10069 6.02551 5.12584 6.01562 5.15039C6.02552 5.12584 6.0346 5.10068 6.04004 5.07422C6.046 5.04522 6.04877 5.01512 6.04883 4.98438L6.04785 4.9834ZM5.16211 5.07422C5.1673 5.09945 5.17436 5.12398 5.18359 5.14746C5.17435 5.12397 5.1673 5.09946 5.16211 5.07422ZM6.03125 4.86621C6.02699 4.85056 6.02246 4.83523 6.0166 4.82031C6.02247 4.83524 6.02699 4.85055 6.03125 4.86621ZM4.23145 3.33984C4.64443 3.33998 4.97949 3.67488 4.97949 4.08789C4.97918 4.50064 4.64423 4.83581 4.23145 4.83594C3.81858 4.83589 3.48371 4.50069 3.4834 4.08789C3.4834 3.67483 3.81839 3.33989 4.23145 3.33984ZM5.99609 4.77637C5.99106 4.76677 5.98616 4.75722 5.98047 4.74805C5.98617 4.75722 5.99105 4.76677 5.99609 4.77637ZM5.95898 4.7168C5.94984 4.7045 5.94002 4.69292 5.92969 4.68164C5.94004 4.69291 5.94982 4.70451 5.95898 4.7168ZM5.90527 4.65625C5.89391 4.64564 5.88156 4.63634 5.86914 4.62695C5.88158 4.63633 5.89389 4.64566 5.90527 4.65625ZM5.84082 4.60645C5.8289 4.59882 5.81636 4.59243 5.80371 4.58594C5.81637 4.59242 5.82889 4.59883 5.84082 4.60645ZM5.76758 4.56738C5.74321 4.55758 5.71768 4.55033 5.69141 4.54492C5.71767 4.55033 5.74321 4.5576 5.76758 4.56738ZM5.50977 4.54492H5.51074H5.50977ZM4.23145 4.53516V4.53613C4.26023 4.53612 4.28814 4.53158 4.31543 4.52637C4.28816 4.53157 4.26023 4.53515 4.23145 4.53516ZM4.06641 4.50293C4.08658 4.51093 4.10741 4.51742 4.12891 4.52246C4.10739 4.51741 4.0866 4.51095 4.06641 4.50293ZM4.33594 4.52148C4.35888 4.51596 4.38092 4.5089 4.40234 4.5C4.38093 4.50889 4.35887 4.51597 4.33594 4.52148ZM4.41113 4.49609C4.432 4.48689 4.45164 4.47602 4.4707 4.46387C4.45165 4.47601 4.432 4.4869 4.41113 4.49609ZM3.99609 4.4668C4.01119 4.47617 4.02674 4.48463 4.04297 4.49219C4.02673 4.48462 4.0112 4.47619 3.99609 4.4668ZM6.62793 2.96582C7.04091 2.96595 7.37598 3.30086 7.37598 3.71387C7.3757 4.12664 7.04074 4.46178 6.62793 4.46191C6.21514 4.46176 5.88016 4.12663 5.87988 3.71387C5.87988 3.30087 6.21497 2.96598 6.62793 2.96582ZM3.93652 4.42285C3.94696 4.43203 3.95748 4.44103 3.96875 4.44922C3.95748 4.44102 3.94697 4.43204 3.93652 4.42285ZM4.49707 4.44629C4.51031 4.43647 4.52211 4.42525 4.53418 4.41406C4.52212 4.42525 4.51031 4.43647 4.49707 4.44629ZM4.55469 4.39551C4.56927 4.38022 4.5824 4.3639 4.59473 4.34668C4.58241 4.3639 4.56926 4.38022 4.55469 4.39551ZM3.87012 4.35059C3.87327 4.35491 3.87658 4.35908 3.87988 4.36328C3.87657 4.35908 3.87328 4.35491 3.87012 4.35059ZM4.60449 4.33301C4.61535 4.31657 4.62416 4.29911 4.63281 4.28125C4.62417 4.2991 4.61534 4.31657 4.60449 4.33301ZM3.8291 4.28125C3.83458 4.29259 3.8403 4.30367 3.84668 4.31445C3.84029 4.30366 3.83459 4.2926 3.8291 4.28125ZM4.6709 4.17773C4.66548 4.20419 4.65635 4.22937 4.64648 4.25391C4.65636 4.22935 4.66548 4.20421 4.6709 4.17773ZM3.7998 4.2041C3.80402 4.21973 3.80864 4.2351 3.81445 4.25C3.80862 4.23508 3.80403 4.21974 3.7998 4.2041ZM6.45703 4.12695C6.48296 4.13772 6.50995 4.14758 6.53809 4.15332L6.62793 4.16211C6.65672 4.16209 6.68462 4.15756 6.71191 4.15234C6.68465 4.15753 6.6567 4.16113 6.62793 4.16113C6.56732 4.16113 6.50977 4.14879 6.45703 4.12695ZM6.73828 4.14551C6.75839 4.14037 6.77795 4.13471 6.79688 4.12695C6.77795 4.13469 6.75839 4.14039 6.73828 4.14551ZM6.38867 4.09082C6.40673 4.10235 6.42561 4.11222 6.44531 4.12109C6.42562 4.11225 6.40674 4.1023 6.38867 4.09082ZM6.81543 4.11816C6.83286 4.11006 6.85007 4.10199 6.86621 4.0918C6.85007 4.10198 6.83287 4.11007 6.81543 4.11816ZM6.25977 3.9668C6.28977 4.01048 6.32695 4.04846 6.37012 4.0791C6.32687 4.04855 6.28984 4.0104 6.25977 3.9668ZM6.89453 4.07227C6.90699 4.06299 6.91827 4.05248 6.92969 4.04199C6.91827 4.05248 6.907 4.06299 6.89453 4.07227ZM6.95508 4.01758C6.96581 4.00604 6.97587 3.99406 6.98535 3.98145C6.97587 3.99406 6.96581 4.00604 6.95508 4.01758ZM7.00488 3.9541C7.01346 3.94072 7.02021 3.92641 7.02734 3.91211C7.02021 3.92641 7.01345 3.94072 7.00488 3.9541ZM6.22363 3.9043C6.23164 3.92128 6.24098 3.93738 6.25098 3.95312C6.24095 3.93739 6.23167 3.92128 6.22363 3.9043ZM4.63086 3.8877C4.62377 3.87351 4.61592 3.85996 4.60742 3.84668C4.61593 3.85995 4.62376 3.87352 4.63086 3.8877ZM7.06738 3.80371C7.06196 3.83018 7.05284 3.85533 7.04297 3.87988C7.05285 3.85533 7.06196 3.83018 7.06738 3.80371ZM6.19629 3.83008C6.2005 3.8457 6.20513 3.86107 6.21094 3.87598C6.20511 3.86107 6.20051 3.84571 6.19629 3.83008ZM14.4121 3.84375V3.84473V3.84375ZM4.5918 3.82422C4.5811 3.80956 4.56997 3.79547 4.55762 3.78223C4.56999 3.79545 4.58109 3.80957 4.5918 3.82422ZM4.53906 3.7627C4.5241 3.74847 4.50802 3.7357 4.49121 3.72363C4.50802 3.73567 4.52409 3.7485 4.53906 3.7627ZM4.32129 3.64844C4.37725 3.65986 4.42932 3.68174 4.47559 3.71191C4.42957 3.68182 4.37791 3.65992 4.32227 3.64844L4.23145 3.63965L4.32129 3.64844ZM6.22559 3.51953C6.27274 3.42186 6.35293 3.34333 6.45312 3.30078C6.35289 3.34332 6.27283 3.4219 6.22559 3.51953ZM13.2725 3.31543H13.2734H13.2725ZM12.6689 2.80566C12.7629 2.86102 12.8516 2.92138 12.9346 2.9873C12.8516 2.92136 12.7629 2.86103 12.6689 2.80566ZM3.85352 2.58789C3.75313 2.62417 3.65633 2.66674 3.56348 2.71582C3.65633 2.66674 3.75313 2.62417 3.85352 2.58789ZM12.209 2.59668H12.208H12.209ZM4.67969 2.45215V2.45312V2.45215ZM10.6807 2.4541C11.0287 2.45241 11.242 2.45318 11.252 2.45312C11.3243 2.45313 11.395 2.45492 11.4639 2.45898C11.395 2.45493 11.3243 2.45215 11.252 2.45215C11.2463 2.45218 11.0324 2.45243 10.6807 2.4541ZM14.665 13.3418C14.6825 13.3086 14.6988 13.2748 14.7139 13.2402C14.6989 13.2748 14.6825 13.3086 14.665 13.3418ZM14.7197 13.2256C14.737 13.1847 14.753 13.1432 14.7666 13.1006C14.753 13.1432 14.737 13.1847 14.7197 13.2256ZM14.7705 13.0889C14.7829 13.0489 14.7927 13.0081 14.8018 12.9668C14.7928 13.0081 14.7829 13.0489 14.7705 13.0889ZM1.18555 13.1602C1.1913 13.1759 1.19686 13.1916 1.20312 13.207C1.19686 13.1916 1.1913 13.1759 1.18555 13.1602ZM6.04785 4.97852C6.04753 4.95115 6.04505 4.92443 6.04004 4.89844C6.04505 4.92444 6.04755 4.95112 6.04785 4.97852ZM4.66895 3.99512C4.66371 3.97018 4.65665 3.94609 4.64746 3.92285C4.65665 3.94608 4.66371 3.97018 4.66895 3.99512Z" fill="#0DB659"/>
<path d="M11.252 1.55566C12.0592 1.5557 12.7147 1.71895 13.2412 2.01074C13.7685 2.30306 14.1508 2.71578 14.4258 3.18652C14.95 4.08457 15.0867 5.20399 15.123 6.15527L15.6699 6.8457L15.6719 6.84766C15.7707 6.97513 15.8128 7.13572 15.792 7.29297C15.7707 7.4523 15.6862 7.59496 15.5605 7.69043L15.5596 7.69141C15.4249 7.79289 15.2834 7.87642 15.1377 7.94629V8.77539C15.4983 9.04533 15.7353 9.47231 15.7354 9.96289C15.7352 10.4532 15.498 10.8795 15.1377 11.1494V12.6523C15.1372 13.6379 14.3294 14.4451 13.3438 14.4453H2.58789C1.6023 14.4451 0.795393 13.6379 0.794922 12.6523V11.1494C0.434357 10.8795 0.197415 10.4534 0.197266 9.96289C0.197344 9.47198 0.433943 9.0453 0.794922 8.77539V7.91211C0.673867 7.85017 0.554446 7.77776 0.439453 7.69141C0.17889 7.49657 0.123782 7.13231 0.307617 6.86914L0.30957 6.86523L0.808594 6.1709C0.849797 5.19074 1.10043 4.06959 1.68066 3.1748C2.2891 2.23667 3.25909 1.55225 4.68066 1.55566C5.9869 1.5588 7.63006 1.5584 8.94629 1.55762C9.60419 1.55723 10.181 1.55713 10.5928 1.55664C10.7985 1.5564 10.9639 1.55582 11.0771 1.55566H11.252ZM13.3438 14.1455C13.3935 14.1455 13.4427 14.1425 13.4912 14.1377C13.4427 14.1425 13.3935 14.1455 13.3438 14.1455ZM13.5273 14.1318C13.5642 14.1272 13.6007 14.1225 13.6367 14.1152C13.6007 14.1225 13.5642 14.1272 13.5273 14.1318ZM2.29492 14.1152C2.31747 14.1198 2.34038 14.1225 2.36328 14.126C2.34038 14.1225 2.31748 14.1198 2.29492 14.1152ZM13.6807 14.1045C13.7113 14.0973 13.7416 14.0901 13.7715 14.0811C13.7416 14.0901 13.7113 14.0973 13.6807 14.1045ZM2.16992 14.084C2.17764 14.0863 2.18559 14.0877 2.19336 14.0898C2.18559 14.0877 2.17764 14.0863 2.16992 14.084ZM13.8369 14.0586C13.8602 14.0504 13.8835 14.0426 13.9062 14.0332C13.8835 14.0426 13.8602 14.0503 13.8369 14.0586ZM2.02539 14.0332C2.04405 14.0409 2.06301 14.0478 2.08203 14.0547C2.06301 14.0478 2.04405 14.0409 2.02539 14.0332ZM13.9561 14.0107C13.9836 13.9982 14.0105 13.9848 14.0371 13.9707C14.0105 13.9848 13.9836 13.9982 13.9561 14.0107ZM1.90332 13.9756C1.92062 13.9846 1.93837 13.9926 1.95605 14.001C1.93837 13.9926 1.92062 13.9846 1.90332 13.9756ZM14.0859 13.9434C14.1091 13.9299 14.1319 13.916 14.1543 13.9014C14.1319 13.916 14.1091 13.9299 14.0859 13.9434ZM1.77637 13.9014C1.79618 13.9143 1.81647 13.9264 1.83691 13.9385C1.81647 13.9264 1.79619 13.9143 1.77637 13.9014ZM1.66699 13.8223C1.6856 13.837 1.70433 13.8514 1.72363 13.8652C1.70433 13.8514 1.6856 13.837 1.66699 13.8223ZM14.207 13.8652C14.2273 13.8507 14.2471 13.8358 14.2666 13.8203C14.2471 13.8358 14.2273 13.8507 14.207 13.8652ZM14.3115 13.7842C14.3354 13.7638 14.3583 13.7425 14.3809 13.7207C14.3584 13.7425 14.3353 13.7638 14.3115 13.7842ZM1.56445 13.7344C1.57886 13.748 1.59347 13.7614 1.6084 13.7744C1.59347 13.7614 1.57886 13.748 1.56445 13.7344ZM14.4131 13.6875C14.4337 13.6663 14.4534 13.6444 14.4727 13.6221C14.4534 13.6445 14.4336 13.6663 14.4131 13.6875ZM1.47168 13.6387C1.48223 13.6506 1.49299 13.6623 1.50391 13.6738C1.49299 13.6623 1.48223 13.6506 1.47168 13.6387ZM14.5049 13.584C14.5262 13.5576 14.5469 13.5308 14.5664 13.5029C14.5469 13.5308 14.5262 13.5576 14.5049 13.584ZM1.37793 13.5215C1.39114 13.5398 1.40494 13.5575 1.41895 13.5752C1.40494 13.5575 1.39115 13.5398 1.37793 13.5215ZM2.49609 13.543L2.58789 13.5479C2.53703 13.5478 2.48704 13.5423 2.43848 13.5342C2.45754 13.5374 2.47664 13.541 2.49609 13.543ZM1.99219 12.6523C1.99265 12.9809 2.25927 13.2478 2.58789 13.248H13.3438C13.6724 13.2478 13.939 12.981 13.9395 12.6523V11.458H1.99219V12.6523ZM2.27734 13.4912C2.32147 13.5076 2.36698 13.521 2.41406 13.5303C2.36699 13.521 2.32147 13.5075 2.27734 13.4912ZM14.5859 13.4746C14.6039 13.4476 14.6205 13.4198 14.6367 13.3916C14.6205 13.4198 14.6039 13.4476 14.5859 13.4746ZM1.30664 13.4121C1.31617 13.428 1.32487 13.4444 1.33496 13.46C1.32486 13.4444 1.31617 13.428 1.30664 13.4121ZM14.1436 13.0518C14.081 13.1766 13.9906 13.284 13.8799 13.3672C13.9906 13.2841 14.081 13.1765 14.1436 13.0518ZM14.8066 12.9463C14.8162 12.8994 14.8251 12.852 14.8301 12.8037L14.8369 12.6523V12.6514C14.8369 12.7523 14.826 12.8508 14.8066 12.9463ZM1.23828 13.2852C1.24677 13.3031 1.25449 13.3213 1.26367 13.3389C1.25449 13.3213 1.24678 13.3031 1.23828 13.2852ZM1.12891 12.9688C1.10646 12.8664 1.09473 12.7601 1.09473 12.6514V12.6523C1.09476 12.7034 1.09742 12.7539 1.10254 12.8037C1.10829 12.8597 1.11707 12.9147 1.12891 12.9688ZM1.69141 11.1572V12.6514L1.69238 12.6523V11.1582H14.2393V11.1572H1.69141ZM1.69238 9.66602C1.58394 9.66602 1.51358 9.70126 1.47168 9.74316C1.42995 9.78507 1.39458 9.85487 1.39453 9.96289C1.39463 10.0711 1.42984 10.1417 1.47168 10.1836C1.51363 10.2253 1.58426 10.2607 1.69238 10.2607H14.2402C14.3481 10.2606 14.4181 10.2253 14.46 10.1836C14.5018 10.1417 14.537 10.0711 14.5371 9.96289C14.5371 9.85494 14.5017 9.78508 14.46 9.74316C14.4181 9.70134 14.3483 9.66615 14.2402 9.66602H1.69238ZM1.69141 9.36523H1.69238H1.69141ZM14.3682 9.37695L14.3672 9.37598L14.3682 9.37695ZM1.69141 8.76758H1.69238V7.88086H1.69141V8.76758ZM3.17383 7.88965C2.80253 8.08535 2.39849 8.18724 1.99219 8.19336V8.46777H13.9395V8.18555C13.5537 8.17192 13.1688 8.07597 12.8145 7.89062L12.627 8L12.626 7.99902C11.8172 8.47589 10.8468 8.49718 10.043 8.04102H10.0332L9.77539 7.89355L9.20703 8.1748L9.19629 8.18652L9.14941 8.20801C8.42053 8.55341 7.57658 8.55329 6.84766 8.20801L6.80078 8.18652L6.79004 8.1748L6.21875 7.89258L6.02051 8.00293C5.18506 8.49396 4.16429 8.50305 3.3457 7.99609L3.17383 7.88965ZM7.99805 8.16699C8.07893 8.167 8.15967 8.16154 8.24023 8.15332C8.15967 8.16154 8.07892 8.16701 7.99805 8.16699ZM7.51074 8.11426C7.57585 8.12787 7.64124 8.13838 7.70703 8.14648C7.64124 8.13837 7.57585 8.12788 7.51074 8.11426ZM8.29297 8.14648C8.35324 8.13897 8.41295 8.12835 8.47266 8.11621C8.41295 8.12834 8.35324 8.13897 8.29297 8.14648ZM5.87402 7.74023L5.875 7.74121L6.21094 7.55469L6.9668 7.92773C6.9702 7.93113 6.97312 7.93406 6.97656 7.9375C7.05745 7.9758 7.13997 8.00936 7.22363 8.03809C7.3007 8.06455 7.37923 8.08518 7.45801 8.10352C7.29359 8.06523 7.13208 8.0102 6.97656 7.93652C6.97312 7.93308 6.9702 7.93113 6.9668 7.92773L6.21094 7.55371L5.87402 7.74023ZM9.03027 7.92773C9.02681 7.9312 9.02398 7.93305 9.02051 7.93652C8.86812 8.00872 8.70981 8.06236 8.54883 8.10059C8.62421 8.08268 8.69964 8.06343 8.77344 8.03809L9.02051 7.9375L9.03027 7.92773L9.78613 7.55469L10.1133 7.74121H10.123L10.1221 7.74023H10.1133L9.78613 7.55371L9.03027 7.92773ZM3.50293 7.74121C3.54806 7.76916 3.59414 7.79492 3.64062 7.81934C3.59411 7.79489 3.5481 7.76823 3.50293 7.74023V7.74121ZM12.4756 7.74023C12.4292 7.76764 12.3815 7.79338 12.334 7.81738V7.81836C12.3816 7.7943 12.429 7.76869 12.4756 7.74121V7.74023ZM0.501953 7.25879C0.513531 7.33317 0.553288 7.40364 0.618164 7.45215C0.655693 7.48035 0.693746 7.50711 0.732422 7.53223C0.810009 7.58272 0.890292 7.62634 0.97168 7.66602C1.0123 7.68578 1.05337 7.70518 1.09473 7.72266V7.72168C0.92901 7.65166 0.768709 7.56437 0.618164 7.45117C0.553355 7.40269 0.513572 7.33297 0.501953 7.25879ZM15.0293 7.66406C15.0397 7.65892 15.0502 7.65376 15.0605 7.64844C15.0502 7.65377 15.0397 7.65891 15.0293 7.66406ZM15.3789 7.45117V7.45215V7.45117ZM4.68457 7.47754V7.47656V7.47754ZM11.0605 7.46094C11.1349 7.47152 11.2099 7.47734 11.2852 7.47754L11.2861 7.47656C11.2109 7.4764 11.1359 7.47148 11.0615 7.46094H11.0605ZM10.5225 7.28516C10.4885 7.26719 10.455 7.248 10.4219 7.22754H10.4209L10.5225 7.28516ZM6.2002 6.91699C6.24828 6.91537 6.29651 6.92575 6.34082 6.94727H6.3418C6.29735 6.92563 6.2485 6.91522 6.2002 6.91699ZM1.79102 7.29395V7.29297V7.29395ZM7.2998 7.0957H7.30469L7.36523 7.12402C7.76654 7.31127 8.23159 7.31152 8.63281 7.12402L8.69336 7.0957H8.69727L8.93359 6.97656H7.06348L7.2998 7.0957ZM1.56445 7.24609V7.24512V7.24609ZM13.0889 7.04492H13.0898H13.0889ZM13.6816 6.97656C13.8677 7.01973 14.0596 7.0211 14.248 6.98242L14.2441 6.97656H13.6816ZM1.56934 4.02539C1.46762 4.2656 1.38416 4.515 1.31738 4.76758C1.38414 4.515 1.46765 4.26559 1.56934 4.02539ZM11.0498 2.75391C10.9188 2.75459 10.7291 2.75578 10.4961 2.75684C10.0296 2.75895 9.38734 2.76101 8.68555 2.7627C7.28277 2.76607 5.63742 2.76646 4.67578 2.75293C3.84831 2.74128 3.22683 3.18946 2.78027 3.85352C2.39671 4.42402 2.15921 5.135 2.05371 5.7793H13.8848C13.7985 5.11889 13.6322 4.41473 13.291 3.85254C12.9054 3.2174 12.2926 2.753 11.252 2.75293H11.2012C11.1666 2.75312 11.1152 2.75356 11.0498 2.75391ZM5.60059 4.23633C6.01357 4.23646 6.34863 4.57136 6.34863 4.98438C6.34821 5.39703 6.0133 5.73229 5.60059 5.73242C5.18794 5.73221 4.85297 5.39697 4.85254 4.98438C4.85254 4.57141 5.18767 4.23654 5.60059 4.23633ZM5.43457 5.39844C5.45903 5.40824 5.48438 5.41745 5.51074 5.42285L5.60059 5.43262C5.62937 5.4326 5.65728 5.42807 5.68457 5.42285C5.65735 5.42802 5.6293 5.43164 5.60059 5.43164C5.54175 5.43162 5.48605 5.41909 5.43457 5.39844ZM5.71094 5.41602C5.73104 5.41087 5.75061 5.40522 5.76953 5.39746C5.75062 5.40519 5.73104 5.4109 5.71094 5.41602ZM5.78809 5.38867C5.80501 5.3808 5.82121 5.37215 5.83691 5.3623C5.82121 5.37212 5.80502 5.38082 5.78809 5.38867ZM5.37012 5.36523C5.3826 5.37279 5.39496 5.38038 5.4082 5.38672C5.39496 5.38038 5.3826 5.3728 5.37012 5.36523ZM5.30078 5.31445C5.31384 5.3263 5.3274 5.3374 5.3418 5.34766C5.3274 5.33739 5.31385 5.3263 5.30078 5.31445ZM5.87012 5.33887C5.87976 5.33153 5.88943 5.32448 5.89844 5.31641C5.88943 5.32447 5.87976 5.33154 5.87012 5.33887ZM5.92871 5.28711C5.9391 5.27588 5.9488 5.26419 5.95801 5.25195C5.9488 5.26419 5.9391 5.27589 5.92871 5.28711ZM5.23535 5.24121C5.24434 5.25393 5.25442 5.26565 5.26465 5.27734C5.25441 5.26565 5.24434 5.25393 5.23535 5.24121ZM5.97754 5.22461C5.98713 5.20965 5.99514 5.19384 6.00293 5.17773C5.99514 5.19384 5.98713 5.20965 5.97754 5.22461ZM5.19629 5.1748C5.20351 5.19004 5.21188 5.20452 5.2207 5.21875C5.21187 5.20451 5.20351 5.19004 5.19629 5.1748ZM6.04785 4.9834L6.04004 5.07422C6.0346 5.10069 6.02551 5.12584 6.01562 5.15039C6.02552 5.12584 6.0346 5.10068 6.04004 5.07422C6.046 5.04522 6.04877 5.01512 6.04883 4.98438L6.04785 4.9834ZM5.16211 5.07422C5.1673 5.09945 5.17436 5.12398 5.18359 5.14746C5.17435 5.12397 5.1673 5.09946 5.16211 5.07422ZM6.03125 4.86621C6.02699 4.85056 6.02246 4.83523 6.0166 4.82031C6.02247 4.83524 6.02699 4.85055 6.03125 4.86621ZM4.23145 3.33984C4.64443 3.33998 4.97949 3.67488 4.97949 4.08789C4.97918 4.50064 4.64423 4.83581 4.23145 4.83594C3.81858 4.83589 3.48371 4.50069 3.4834 4.08789C3.4834 3.67483 3.81839 3.33989 4.23145 3.33984ZM5.99609 4.77637C5.99106 4.76677 5.98616 4.75722 5.98047 4.74805C5.98617 4.75722 5.99105 4.76677 5.99609 4.77637ZM5.95898 4.7168C5.94984 4.7045 5.94002 4.69292 5.92969 4.68164C5.94004 4.69291 5.94982 4.70451 5.95898 4.7168ZM5.90527 4.65625C5.89391 4.64564 5.88156 4.63634 5.86914 4.62695C5.88158 4.63633 5.89389 4.64566 5.90527 4.65625ZM5.84082 4.60645C5.8289 4.59882 5.81636 4.59243 5.80371 4.58594C5.81637 4.59242 5.82889 4.59883 5.84082 4.60645ZM5.76758 4.56738C5.74321 4.55758 5.71768 4.55033 5.69141 4.54492C5.71767 4.55033 5.74321 4.5576 5.76758 4.56738ZM5.50977 4.54492H5.51074H5.50977ZM4.23145 4.53516V4.53613C4.26023 4.53612 4.28814 4.53158 4.31543 4.52637C4.28816 4.53157 4.26023 4.53515 4.23145 4.53516ZM4.06641 4.50293C4.08658 4.51093 4.10741 4.51742 4.12891 4.52246C4.10739 4.51741 4.0866 4.51095 4.06641 4.50293ZM4.33594 4.52148C4.35888 4.51596 4.38092 4.5089 4.40234 4.5C4.38093 4.50889 4.35887 4.51597 4.33594 4.52148ZM4.41113 4.49609C4.432 4.48689 4.45164 4.47602 4.4707 4.46387C4.45165 4.47601 4.432 4.4869 4.41113 4.49609ZM3.99609 4.4668C4.01119 4.47617 4.02674 4.48463 4.04297 4.49219C4.02673 4.48462 4.0112 4.47619 3.99609 4.4668ZM6.62793 2.96582C7.04091 2.96595 7.37598 3.30086 7.37598 3.71387C7.3757 4.12664 7.04074 4.46178 6.62793 4.46191C6.21514 4.46176 5.88016 4.12663 5.87988 3.71387C5.87988 3.30087 6.21497 2.96598 6.62793 2.96582ZM3.93652 4.42285C3.94696 4.43203 3.95748 4.44103 3.96875 4.44922C3.95748 4.44102 3.94697 4.43204 3.93652 4.42285ZM4.49707 4.44629C4.51031 4.43647 4.52211 4.42525 4.53418 4.41406C4.52212 4.42525 4.51031 4.43647 4.49707 4.44629ZM4.55469 4.39551C4.56927 4.38022 4.5824 4.3639 4.59473 4.34668C4.58241 4.3639 4.56926 4.38022 4.55469 4.39551ZM3.87012 4.35059C3.87327 4.35491 3.87658 4.35908 3.87988 4.36328C3.87657 4.35908 3.87328 4.35491 3.87012 4.35059ZM4.60449 4.33301C4.61535 4.31657 4.62416 4.29911 4.63281 4.28125C4.62417 4.2991 4.61534 4.31657 4.60449 4.33301ZM3.8291 4.28125C3.83458 4.29259 3.8403 4.30367 3.84668 4.31445C3.84029 4.30366 3.83459 4.2926 3.8291 4.28125ZM4.6709 4.17773C4.66548 4.20419 4.65635 4.22937 4.64648 4.25391C4.65636 4.22935 4.66548 4.20421 4.6709 4.17773ZM3.7998 4.2041C3.80402 4.21973 3.80864 4.2351 3.81445 4.25C3.80862 4.23508 3.80403 4.21974 3.7998 4.2041ZM6.45703 4.12695C6.48296 4.13772 6.50995 4.14758 6.53809 4.15332L6.62793 4.16211C6.65672 4.16209 6.68462 4.15756 6.71191 4.15234C6.68465 4.15753 6.6567 4.16113 6.62793 4.16113C6.56732 4.16113 6.50977 4.14879 6.45703 4.12695ZM6.73828 4.14551C6.75839 4.14037 6.77795 4.13471 6.79688 4.12695C6.77795 4.13469 6.75839 4.14039 6.73828 4.14551ZM6.38867 4.09082C6.40673 4.10235 6.42561 4.11222 6.44531 4.12109C6.42562 4.11225 6.40674 4.1023 6.38867 4.09082ZM6.81543 4.11816C6.83286 4.11006 6.85007 4.10199 6.86621 4.0918C6.85007 4.10198 6.83287 4.11007 6.81543 4.11816ZM6.25977 3.9668C6.28977 4.01048 6.32695 4.04846 6.37012 4.0791C6.32687 4.04855 6.28984 4.0104 6.25977 3.9668ZM6.89453 4.07227C6.90699 4.06299 6.91827 4.05248 6.92969 4.04199C6.91827 4.05248 6.907 4.06299 6.89453 4.07227ZM6.95508 4.01758C6.96581 4.00604 6.97587 3.99406 6.98535 3.98145C6.97587 3.99406 6.96581 4.00604 6.95508 4.01758ZM7.00488 3.9541C7.01346 3.94072 7.02021 3.92641 7.02734 3.91211C7.02021 3.92641 7.01345 3.94072 7.00488 3.9541ZM6.22363 3.9043C6.23164 3.92128 6.24098 3.93738 6.25098 3.95312C6.24095 3.93739 6.23167 3.92128 6.22363 3.9043ZM4.63086 3.8877C4.62377 3.87351 4.61592 3.85996 4.60742 3.84668C4.61593 3.85995 4.62376 3.87352 4.63086 3.8877ZM7.06738 3.80371C7.06196 3.83018 7.05284 3.85533 7.04297 3.87988C7.05285 3.85533 7.06196 3.83018 7.06738 3.80371ZM6.19629 3.83008C6.2005 3.8457 6.20513 3.86107 6.21094 3.87598C6.20511 3.86107 6.20051 3.84571 6.19629 3.83008ZM14.4121 3.84375V3.84473V3.84375ZM4.5918 3.82422C4.5811 3.80956 4.56997 3.79547 4.55762 3.78223C4.56999 3.79545 4.58109 3.80957 4.5918 3.82422ZM4.53906 3.7627C4.5241 3.74847 4.50802 3.7357 4.49121 3.72363C4.50802 3.73567 4.52409 3.7485 4.53906 3.7627ZM4.32129 3.64844C4.37725 3.65986 4.42932 3.68174 4.47559 3.71191C4.42957 3.68182 4.37791 3.65992 4.32227 3.64844L4.23145 3.63965L4.32129 3.64844ZM6.22559 3.51953C6.27274 3.42186 6.35293 3.34333 6.45312 3.30078C6.35289 3.34332 6.27283 3.4219 6.22559 3.51953ZM13.2725 3.31543H13.2734H13.2725ZM12.6689 2.80566C12.7629 2.86102 12.8516 2.92138 12.9346 2.9873C12.8516 2.92136 12.7629 2.86103 12.6689 2.80566ZM3.85352 2.58789C3.75313 2.62417 3.65633 2.66674 3.56348 2.71582C3.65633 2.66674 3.75313 2.62417 3.85352 2.58789ZM12.209 2.59668H12.208H12.209ZM4.67969 2.45215V2.45312V2.45215ZM10.6807 2.4541C11.0287 2.45241 11.242 2.45318 11.252 2.45312C11.3243 2.45313 11.395 2.45492 11.4639 2.45898C11.395 2.45493 11.3243 2.45215 11.252 2.45215C11.2463 2.45218 11.0324 2.45243 10.6807 2.4541ZM14.665 13.3418C14.6825 13.3086 14.6988 13.2748 14.7139 13.2402C14.6989 13.2748 14.6825 13.3086 14.665 13.3418ZM14.7197 13.2256C14.737 13.1847 14.753 13.1432 14.7666 13.1006C14.753 13.1432 14.737 13.1847 14.7197 13.2256ZM14.7705 13.0889C14.7829 13.0489 14.7927 13.0081 14.8018 12.9668C14.7928 13.0081 14.7829 13.0489 14.7705 13.0889ZM1.18555 13.1602C1.1913 13.1759 1.19686 13.1916 1.20312 13.207C1.19686 13.1916 1.1913 13.1759 1.18555 13.1602ZM6.04785 4.97852C6.04753 4.95115 6.04505 4.92443 6.04004 4.89844C6.04505 4.92444 6.04755 4.95112 6.04785 4.97852ZM4.66895 3.99512C4.66371 3.97018 4.65665 3.94609 4.64746 3.92285C4.65665 3.94608 4.66371 3.97018 4.66895 3.99512Z" fill="black" fill-opacity="0.4"/>
</g>
<defs>
<clipPath id="clip0_1566_2390">
<rect width="15.9935" height="16" fill="white"/>
</clipPath>
</defs>
</svg>
