<svg viewBox="0 0 20 20" fill="none" xmlns="http://www.w3.org/2000/svg">
<path d="M18.2501 9.62734L15.7501 4.62734C15.7152 4.55772 15.669 4.49436 15.6134 4.43984C15.5362 4.3537 15.4416 4.28483 15.3359 4.23773C15.2302 4.19063 15.1158 4.16636 15.0001 4.1665H10.8334V2.49984C10.8334 2.27882 10.7456 2.06686 10.5893 1.91058C10.4331 1.7543 10.2211 1.6665 10.0001 1.6665C9.77907 1.6665 9.5671 1.7543 9.41082 1.91058C9.25454 2.06686 9.16675 2.27882 9.16675 2.49984V4.1665H5.00008C4.88508 4.16694 4.77144 4.1915 4.66651 4.23858C4.56159 4.28566 4.4677 4.35422 4.39091 4.43984C4.33532 4.49436 4.28914 4.55772 4.25425 4.62734L1.75425 9.62734C1.6975 9.7432 1.66894 9.87084 1.67091 9.99984H1.66675C1.66675 10.8839 2.01794 11.7317 2.64306 12.3569C3.26818 12.982 4.11603 13.3332 5.00008 13.3332C5.88414 13.3332 6.73198 12.982 7.3571 12.3569C7.98222 11.7317 8.33341 10.8839 8.33341 9.99984H8.32508C8.32705 9.87084 8.2985 9.7432 8.24175 9.62734L6.34841 5.83317H9.16675V16.6665H5.00008C4.77907 16.6665 4.56711 16.7543 4.41083 16.9106C4.25455 17.0669 4.16675 17.2788 4.16675 17.4998C4.16675 17.7208 4.25455 17.9328 4.41083 18.0891C4.56711 18.2454 4.77907 18.3332 5.00008 18.3332H15.0001C15.2211 18.3332 15.4331 18.2454 15.5893 18.0891C15.7456 17.9328 15.8334 17.7208 15.8334 17.4998C15.8334 17.2788 15.7456 17.0669 15.5893 16.9106C15.4331 16.7543 15.2211 16.6665 15.0001 16.6665H10.8334V5.83317H13.6517L11.7542 9.62734C11.6975 9.7432 11.6689 9.87084 11.6709 9.99984H11.6667C11.6667 10.8839 12.0179 11.7317 12.6431 12.3569C13.2682 12.982 14.116 13.3332 15.0001 13.3332C15.8841 13.3332 16.732 12.982 17.3571 12.3569C17.9822 11.7317 18.3334 10.8839 18.3334 9.99984H18.3251C18.3297 9.8715 18.304 9.7439 18.2501 9.62734ZM6.56841 9.99984H3.43175L5.00008 6.86317L6.56841 9.99984ZM13.4317 9.99984L15.0001 6.86317L16.5684 9.99984H13.4317Z" fill="#0DB659"/>
<path d="M18.2501 9.62734L15.7501 4.62734C15.7152 4.55772 15.669 4.49436 15.6134 4.43984C15.5362 4.3537 15.4416 4.28483 15.3359 4.23773C15.2302 4.19063 15.1158 4.16636 15.0001 4.1665H10.8334V2.49984C10.8334 2.27882 10.7456 2.06686 10.5893 1.91058C10.4331 1.7543 10.2211 1.6665 10.0001 1.6665C9.77907 1.6665 9.5671 1.7543 9.41082 1.91058C9.25454 2.06686 9.16675 2.27882 9.16675 2.49984V4.1665H5.00008C4.88508 4.16694 4.77144 4.1915 4.66651 4.23858C4.56159 4.28566 4.4677 4.35422 4.39091 4.43984C4.33532 4.49436 4.28914 4.55772 4.25425 4.62734L1.75425 9.62734C1.6975 9.7432 1.66894 9.87084 1.67091 9.99984H1.66675C1.66675 10.8839 2.01794 11.7317 2.64306 12.3569C3.26818 12.982 4.11603 13.3332 5.00008 13.3332C5.88414 13.3332 6.73198 12.982 7.3571 12.3569C7.98222 11.7317 8.33341 10.8839 8.33341 9.99984H8.32508C8.32705 9.87084 8.2985 9.7432 8.24175 9.62734L6.34841 5.83317H9.16675V16.6665H5.00008C4.77907 16.6665 4.56711 16.7543 4.41083 16.9106C4.25455 17.0669 4.16675 17.2788 4.16675 17.4998C4.16675 17.7208 4.25455 17.9328 4.41083 18.0891C4.56711 18.2454 4.77907 18.3332 5.00008 18.3332H15.0001C15.2211 18.3332 15.4331 18.2454 15.5893 18.0891C15.7456 17.9328 15.8334 17.7208 15.8334 17.4998C15.8334 17.2788 15.7456 17.0669 15.5893 16.9106C15.4331 16.7543 15.2211 16.6665 15.0001 16.6665H10.8334V5.83317H13.6517L11.7542 9.62734C11.6975 9.7432 11.6689 9.87084 11.6709 9.99984H11.6667C11.6667 10.8839 12.0179 11.7317 12.6431 12.3569C13.2682 12.982 14.116 13.3332 15.0001 13.3332C15.8841 13.3332 16.732 12.982 17.3571 12.3569C17.9822 11.7317 18.3334 10.8839 18.3334 9.99984H18.3251C18.3297 9.8715 18.304 9.7439 18.2501 9.62734ZM6.56841 9.99984H3.43175L5.00008 6.86317L6.56841 9.99984ZM13.4317 9.99984L15.0001 6.86317L16.5684 9.99984H13.4317Z" fill="black" fill-opacity="0.4"/>
</svg>
