<svg viewBox="0 0 15 17" fill="none" xmlns="http://www.w3.org/2000/svg">
<path d="M4.625 14.9659H10.375L11.2083 11.6326H3.79167L4.625 14.9659ZM4.625 16.6326C4.23611 16.6326 3.89583 16.5145 3.60417 16.2784C3.3125 16.0423 3.11806 15.7367 3.02083 15.3617L2.08333 11.6326H12.9167L11.9792 15.3617C11.8819 15.7367 11.6875 16.0423 11.3958 16.2784C11.1042 16.5145 10.7639 16.6326 10.375 16.6326H4.625ZM1.66667 9.96591H13.3333V8.29924H1.66667V9.96591ZM3.125 0.00757576C4.36111 0.160354 5.39944 0.705354 6.24 1.64258C7.08 2.58035 7.5 3.68813 7.5 4.96591C7.5 3.68813 7.92 2.58035 8.76 1.64258C9.60056 0.705354 10.6389 0.160354 11.875 0.00757576C12.0417 -0.020202 12.1875 0.0284091 12.3125 0.153409C12.4375 0.278409 12.4861 0.424242 12.4583 0.590909C12.3194 1.68813 11.8681 2.62896 11.1042 3.41341C10.3403 4.19841 9.41667 4.68813 8.33333 4.88258V6.63258H14.1667C14.4028 6.63258 14.6006 6.7123 14.76 6.87174C14.92 7.03174 15 7.2298 15 7.46591V9.96591C15 10.4242 14.8369 10.8165 14.5108 11.1426C14.1842 11.4692 13.7917 11.6326 13.3333 11.6326H1.66667C1.20833 11.6326 0.815833 11.4692 0.489167 11.1426C0.163055 10.8165 0 10.4242 0 9.96591V7.46591C0 7.2298 0.0800001 7.03174 0.24 6.87174C0.399445 6.7123 0.597222 6.63258 0.833333 6.63258H6.66667V4.88258C5.58333 4.68813 4.65972 4.19841 3.89583 3.41341C3.13194 2.62896 2.68056 1.68813 2.54167 0.590909C2.51389 0.424242 2.5625 0.278409 2.6875 0.153409C2.8125 0.0284091 2.95833 -0.020202 3.125 0.00757576Z" fill="#0DB659"/>
<path d="M4.625 14.9659H10.375L11.2083 11.6326H3.79167L4.625 14.9659ZM4.625 16.6326C4.23611 16.6326 3.89583 16.5145 3.60417 16.2784C3.3125 16.0423 3.11806 15.7367 3.02083 15.3617L2.08333 11.6326H12.9167L11.9792 15.3617C11.8819 15.7367 11.6875 16.0423 11.3958 16.2784C11.1042 16.5145 10.7639 16.6326 10.375 16.6326H4.625ZM1.66667 9.96591H13.3333V8.29924H1.66667V9.96591ZM3.125 0.00757576C4.36111 0.160354 5.39944 0.705354 6.24 1.64258C7.08 2.58035 7.5 3.68813 7.5 4.96591C7.5 3.68813 7.92 2.58035 8.76 1.64258C9.60056 0.705354 10.6389 0.160354 11.875 0.00757576C12.0417 -0.020202 12.1875 0.0284091 12.3125 0.153409C12.4375 0.278409 12.4861 0.424242 12.4583 0.590909C12.3194 1.68813 11.8681 2.62896 11.1042 3.41341C10.3403 4.19841 9.41667 4.68813 8.33333 4.88258V6.63258H14.1667C14.4028 6.63258 14.6006 6.7123 14.76 6.87174C14.92 7.03174 15 7.2298 15 7.46591V9.96591C15 10.4242 14.8369 10.8165 14.5108 11.1426C14.1842 11.4692 13.7917 11.6326 13.3333 11.6326H1.66667C1.20833 11.6326 0.815833 11.4692 0.489167 11.1426C0.163055 10.8165 0 10.4242 0 9.96591V7.46591C0 7.2298 0.0800001 7.03174 0.24 6.87174C0.399445 6.7123 0.597222 6.63258 0.833333 6.63258H6.66667V4.88258C5.58333 4.68813 4.65972 4.19841 3.89583 3.41341C3.13194 2.62896 2.68056 1.68813 2.54167 0.590909C2.51389 0.424242 2.5625 0.278409 2.6875 0.153409C2.8125 0.0284091 2.95833 -0.020202 3.125 0.00757576Z" fill="black" fill-opacity="0.4"/>
</svg>
