<svg viewBox="0 0 20 20" fill="none" xmlns="http://www.w3.org/2000/svg">
<g clip-path="url(#clip0_1582_2098)">
<path d="M17.5001 10.1833C17.5001 5.60833 13.9501 2.5 10.0001 2.5C6.09175 2.5 2.50008 5.54167 2.50008 10.2333C2.00008 10.5167 1.66675 11.05 1.66675 11.6667V13.3333C1.66675 14.25 2.41675 15 3.33341 15C3.79175 15 4.16675 14.625 4.16675 14.1667V10.1583C4.16675 6.96667 6.62508 4.175 9.81675 4.08333C13.1167 3.98333 15.8334 6.63333 15.8334 9.91667V15.8333H10.0001C9.54175 15.8333 9.16675 16.2083 9.16675 16.6667C9.16675 17.125 9.54175 17.5 10.0001 17.5H15.8334C16.7501 17.5 17.5001 16.75 17.5001 15.8333V14.8167C17.9917 14.5583 18.3334 14.05 18.3334 13.45V11.5333C18.3334 10.95 17.9917 10.4417 17.5001 10.1833Z" fill="#0DB659"/>
<path d="M17.5001 10.1833C17.5001 5.60833 13.9501 2.5 10.0001 2.5C6.09175 2.5 2.50008 5.54167 2.50008 10.2333C2.00008 10.5167 1.66675 11.05 1.66675 11.6667V13.3333C1.66675 14.25 2.41675 15 3.33341 15C3.79175 15 4.16675 14.625 4.16675 14.1667V10.1583C4.16675 6.96667 6.62508 4.175 9.81675 4.08333C13.1167 3.98333 15.8334 6.63333 15.8334 9.91667V15.8333H10.0001C9.54175 15.8333 9.16675 16.2083 9.16675 16.6667C9.16675 17.125 9.54175 17.5 10.0001 17.5H15.8334C16.7501 17.5 17.5001 16.75 17.5001 15.8333V14.8167C17.9917 14.5583 18.3334 14.05 18.3334 13.45V11.5333C18.3334 10.95 17.9917 10.4417 17.5001 10.1833Z" fill="black" fill-opacity="0.4"/>
<path d="M7.50008 11.6667C7.96032 11.6667 8.33341 11.2936 8.33341 10.8333C8.33341 10.3731 7.96032 10 7.50008 10C7.03984 10 6.66675 10.3731 6.66675 10.8333C6.66675 11.2936 7.03984 11.6667 7.50008 11.6667Z" fill="#0DB659"/>
<path d="M7.50008 11.6667C7.96032 11.6667 8.33341 11.2936 8.33341 10.8333C8.33341 10.3731 7.96032 10 7.50008 10C7.03984 10 6.66675 10.3731 6.66675 10.8333C6.66675 11.2936 7.03984 11.6667 7.50008 11.6667Z" fill="black" fill-opacity="0.4"/>
<path d="M12.5001 11.6667C12.9603 11.6667 13.3334 11.2936 13.3334 10.8333C13.3334 10.3731 12.9603 10 12.5001 10C12.0398 10 11.6667 10.3731 11.6667 10.8333C11.6667 11.2936 12.0398 11.6667 12.5001 11.6667Z" fill="#0DB659"/>
<path d="M12.5001 11.6667C12.9603 11.6667 13.3334 11.2936 13.3334 10.8333C13.3334 10.3731 12.9603 10 12.5001 10C12.0398 10 11.6667 10.3731 11.6667 10.8333C11.6667 11.2936 12.0398 11.6667 12.5001 11.6667Z" fill="black" fill-opacity="0.4"/>
<path d="M15.0001 9.19167C14.6001 6.81667 12.5335 5 10.0418 5C7.5168 5 4.80014 7.09167 5.0168 10.375C7.07514 9.53333 8.62514 7.7 9.0668 5.46667C10.1585 7.65833 12.4001 9.16667 15.0001 9.19167Z" fill="#0DB659"/>
<path d="M15.0001 9.19167C14.6001 6.81667 12.5335 5 10.0418 5C7.5168 5 4.80014 7.09167 5.0168 10.375C7.07514 9.53333 8.62514 7.7 9.0668 5.46667C10.1585 7.65833 12.4001 9.16667 15.0001 9.19167Z" fill="black" fill-opacity="0.4"/>
</g>
<defs>
<clipPath id="clip0_1582_2098">
<rect width="20" height="20" fill="white"/>
</clipPath>
</defs>
</svg>
