<svg viewBox="0 0 20 20" fill="none" xmlns="http://www.w3.org/2000/svg">
<path d="M10.0001 18.3332C8.8473 18.3332 7.76397 18.1143 6.75008 17.6765C5.73619 17.2393 4.85425 16.6457 4.10425 15.8957C3.35425 15.1457 2.76064 14.2637 2.32341 13.2498C1.88564 12.2359 1.66675 11.1526 1.66675 9.99984C1.66675 8.84706 1.88564 7.76373 2.32341 6.74984C2.76064 5.73595 3.35425 4.854 4.10425 4.104C4.85425 3.354 5.73619 2.76011 6.75008 2.32234C7.76397 1.88511 8.8473 1.6665 10.0001 1.6665C11.1529 1.6665 12.2362 1.88511 13.2501 2.32234C14.264 2.76011 15.1459 3.354 15.8959 4.104C16.6459 4.854 17.2395 5.73595 17.6767 6.74984C18.1145 7.76373 18.3334 8.84706 18.3334 9.99984C18.3334 11.1526 18.1145 12.2359 17.6767 13.2498C17.2395 14.2637 16.6459 15.1457 15.8959 15.8957C15.1459 16.6457 14.264 17.2393 13.2501 17.6765C12.2362 18.1143 11.1529 18.3332 10.0001 18.3332ZM14.1667 7.9165L15.2917 7.5415L15.6251 6.4165C15.1806 5.74984 14.6459 5.17678 14.0209 4.69734C13.3959 4.21845 12.7084 3.86095 11.9584 3.62484L10.8334 4.4165V5.58317L14.1667 7.9165ZM5.83341 7.9165L9.16675 5.58317V4.4165L8.04175 3.62484C7.29175 3.86095 6.60425 4.21845 5.97925 4.69734C5.35425 5.17678 4.81953 5.74984 4.37508 6.4165L4.70841 7.5415L5.83341 7.9165ZM4.95841 14.3332L5.91675 14.2498L6.54175 13.1248L5.33341 9.49984L4.16675 9.08317L3.33341 9.70817C3.33341 10.6109 3.45841 11.4337 3.70841 12.1765C3.95841 12.9198 4.37508 13.6387 4.95841 14.3332ZM10.0001 16.6665C10.3612 16.6665 10.7154 16.6387 11.0626 16.5832C11.4098 16.5276 11.7501 16.4443 12.0834 16.3332L12.6667 15.0832L12.1251 14.1665H7.87508L7.33341 15.0832L7.91675 16.3332C8.25008 16.4443 8.59036 16.5276 8.93758 16.5832C9.2848 16.6387 9.63897 16.6665 10.0001 16.6665ZM8.12508 12.4998H11.8751L13.0417 9.1665L10.0001 7.0415L7.00008 9.1665L8.12508 12.4998ZM15.0417 14.3332C15.6251 13.6387 16.0417 12.9198 16.2917 12.1765C16.5417 11.4337 16.6667 10.6109 16.6667 9.70817L15.8334 9.12484L14.6667 9.49984L13.4584 13.1248L14.0834 14.2498L15.0417 14.3332Z" fill="#0DB659"/>
<path d="M10.0001 18.3332C8.8473 18.3332 7.76397 18.1143 6.75008 17.6765C5.73619 17.2393 4.85425 16.6457 4.10425 15.8957C3.35425 15.1457 2.76064 14.2637 2.32341 13.2498C1.88564 12.2359 1.66675 11.1526 1.66675 9.99984C1.66675 8.84706 1.88564 7.76373 2.32341 6.74984C2.76064 5.73595 3.35425 4.854 4.10425 4.104C4.85425 3.354 5.73619 2.76011 6.75008 2.32234C7.76397 1.88511 8.8473 1.6665 10.0001 1.6665C11.1529 1.6665 12.2362 1.88511 13.2501 2.32234C14.264 2.76011 15.1459 3.354 15.8959 4.104C16.6459 4.854 17.2395 5.73595 17.6767 6.74984C18.1145 7.76373 18.3334 8.84706 18.3334 9.99984C18.3334 11.1526 18.1145 12.2359 17.6767 13.2498C17.2395 14.2637 16.6459 15.1457 15.8959 15.8957C15.1459 16.6457 14.264 17.2393 13.2501 17.6765C12.2362 18.1143 11.1529 18.3332 10.0001 18.3332ZM14.1667 7.9165L15.2917 7.5415L15.6251 6.4165C15.1806 5.74984 14.6459 5.17678 14.0209 4.69734C13.3959 4.21845 12.7084 3.86095 11.9584 3.62484L10.8334 4.4165V5.58317L14.1667 7.9165ZM5.83341 7.9165L9.16675 5.58317V4.4165L8.04175 3.62484C7.29175 3.86095 6.60425 4.21845 5.97925 4.69734C5.35425 5.17678 4.81953 5.74984 4.37508 6.4165L4.70841 7.5415L5.83341 7.9165ZM4.95841 14.3332L5.91675 14.2498L6.54175 13.1248L5.33341 9.49984L4.16675 9.08317L3.33341 9.70817C3.33341 10.6109 3.45841 11.4337 3.70841 12.1765C3.95841 12.9198 4.37508 13.6387 4.95841 14.3332ZM10.0001 16.6665C10.3612 16.6665 10.7154 16.6387 11.0626 16.5832C11.4098 16.5276 11.7501 16.4443 12.0834 16.3332L12.6667 15.0832L12.1251 14.1665H7.87508L7.33341 15.0832L7.91675 16.3332C8.25008 16.4443 8.59036 16.5276 8.93758 16.5832C9.2848 16.6387 9.63897 16.6665 10.0001 16.6665ZM8.12508 12.4998H11.8751L13.0417 9.1665L10.0001 7.0415L7.00008 9.1665L8.12508 12.4998ZM15.0417 14.3332C15.6251 13.6387 16.0417 12.9198 16.2917 12.1765C16.5417 11.4337 16.6667 10.6109 16.6667 9.70817L15.8334 9.12484L14.6667 9.49984L13.4584 13.1248L14.0834 14.2498L15.0417 14.3332Z" fill="black" fill-opacity="0.4"/>
</svg>
