<svg width="91" height="90" viewBox="0 0 91 90" fill="none" xmlns="http://www.w3.org/2000/svg">
<path d="M72.0559 11.3735C74.0085 9.4209 77.1746 9.42092 79.1272 11.3735C81.0794 13.3261 81.0794 16.4913 79.1272 18.4438L52.5706 44.9995L79.1272 71.5562C81.0794 73.5088 81.0796 76.674 79.1272 78.6265C77.1747 80.5789 74.0095 80.5787 72.0569 78.6265L45.5002 52.0698L18.9446 78.6265C16.992 80.5789 13.8268 80.5789 11.8743 78.6265C9.92171 76.6739 9.92182 73.5088 11.8743 71.5562L38.4299 44.9995L11.8743 18.4438C9.922 16.4913 9.922 13.3261 11.8743 11.3735C13.8269 9.42104 16.993 9.42094 18.9456 11.3735L45.5002 37.9282L72.0559 11.3735Z" fill="#FFC251"/>
</svg>
