<svg width="91" height="90" viewBox="0 0 91 90" fill="none" xmlns="http://www.w3.org/2000/svg">
<path d="M45.5 22.4623L73.7375 71.2498H17.2625L45.5 22.4623ZM10.775 67.4998C7.88753 72.4873 11.4875 78.7498 17.2625 78.7498H73.7375C79.5125 78.7498 83.1125 72.4873 80.225 67.4998L51.9875 18.7123C49.1 13.7248 41.9 13.7248 39.0125 18.7123L10.775 67.4998ZM41.75 40.0656L41.75 51.9075C41.75 53.97 43.4375 55.6575 45.5 55.6575C47.5625 55.6575 49.25 53.97 49.25 51.9075L49.25 40.0656C49.25 38.0031 47.5625 36.3156 45.5 36.3156C43.4375 36.3156 41.75 38.0031 41.75 40.0656ZM41.75 62.5656C41.75 60.4945 43.429 58.8156 45.5 58.8156C47.5711 58.8156 49.25 60.4945 49.25 62.5656C49.25 64.6367 47.5711 66.3156 45.5 66.3156C43.429 66.3156 41.75 64.6367 41.75 62.5656Z" fill="#FFC251"/>
</svg>
