<svg viewBox="0 0 171 43" fill="currentColor" xmlns="http://www.w3.org/2000/svg">
<path d="M157.542 20.5546L153.819 25.1956C150.629 23.0685 142.99 16.5904 141.782 15.6235C141.153 16.5904 136.706 24.2771 135.69 25.9208L129.937 23.5519C131.823 19.9261 140.525 4.98775 143.135 0.15332L149.178 2.71556C148.405 4.11755 145.746 8.7586 144.827 10.4023C146.519 11.7076 154.98 18.6692 157.542 20.5546ZM154.448 14.6566L154.206 9.43542H163.585C163.633 7.54999 163.537 3.6341 163.295 1.1202L169.58 0.443385C170.45 4.31093 170.595 20.748 169.918 24.9056L163.44 24.8572C163.633 22.4884 163.923 18.3791 163.73 14.8016L154.448 14.6566ZM162.473 33.3175C161.023 33.0758 135.449 33.1724 132.161 33.4142L131.436 27.9513C134.385 27.5162 161.119 27.5645 164.939 27.8546C168.468 28.048 169.821 29.0632 170.015 32.4473C170.16 35.638 169.966 39.2638 169.821 41.536H163.585C163.633 38.6837 163.682 36.3632 163.682 35.1062C163.585 33.4142 163.73 33.4625 162.473 33.3175Z" fill="white"/>
<path d="M125.181 5.71267C125.616 8.32326 125.713 20.0709 125.181 22.8749H118.993C119.138 19.6358 119.428 12.2391 118.993 9.58021C118.461 6.7279 118.461 6.67956 115.415 6.67956C112.901 6.67956 95.449 6.63121 89.7927 6.96962L88.9709 1.11997C93.902 0.829902 114.4 0.588182 117.977 0.829903C122.957 0.92659 124.601 1.99016 125.181 5.71267ZM111.258 30.1749V42.3093L104.924 42.1159L104.828 30.1749C101.299 30.1749 90.2278 29.8848 87.7139 29.5947L88.1007 24.3252C91.6298 24.7603 119.041 24.8087 127.163 24.3736L127.598 29.6431C124.311 29.9331 113.675 30.1749 111.258 30.1749Z" fill="white"/>
<path d="M70.4845 20.5546L66.762 25.1956C63.5713 23.0685 55.9329 16.5904 54.7243 15.6235C54.0958 16.5904 49.6481 24.2771 48.6329 25.9208L42.8799 23.5519C44.7653 19.9261 53.4673 4.98775 56.0779 0.15332L62.1209 2.71556C61.3474 4.11755 58.6885 8.7586 57.7699 10.4023C59.462 11.7076 67.9222 18.6692 70.4845 20.5546ZM67.3904 14.6566L67.1487 9.43542H76.5275C76.5759 7.54999 76.4792 3.6341 76.2374 1.1202L82.5222 0.443385C83.3924 4.31093 83.5374 20.748 82.8606 24.9056L76.3825 24.8572C76.5759 22.4884 76.8659 18.3791 76.6725 14.8016L67.3904 14.6566ZM75.4156 33.3175C73.9653 33.0758 48.3912 33.1724 45.1037 33.4142L44.3786 27.9513C47.3276 27.5162 74.062 27.5645 77.8811 27.8546C81.4103 28.048 82.7639 29.0632 82.9573 32.4473C83.1023 35.638 82.909 39.2638 82.7639 41.536H76.5275C76.5759 38.6837 76.6242 36.3632 76.6242 35.1062C76.5275 33.4142 76.6725 33.4625 75.4156 33.3175Z" fill="white"/>
<path d="M38.1234 5.71267C38.5584 8.32326 38.6551 20.0709 38.1234 22.8749H31.9353C32.0803 19.6358 32.3704 12.2391 31.9353 9.58021C31.4035 6.7279 31.4035 6.67956 28.3578 6.67956C25.8439 6.67956 8.39164 6.63121 2.73536 6.96962L1.91351 1.11997C6.84462 0.829902 27.3426 0.588182 30.9201 0.829903C35.8995 0.92659 37.5432 1.99016 38.1234 5.71267ZM24.2002 30.1749V42.3093L17.8671 42.1159L17.7704 30.1749C14.2413 30.1749 3.17046 29.8848 0.656555 29.5947L1.04331 24.3252C4.57244 24.7603 31.9836 24.8087 40.1055 24.3736L40.5406 29.6431C37.2532 29.9331 26.6174 30.1749 24.2002 30.1749Z" fill="white"/>
</svg>
