<svg viewBox="0 0 25 25" fill="none" xmlns="http://www.w3.org/2000/svg">
<path d="M5.50018 20.2998C5.50018 20.8498 5.95018 21.2998 6.50018 21.2998H18.5002C19.0502 21.2998 19.5002 20.8498 19.5002 20.2998C19.5002 19.7498 19.0502 19.2998 18.5002 19.2998H6.50018C5.95018 19.2998 5.50018 19.7498 5.50018 20.2998Z" fill="#0DB659"/>
<path d="M5.50018 20.2998C5.50018 20.8498 5.95018 21.2998 6.50018 21.2998H18.5002C19.0502 21.2998 19.5002 20.8498 19.5002 20.2998C19.5002 19.7498 19.0502 19.2998 18.5002 19.2998H6.50018C5.95018 19.2998 5.50018 19.7498 5.50018 20.2998Z" fill="black" fill-opacity="0.4"/>
<path d="M10.5049 5.2998V10.2998C10.5049 10.8521 10.0572 11.2998 9.50493 11.2998H7.91509C7.91466 11.3007 7.91355 11.3017 7.91314 11.3027H7.91216L12.5001 15.8906L17.0909 11.2998H15.5049C14.9528 11.2997 14.5049 10.852 14.5049 10.2998V5.2998H10.5049ZM16.5049 9.2998H17.0948C18.8924 9.2998 19.7501 11.4687 18.502 12.7168L13.9122 17.3066C13.1316 18.0872 11.8685 18.0872 11.0879 17.3066L6.4981 12.7168C5.23496 11.4536 6.13891 9.29989 7.91509 9.2998H8.50493V5.2998C8.50493 4.19761 9.40277 3.29995 10.5049 3.2998H14.5049C15.6072 3.2998 16.5049 4.19752 16.5049 5.2998V9.2998Z" fill="#0DB659"/>
<path d="M10.5049 5.2998V10.2998C10.5049 10.8521 10.0572 11.2998 9.50493 11.2998H7.91509C7.91466 11.3007 7.91355 11.3017 7.91314 11.3027H7.91216L12.5001 15.8906L17.0909 11.2998H15.5049C14.9528 11.2997 14.5049 10.852 14.5049 10.2998V5.2998H10.5049ZM16.5049 9.2998H17.0948C18.8924 9.2998 19.7501 11.4687 18.502 12.7168L13.9122 17.3066C13.1316 18.0872 11.8685 18.0872 11.0879 17.3066L6.4981 12.7168C5.23496 11.4536 6.13891 9.29989 7.91509 9.2998H8.50493V5.2998C8.50493 4.19761 9.40277 3.29995 10.5049 3.2998H14.5049C15.6072 3.2998 16.5049 4.19752 16.5049 5.2998V9.2998Z" fill="black" fill-opacity="0.4"/>
</svg>
