<svg width="19" height="19" viewBox="0 0 19 19" fill="none" xmlns="http://www.w3.org/2000/svg">
<rect x="3.50018" y="3.2998" width="12" height="12" rx="6" fill="#FFC251"/>
<path d="M9.48456 12.3779C8.24237 12.3779 7.35175 11.6904 7.32831 10.7061H8.51581C8.53925 11.1279 8.9455 11.4092 9.49237 11.4092C10.0549 11.4092 10.4611 11.0889 10.4533 10.6357C10.4611 10.1748 10.0471 9.84668 9.383 9.84668H8.85956V8.97949H9.383C9.93768 8.97949 10.3283 8.6748 10.3283 8.22949C10.3283 7.7998 10.0002 7.50293 9.50018 7.50293C9.00018 7.50293 8.58612 7.78418 8.5705 8.21387H7.4455C7.46112 7.2373 8.34393 6.56543 9.50018 6.56543C10.6799 6.56543 11.4689 7.26074 11.4611 8.15918C11.4689 8.79199 11.0236 9.24512 10.3908 9.35449V9.40137C11.2189 9.50293 11.6799 10.0107 11.6721 10.7139C11.6799 11.6826 10.758 12.3779 9.48456 12.3779Z" fill="white"/>
</svg>
