<svg width="25" height="25" viewBox="0 0 25 25" fill="none" xmlns="http://www.w3.org/2000/svg">
<path d="M3.50018 6.7998C3.21685 6.7998 2.97952 6.70414 2.78818 6.5128C2.59618 6.3208 2.50018 6.08314 2.50018 5.7998V2.7998C2.50018 2.51647 2.59618 2.2788 2.78818 2.0868C2.97952 1.89547 3.21685 1.7998 3.50018 1.7998H6.50018C6.78352 1.7998 7.02118 1.89547 7.21318 2.0868C7.40452 2.2788 7.50018 2.51647 7.50018 2.7998C7.50018 3.08314 7.40452 3.32047 7.21318 3.5118C7.02118 3.7038 6.78352 3.7998 6.50018 3.7998H4.50018V5.7998C4.50018 6.08314 4.40452 6.3208 4.21318 6.5128C4.02118 6.70414 3.78352 6.7998 3.50018 6.7998ZM21.5002 6.7998C21.2169 6.7998 20.9795 6.70414 20.7882 6.5128C20.5962 6.3208 20.5002 6.08314 20.5002 5.7998V3.7998H18.5002C18.2168 3.7998 17.9795 3.7038 17.7882 3.5118C17.5962 3.32047 17.5002 3.08314 17.5002 2.7998C17.5002 2.51647 17.5962 2.2788 17.7882 2.0868C17.9795 1.89547 18.2168 1.7998 18.5002 1.7998H21.5002C21.7835 1.7998 22.0208 1.89547 22.2122 2.0868C22.4042 2.2788 22.5002 2.51647 22.5002 2.7998V5.7998C22.5002 6.08314 22.4042 6.3208 22.2122 6.5128C22.0208 6.70414 21.7835 6.7998 21.5002 6.7998ZM3.50018 23.7998C3.21685 23.7998 2.97952 23.7038 2.78818 23.5118C2.59618 23.3205 2.50018 23.0831 2.50018 22.7998V19.7998C2.50018 19.5165 2.59618 19.2791 2.78818 19.0878C2.97952 18.8958 3.21685 18.7998 3.50018 18.7998C3.78352 18.7998 4.02118 18.8958 4.21318 19.0878C4.40452 19.2791 4.50018 19.5165 4.50018 19.7998V21.7998H6.50018C6.78352 21.7998 7.02118 21.8958 7.21318 22.0878C7.40452 22.2791 7.50018 22.5165 7.50018 22.7998C7.50018 23.0831 7.40452 23.3205 7.21318 23.5118C7.02118 23.7038 6.78352 23.7998 6.50018 23.7998H3.50018ZM18.5002 23.7998C18.2168 23.7998 17.9795 23.7038 17.7882 23.5118C17.5962 23.3205 17.5002 23.0831 17.5002 22.7998C17.5002 22.5165 17.5962 22.2791 17.7882 22.0878C17.9795 21.8958 18.2168 21.7998 18.5002 21.7998H20.5002V19.7998C20.5002 19.5165 20.5962 19.2791 20.7882 19.0878C20.9795 18.8958 21.2169 18.7998 21.5002 18.7998C21.7835 18.7998 22.0208 18.8958 22.2122 19.0878C22.4042 19.2791 22.5002 19.5165 22.5002 19.7998V22.7998C22.5002 23.0831 22.4042 23.3205 22.2122 23.5118C22.0208 23.7038 21.7835 23.7998 21.5002 23.7998H18.5002ZM7.50018 18.7998H17.5002V6.7998H7.50018V18.7998ZM7.50018 20.7998C6.95018 20.7998 6.47952 20.6041 6.08818 20.2128C5.69618 19.8208 5.50018 19.3498 5.50018 18.7998V6.7998C5.50018 6.2498 5.69618 5.77914 6.08818 5.3878C6.47952 4.9958 6.95018 4.7998 7.50018 4.7998H17.5002C18.0502 4.7998 18.5212 4.9958 18.9132 5.3878C19.3045 5.77914 19.5002 6.2498 19.5002 6.7998V18.7998C19.5002 19.3498 19.3045 19.8208 18.9132 20.2128C18.5212 20.6041 18.0502 20.7998 17.5002 20.7998H7.50018ZM10.5002 10.7998H14.5002C14.7835 10.7998 15.0212 10.7038 15.2132 10.5118C15.4045 10.3205 15.5002 10.0831 15.5002 9.7998C15.5002 9.51647 15.4045 9.2788 15.2132 9.0868C15.0212 8.89547 14.7835 8.7998 14.5002 8.7998H10.5002C10.2168 8.7998 9.97952 8.89547 9.78818 9.0868C9.59618 9.2788 9.50018 9.51647 9.50018 9.7998C9.50018 10.0831 9.59618 10.3205 9.78818 10.5118C9.97952 10.7038 10.2168 10.7998 10.5002 10.7998ZM10.5002 13.7998H14.5002C14.7835 13.7998 15.0212 13.7038 15.2132 13.5118C15.4045 13.3205 15.5002 13.0831 15.5002 12.7998C15.5002 12.5165 15.4045 12.2788 15.2132 12.0868C15.0212 11.8955 14.7835 11.7998 14.5002 11.7998H10.5002C10.2168 11.7998 9.97952 11.8955 9.78818 12.0868C9.59618 12.2788 9.50018 12.5165 9.50018 12.7998C9.50018 13.0831 9.59618 13.3205 9.78818 13.5118C9.97952 13.7038 10.2168 13.7998 10.5002 13.7998ZM10.5002 16.7998H14.5002C14.7835 16.7998 15.0212 16.7038 15.2132 16.5118C15.4045 16.3205 15.5002 16.0831 15.5002 15.7998C15.5002 15.5165 15.4045 15.2788 15.2132 15.0868C15.0212 14.8955 14.7835 14.7998 14.5002 14.7998H10.5002C10.2168 14.7998 9.97952 14.8955 9.78818 15.0868C9.59618 15.2788 9.50018 15.5165 9.50018 15.7998C9.50018 16.0831 9.59618 16.3205 9.78818 16.5118C9.97952 16.7038 10.2168 16.7998 10.5002 16.7998Z" fill="#FFC251"/>
</svg>
