<svg viewBox="0 0 70 61" fill="none" xmlns="http://www.w3.org/2000/svg">
<path d="M37.9375 33.4316L31.25 31.0879L25.4375 33.3379C25.0208 33.5046 24.6354 33.4575 24.2812 33.1966C23.9271 32.9366 23.75 32.5879 23.75 32.1504V14.6504C23.75 14.3795 23.8283 14.14 23.985 13.9316C24.1408 13.7233 24.3542 13.567 24.625 13.4629L30.4375 11.4941C30.7083 11.4108 30.9792 11.3637 31.25 11.3529C31.5208 11.3429 31.7917 11.39 32.0625 11.4941L38.75 13.8379L44.5625 11.5879C44.9792 11.4212 45.3646 11.4679 45.7188 11.7279C46.0729 11.9887 46.25 12.3379 46.25 12.7754V30.2754C46.25 30.5462 46.1717 30.7858 46.015 30.9941C45.8592 31.2025 45.6458 31.3587 45.375 31.4629L39.5625 33.4316C39.2917 33.515 39.0208 33.5616 38.75 33.5716C38.4792 33.5825 38.2083 33.5358 37.9375 33.4316ZM37.5 30.6504V16.0254L32.5 14.2754V28.9004L37.5 30.6504ZM40 30.6504L43.75 29.4004V14.5879L40 16.0254V30.6504ZM26.25 30.3379L30 28.9004V14.2754L26.25 15.5254V30.3379Z" fill="#F3F3F1"/>
<path d="M37.9375 33.4316L31.25 31.0879L25.4375 33.3379C25.0208 33.5046 24.6354 33.4575 24.2812 33.1966C23.9271 32.9366 23.75 32.5879 23.75 32.1504V14.6504C23.75 14.3795 23.8283 14.14 23.985 13.9316C24.1408 13.7233 24.3542 13.567 24.625 13.4629L30.4375 11.4941C30.7083 11.4108 30.9792 11.3637 31.25 11.3529C31.5208 11.3429 31.7917 11.39 32.0625 11.4941L38.75 13.8379L44.5625 11.5879C44.9792 11.4212 45.3646 11.4679 45.7188 11.7279C46.0729 11.9887 46.25 12.3379 46.25 12.7754V30.2754C46.25 30.5462 46.1717 30.7858 46.015 30.9941C45.8592 31.2025 45.6458 31.3587 45.375 31.4629L39.5625 33.4316C39.2917 33.515 39.0208 33.5616 38.75 33.5716C38.4792 33.5825 38.2083 33.5358 37.9375 33.4316ZM37.5 30.6504V16.0254L32.5 14.2754V28.9004L37.5 30.6504ZM40 30.6504L43.75 29.4004V14.5879L40 16.0254V30.6504ZM26.25 30.3379L30 28.9004V14.2754L26.25 15.5254V30.3379Z" fill="black" fill-opacity="0.15"/>
<path d="M20.8734 44.8965C20.8734 46.332 21.6059 47.8652 23.1 48.4902L22.4262 49.4668C21.3764 49.0225 20.6537 48.1387 20.2582 47.0547C19.8529 48.2314 19.1156 49.208 18.0707 49.6914L17.3578 48.7051C18.8324 48.0508 19.5941 46.4004 19.5941 44.8965V44.3496H17.7094V43.334H22.7289V44.3496H20.8734V44.8965ZM24.8676 42.4746V51.3613H23.6078V42.4746H24.8676ZM33.259 48.1289V51.3613H32.0187V49.1055H27.1555V48.1289H33.259ZM33.259 42.4746V47.7285H32.0187V46.6055H30.0266C29.6018 47.0645 28.9719 47.3379 28.2492 47.3379C26.9016 47.3379 25.8762 46.4102 25.8859 45.1211C25.8762 43.8613 26.9016 42.9434 28.2492 42.9531C28.9719 42.9482 29.6018 43.2168 30.0266 43.666H32.0187V42.4746H33.259ZM28.2492 43.998C27.5559 43.998 27.0578 44.4277 27.0676 45.1211C27.0578 45.8535 27.5559 46.2734 28.2492 46.2734C28.9035 46.2734 29.4113 45.8535 29.4113 45.1211C29.4113 44.4277 28.9035 43.998 28.2492 43.998ZM30.5441 45.6094H32.0187V44.6719H30.5539C30.5783 44.8135 30.593 44.9648 30.593 45.1211C30.593 45.292 30.5734 45.4531 30.5441 45.6094ZM44.241 47.0352V48.0117H40.8914V49.4473H39.6609V48.0117H36.1063V47.0352H44.241ZM43.3426 50.209V51.2051H37.0633V48.7441H38.2938V50.209H43.3426ZM38.3816 42.7578V43.6855H41.9461V42.7578H43.1863V46.4102H37.1512V42.7578H38.3816ZM38.3816 45.4238H41.9461V44.6133H38.3816V45.4238ZM47.7887 43.8613C47.7789 44.9648 48.4039 46.0391 49.8102 46.4883L49.1461 47.4746C48.1891 47.1523 47.5396 46.5127 47.1637 45.707C46.7682 46.5859 46.0797 47.2744 45.0738 47.6309L44.4 46.6348C45.8844 46.1562 46.5191 44.9941 46.5289 43.7832V42.9336H47.7887V43.8613ZM51.9488 48.168V51.3613H50.7086V49.1543H45.8453V48.168H51.9488ZM51.9488 42.4746V47.7676H50.7086V45.1504H49.0387V44.125H50.7086V42.4746H51.9488Z" fill="#F3F3F1"/>
<path d="M20.8734 44.8965C20.8734 46.332 21.6059 47.8652 23.1 48.4902L22.4262 49.4668C21.3764 49.0225 20.6537 48.1387 20.2582 47.0547C19.8529 48.2314 19.1156 49.208 18.0707 49.6914L17.3578 48.7051C18.8324 48.0508 19.5941 46.4004 19.5941 44.8965V44.3496H17.7094V43.334H22.7289V44.3496H20.8734V44.8965ZM24.8676 42.4746V51.3613H23.6078V42.4746H24.8676ZM33.259 48.1289V51.3613H32.0187V49.1055H27.1555V48.1289H33.259ZM33.259 42.4746V47.7285H32.0187V46.6055H30.0266C29.6018 47.0645 28.9719 47.3379 28.2492 47.3379C26.9016 47.3379 25.8762 46.4102 25.8859 45.1211C25.8762 43.8613 26.9016 42.9434 28.2492 42.9531C28.9719 42.9482 29.6018 43.2168 30.0266 43.666H32.0187V42.4746H33.259ZM28.2492 43.998C27.5559 43.998 27.0578 44.4277 27.0676 45.1211C27.0578 45.8535 27.5559 46.2734 28.2492 46.2734C28.9035 46.2734 29.4113 45.8535 29.4113 45.1211C29.4113 44.4277 28.9035 43.998 28.2492 43.998ZM30.5441 45.6094H32.0187V44.6719H30.5539C30.5783 44.8135 30.593 44.9648 30.593 45.1211C30.593 45.292 30.5734 45.4531 30.5441 45.6094ZM44.241 47.0352V48.0117H40.8914V49.4473H39.6609V48.0117H36.1063V47.0352H44.241ZM43.3426 50.209V51.2051H37.0633V48.7441H38.2938V50.209H43.3426ZM38.3816 42.7578V43.6855H41.9461V42.7578H43.1863V46.4102H37.1512V42.7578H38.3816ZM38.3816 45.4238H41.9461V44.6133H38.3816V45.4238ZM47.7887 43.8613C47.7789 44.9648 48.4039 46.0391 49.8102 46.4883L49.1461 47.4746C48.1891 47.1523 47.5396 46.5127 47.1637 45.707C46.7682 46.5859 46.0797 47.2744 45.0738 47.6309L44.4 46.6348C45.8844 46.1562 46.5191 44.9941 46.5289 43.7832V42.9336H47.7887V43.8613ZM51.9488 48.168V51.3613H50.7086V49.1543H45.8453V48.168H51.9488ZM51.9488 42.4746V47.7676H50.7086V45.1504H49.0387V44.125H50.7086V42.4746H51.9488Z" fill="black" fill-opacity="0.15"/>
</svg>
