<svg viewBox="0 0 71 61" fill="none" xmlns="http://www.w3.org/2000/svg">
<rect x="0.5" y="0.0888672" width="70" height="60" rx="10" fill="#0DB659" fill-opacity="0.2"/>
<g clip-path="url(#clip0_532_111)">
<path d="M21.75 29.0889C21.3958 29.0889 21.0992 28.9689 20.86 28.7289C20.62 28.4897 20.5 28.193 20.5 27.8389V27.1201C20.5 26.2034 20.9583 25.4689 21.875 24.9164C22.7917 24.3647 24 24.0889 25.5 24.0889C25.7708 24.0889 26.0262 24.0993 26.2662 24.1201C26.5054 24.141 26.7396 24.1722 26.9688 24.2139C26.6771 24.6305 26.4633 25.0785 26.3275 25.5576C26.1925 26.0368 26.125 26.5472 26.125 27.0889V29.0889H21.75ZM29.25 29.0889C28.8958 29.0889 28.5988 28.9689 28.3588 28.7289C28.1196 28.4897 28 28.193 28 27.8389V27.0889C28 25.7347 28.6929 24.6355 30.0788 23.7914C31.4637 22.948 33.2708 22.5264 35.5 22.5264C37.75 22.5264 39.5625 22.948 40.9375 23.7914C42.3125 24.6355 43 25.7347 43 27.0889V27.8389C43 28.193 42.88 28.4897 42.64 28.7289C42.4008 28.9689 42.1042 29.0889 41.75 29.0889H29.25ZM44.875 29.0889V27.0889C44.875 26.5472 44.8021 26.0368 44.6562 25.5576C44.5104 25.0785 44.3021 24.6305 44.0312 24.2139C44.2604 24.1722 44.495 24.141 44.735 24.1201C44.9742 24.0993 45.2292 24.0889 45.5 24.0889C47 24.0889 48.2083 24.3647 49.125 24.9164C50.0417 25.4689 50.5 26.2034 50.5 27.1201V27.8389C50.5 28.193 50.38 28.4897 50.14 28.7289C49.9008 28.9689 49.6042 29.0889 49.25 29.0889H44.875ZM35.5 25.0264C34.3125 25.0264 33.25 25.1876 32.3125 25.5101C31.375 25.8335 30.8229 26.193 30.6562 26.5889H40.3438C40.1562 26.1722 39.5992 25.8076 38.6725 25.4951C37.745 25.1826 36.6875 25.0264 35.5 25.0264ZM25.5 22.8389C24.8125 22.8389 24.2242 22.5939 23.735 22.1039C23.245 21.6147 23 21.0264 23 20.3389C23 19.6514 23.245 19.0626 23.735 18.5726C24.2242 18.0835 24.8125 17.8389 25.5 17.8389C26.1875 17.8389 26.7758 18.0835 27.265 18.5726C27.755 19.0626 28 19.6514 28 20.3389C28 21.0264 27.755 21.6147 27.265 22.1039C26.7758 22.5939 26.1875 22.8389 25.5 22.8389ZM45.5 22.8389C44.8125 22.8389 44.2237 22.5939 43.7337 22.1039C43.2446 21.6147 43 21.0264 43 20.3389C43 19.6514 43.2446 19.0626 43.7337 18.5726C44.2237 18.0835 44.8125 17.8389 45.5 17.8389C46.1875 17.8389 46.7763 18.0835 47.2663 18.5726C47.7554 19.0626 48 19.6514 48 20.3389C48 21.0264 47.7554 21.6147 47.2663 22.1039C46.7763 22.5939 46.1875 22.8389 45.5 22.8389ZM35.5 21.5889C34.4583 21.5889 33.5729 21.2243 32.8438 20.4951C32.1146 19.766 31.75 18.8805 31.75 17.8389C31.75 16.7972 32.1146 15.9118 32.8438 15.1826C33.5729 14.4535 34.4583 14.0889 35.5 14.0889C36.5417 14.0889 37.4271 14.4535 38.1562 15.1826C38.8854 15.9118 39.25 16.7972 39.25 17.8389C39.25 18.8805 38.8854 19.766 38.1562 20.4951C37.4271 21.2243 36.5417 21.5889 35.5 21.5889ZM35.5 16.5889C35.1458 16.5889 34.8492 16.7085 34.61 16.9476C34.37 17.1876 34.25 17.4847 34.25 17.8389C34.25 18.193 34.37 18.4897 34.61 18.7289C34.8492 18.9689 35.1458 19.0889 35.5 19.0889C35.8542 19.0889 36.1513 18.9689 36.3913 18.7289C36.6304 18.4897 36.75 18.193 36.75 17.8389C36.75 17.4847 36.6304 17.1876 36.3913 16.9476C36.1513 16.7085 35.8542 16.5889 35.5 16.5889ZM21.75 29.0889C21.3958 29.0889 21.0992 28.9689 20.86 28.7289C20.62 28.4897 20.5 28.193 20.5 27.8389V27.1201C20.5 26.2034 20.9583 25.4689 21.875 24.9164C22.7917 24.3647 24 24.0889 25.5 24.0889C25.7708 24.0889 26.0262 24.0993 26.2662 24.1201C26.5054 24.141 26.7396 24.1722 26.9688 24.2139C26.6771 24.6305 26.4633 25.0785 26.3275 25.5576C26.1925 26.0368 26.125 26.5472 26.125 27.0889V29.0889H21.75ZM29.25 29.0889C28.8958 29.0889 28.5988 28.9689 28.3588 28.7289C28.1196 28.4897 28 28.193 28 27.8389V27.0889C28 25.7347 28.6929 24.6355 30.0788 23.7914C31.4637 22.948 33.2708 22.5264 35.5 22.5264C37.75 22.5264 39.5625 22.948 40.9375 23.7914C42.3125 24.6355 43 25.7347 43 27.0889V27.8389C43 28.193 42.88 28.4897 42.64 28.7289C42.4008 28.9689 42.1042 29.0889 41.75 29.0889H29.25ZM44.875 29.0889V27.0889C44.875 26.5472 44.8021 26.0368 44.6562 25.5576C44.5104 25.0785 44.3021 24.6305 44.0312 24.2139C44.2604 24.1722 44.495 24.141 44.735 24.1201C44.9742 24.0993 45.2292 24.0889 45.5 24.0889C47 24.0889 48.2083 24.3647 49.125 24.9164C50.0417 25.4689 50.5 26.2034 50.5 27.1201V27.8389C50.5 28.193 50.38 28.4897 50.14 28.7289C49.9008 28.9689 49.6042 29.0889 49.25 29.0889H44.875ZM35.5 25.0264C34.3125 25.0264 33.25 25.1876 32.3125 25.5101C31.375 25.8335 30.8229 26.193 30.6562 26.5889H40.3438C40.1562 26.1722 39.5992 25.8076 38.6725 25.4951C37.745 25.1826 36.6875 25.0264 35.5 25.0264ZM25.5 22.8389C24.8125 22.8389 24.2242 22.5939 23.735 22.1039C23.245 21.6147 23 21.0264 23 20.3389C23 19.6514 23.245 19.0626 23.735 18.5726C24.2242 18.0835 24.8125 17.8389 25.5 17.8389C26.1875 17.8389 26.7758 18.0835 27.265 18.5726C27.755 19.0626 28 19.6514 28 20.3389C28 21.0264 27.755 21.6147 27.265 22.1039C26.7758 22.5939 26.1875 22.8389 25.5 22.8389ZM45.5 22.8389C44.8125 22.8389 44.2237 22.5939 43.7337 22.1039C43.2446 21.6147 43 21.0264 43 20.3389C43 19.6514 43.2446 19.0626 43.7337 18.5726C44.2237 18.0835 44.8125 17.8389 45.5 17.8389C46.1875 17.8389 46.7763 18.0835 47.2663 18.5726C47.7554 19.0626 48 19.6514 48 20.3389C48 21.0264 47.7554 21.6147 47.2663 22.1039C46.7763 22.5939 46.1875 22.8389 45.5 22.8389ZM35.5 21.5889C34.4583 21.5889 33.5729 21.2243 32.8438 20.4951C32.1146 19.766 31.75 18.8805 31.75 17.8389C31.75 16.7972 32.1146 15.9118 32.8438 15.1826C33.5729 14.4535 34.4583 14.0889 35.5 14.0889C36.5417 14.0889 37.4271 14.4535 38.1562 15.1826C38.8854 15.9118 39.25 16.7972 39.25 17.8389C39.25 18.8805 38.8854 19.766 38.1562 20.4951C37.4271 21.2243 36.5417 21.5889 35.5 21.5889ZM35.5 16.5889C35.1458 16.5889 34.8492 16.7085 34.61 16.9476C34.37 17.1876 34.25 17.4847 34.25 17.8389C34.25 18.193 34.37 18.4897 34.61 18.7289C34.8492 18.9689 35.1458 19.0889 35.5 19.0889C35.8542 19.0889 36.1513 18.9689 36.3913 18.7289C36.6304 18.4897 36.75 18.193 36.75 17.8389C36.75 17.4847 36.6304 17.1876 36.3913 16.9476C36.1513 16.7085 35.8542 16.5889 35.5 16.5889Z" fill="#0DB659"/>
<path d="M21.75 29.0889C21.3958 29.0889 21.0992 28.9689 20.86 28.7289C20.62 28.4897 20.5 28.193 20.5 27.8389V27.1201C20.5 26.2034 20.9583 25.4689 21.875 24.9164C22.7917 24.3647 24 24.0889 25.5 24.0889C25.7708 24.0889 26.0262 24.0993 26.2662 24.1201C26.5054 24.141 26.7396 24.1722 26.9688 24.2139C26.6771 24.6305 26.4633 25.0785 26.3275 25.5576C26.1925 26.0368 26.125 26.5472 26.125 27.0889V29.0889H21.75ZM29.25 29.0889C28.8958 29.0889 28.5988 28.9689 28.3588 28.7289C28.1196 28.4897 28 28.193 28 27.8389V27.0889C28 25.7347 28.6929 24.6355 30.0788 23.7914C31.4637 22.948 33.2708 22.5264 35.5 22.5264C37.75 22.5264 39.5625 22.948 40.9375 23.7914C42.3125 24.6355 43 25.7347 43 27.0889V27.8389C43 28.193 42.88 28.4897 42.64 28.7289C42.4008 28.9689 42.1042 29.0889 41.75 29.0889H29.25ZM44.875 29.0889V27.0889C44.875 26.5472 44.8021 26.0368 44.6562 25.5576C44.5104 25.0785 44.3021 24.6305 44.0312 24.2139C44.2604 24.1722 44.495 24.141 44.735 24.1201C44.9742 24.0993 45.2292 24.0889 45.5 24.0889C47 24.0889 48.2083 24.3647 49.125 24.9164C50.0417 25.4689 50.5 26.2034 50.5 27.1201V27.8389C50.5 28.193 50.38 28.4897 50.14 28.7289C49.9008 28.9689 49.6042 29.0889 49.25 29.0889H44.875ZM35.5 25.0264C34.3125 25.0264 33.25 25.1876 32.3125 25.5101C31.375 25.8335 30.8229 26.193 30.6562 26.5889H40.3438C40.1562 26.1722 39.5992 25.8076 38.6725 25.4951C37.745 25.1826 36.6875 25.0264 35.5 25.0264ZM25.5 22.8389C24.8125 22.8389 24.2242 22.5939 23.735 22.1039C23.245 21.6147 23 21.0264 23 20.3389C23 19.6514 23.245 19.0626 23.735 18.5726C24.2242 18.0835 24.8125 17.8389 25.5 17.8389C26.1875 17.8389 26.7758 18.0835 27.265 18.5726C27.755 19.0626 28 19.6514 28 20.3389C28 21.0264 27.755 21.6147 27.265 22.1039C26.7758 22.5939 26.1875 22.8389 25.5 22.8389ZM45.5 22.8389C44.8125 22.8389 44.2237 22.5939 43.7337 22.1039C43.2446 21.6147 43 21.0264 43 20.3389C43 19.6514 43.2446 19.0626 43.7337 18.5726C44.2237 18.0835 44.8125 17.8389 45.5 17.8389C46.1875 17.8389 46.7763 18.0835 47.2663 18.5726C47.7554 19.0626 48 19.6514 48 20.3389C48 21.0264 47.7554 21.6147 47.2663 22.1039C46.7763 22.5939 46.1875 22.8389 45.5 22.8389ZM35.5 21.5889C34.4583 21.5889 33.5729 21.2243 32.8438 20.4951C32.1146 19.766 31.75 18.8805 31.75 17.8389C31.75 16.7972 32.1146 15.9118 32.8438 15.1826C33.5729 14.4535 34.4583 14.0889 35.5 14.0889C36.5417 14.0889 37.4271 14.4535 38.1562 15.1826C38.8854 15.9118 39.25 16.7972 39.25 17.8389C39.25 18.8805 38.8854 19.766 38.1562 20.4951C37.4271 21.2243 36.5417 21.5889 35.5 21.5889ZM35.5 16.5889C35.1458 16.5889 34.8492 16.7085 34.61 16.9476C34.37 17.1876 34.25 17.4847 34.25 17.8389C34.25 18.193 34.37 18.4897 34.61 18.7289C34.8492 18.9689 35.1458 19.0889 35.5 19.0889C35.8542 19.0889 36.1513 18.9689 36.3913 18.7289C36.6304 18.4897 36.75 18.193 36.75 17.8389C36.75 17.4847 36.6304 17.1876 36.3913 16.9476C36.1513 16.7085 35.8542 16.5889 35.5 16.5889ZM21.75 29.0889C21.3958 29.0889 21.0992 28.9689 20.86 28.7289C20.62 28.4897 20.5 28.193 20.5 27.8389V27.1201C20.5 26.2034 20.9583 25.4689 21.875 24.9164C22.7917 24.3647 24 24.0889 25.5 24.0889C25.7708 24.0889 26.0262 24.0993 26.2662 24.1201C26.5054 24.141 26.7396 24.1722 26.9688 24.2139C26.6771 24.6305 26.4633 25.0785 26.3275 25.5576C26.1925 26.0368 26.125 26.5472 26.125 27.0889V29.0889H21.75ZM29.25 29.0889C28.8958 29.0889 28.5988 28.9689 28.3588 28.7289C28.1196 28.4897 28 28.193 28 27.8389V27.0889C28 25.7347 28.6929 24.6355 30.0788 23.7914C31.4637 22.948 33.2708 22.5264 35.5 22.5264C37.75 22.5264 39.5625 22.948 40.9375 23.7914C42.3125 24.6355 43 25.7347 43 27.0889V27.8389C43 28.193 42.88 28.4897 42.64 28.7289C42.4008 28.9689 42.1042 29.0889 41.75 29.0889H29.25ZM44.875 29.0889V27.0889C44.875 26.5472 44.8021 26.0368 44.6562 25.5576C44.5104 25.0785 44.3021 24.6305 44.0312 24.2139C44.2604 24.1722 44.495 24.141 44.735 24.1201C44.9742 24.0993 45.2292 24.0889 45.5 24.0889C47 24.0889 48.2083 24.3647 49.125 24.9164C50.0417 25.4689 50.5 26.2034 50.5 27.1201V27.8389C50.5 28.193 50.38 28.4897 50.14 28.7289C49.9008 28.9689 49.6042 29.0889 49.25 29.0889H44.875ZM35.5 25.0264C34.3125 25.0264 33.25 25.1876 32.3125 25.5101C31.375 25.8335 30.8229 26.193 30.6562 26.5889H40.3438C40.1562 26.1722 39.5992 25.8076 38.6725 25.4951C37.745 25.1826 36.6875 25.0264 35.5 25.0264ZM25.5 22.8389C24.8125 22.8389 24.2242 22.5939 23.735 22.1039C23.245 21.6147 23 21.0264 23 20.3389C23 19.6514 23.245 19.0626 23.735 18.5726C24.2242 18.0835 24.8125 17.8389 25.5 17.8389C26.1875 17.8389 26.7758 18.0835 27.265 18.5726C27.755 19.0626 28 19.6514 28 20.3389C28 21.0264 27.755 21.6147 27.265 22.1039C26.7758 22.5939 26.1875 22.8389 25.5 22.8389ZM45.5 22.8389C44.8125 22.8389 44.2237 22.5939 43.7337 22.1039C43.2446 21.6147 43 21.0264 43 20.3389C43 19.6514 43.2446 19.0626 43.7337 18.5726C44.2237 18.0835 44.8125 17.8389 45.5 17.8389C46.1875 17.8389 46.7763 18.0835 47.2663 18.5726C47.7554 19.0626 48 19.6514 48 20.3389C48 21.0264 47.7554 21.6147 47.2663 22.1039C46.7763 22.5939 46.1875 22.8389 45.5 22.8389ZM35.5 21.5889C34.4583 21.5889 33.5729 21.2243 32.8438 20.4951C32.1146 19.766 31.75 18.8805 31.75 17.8389C31.75 16.7972 32.1146 15.9118 32.8438 15.1826C33.5729 14.4535 34.4583 14.0889 35.5 14.0889C36.5417 14.0889 37.4271 14.4535 38.1562 15.1826C38.8854 15.9118 39.25 16.7972 39.25 17.8389C39.25 18.8805 38.8854 19.766 38.1562 20.4951C37.4271 21.2243 36.5417 21.5889 35.5 21.5889ZM35.5 16.5889C35.1458 16.5889 34.8492 16.7085 34.61 16.9476C34.37 17.1876 34.25 17.4847 34.25 17.8389C34.25 18.193 34.37 18.4897 34.61 18.7289C34.8492 18.9689 35.1458 19.0889 35.5 19.0889C35.8542 19.0889 36.1513 18.9689 36.3913 18.7289C36.6304 18.4897 36.75 18.193 36.75 17.8389C36.75 17.4847 36.6304 17.1876 36.3913 16.9476C36.1513 16.7085 35.8542 16.5889 35.5 16.5889Z" fill="black" fill-opacity="0.4"/>
</g>
<path d="M23.4891 42.4502C23.4793 45.1846 22.7469 47.4795 19.5438 49.1396L18.8602 48.2021C20.2664 47.46 21.1404 46.6348 21.6531 45.6533L19.075 45.8877L18.909 44.833L22.0438 44.6475C22.1463 44.2715 22.2098 43.8711 22.2488 43.4463H19.3875V42.4502H23.4891ZM26.4188 41.6006V50.4873H25.1785V46.0342H23.4695V45.0186H25.1785V41.6006H26.4188ZM35.3961 46.5615V47.5576H33.5602V50.5068H32.3102V47.5576H30.3961V50.5068H29.1461V47.5576H27.2613V46.5615H35.3961ZM34.4195 42.0205V45.6045H28.2184V42.0205H34.4195ZM29.4488 43.0068V44.6084H33.1793V43.0068H29.4488ZM43.0844 41.6006V50.4873H41.8441V41.6006H43.0844ZM37.3227 42.4502V47.2256C38.5238 47.2109 39.8129 47.0986 41.1215 46.8447L41.2777 47.8701C39.7152 48.1924 38.2504 48.2998 36.8734 48.29H36.0922V42.4502H37.3227ZM48.966 42.333V43.3486H45.675V44.8135H48.5949V45.79H45.675V47.4697C47.0373 47.46 48.1262 47.4111 49.3664 47.2158L49.4836 48.2217C48.0871 48.4268 46.8078 48.4658 45.2063 48.4658H44.4445V42.333H48.966ZM51.427 41.6006V50.4873H50.1672V41.6006H51.427Z" fill="#0DB659"/>
<path d="M23.4891 42.4502C23.4793 45.1846 22.7469 47.4795 19.5438 49.1396L18.8602 48.2021C20.2664 47.46 21.1404 46.6348 21.6531 45.6533L19.075 45.8877L18.909 44.833L22.0438 44.6475C22.1463 44.2715 22.2098 43.8711 22.2488 43.4463H19.3875V42.4502H23.4891ZM26.4188 41.6006V50.4873H25.1785V46.0342H23.4695V45.0186H25.1785V41.6006H26.4188ZM35.3961 46.5615V47.5576H33.5602V50.5068H32.3102V47.5576H30.3961V50.5068H29.1461V47.5576H27.2613V46.5615H35.3961ZM34.4195 42.0205V45.6045H28.2184V42.0205H34.4195ZM29.4488 43.0068V44.6084H33.1793V43.0068H29.4488ZM43.0844 41.6006V50.4873H41.8441V41.6006H43.0844ZM37.3227 42.4502V47.2256C38.5238 47.2109 39.8129 47.0986 41.1215 46.8447L41.2777 47.8701C39.7152 48.1924 38.2504 48.2998 36.8734 48.29H36.0922V42.4502H37.3227ZM48.966 42.333V43.3486H45.675V44.8135H48.5949V45.79H45.675V47.4697C47.0373 47.46 48.1262 47.4111 49.3664 47.2158L49.4836 48.2217C48.0871 48.4268 46.8078 48.4658 45.2063 48.4658H44.4445V42.333H48.966ZM51.427 41.6006V50.4873H50.1672V41.6006H51.427Z" fill="black" fill-opacity="0.4"/>
<defs>
<clipPath id="clip0_532_111">
<rect width="30" height="30" fill="white" transform="translate(20.5 6.58887)"/>
</clipPath>
</defs>
</svg>
