<svg viewBox="0 0 70 61" fill="none" xmlns="http://www.w3.org/2000/svg">
<path d="M31.25 22.4629C30.8958 22.4629 30.5992 22.3429 30.36 22.1029C30.12 21.8637 30 21.5671 30 21.2129C30 20.8587 30.12 20.5616 30.36 20.3216C30.5992 20.0825 30.8958 19.9629 31.25 19.9629H38.75C39.1042 19.9629 39.4012 20.0825 39.6412 20.3216C39.8804 20.5616 40 20.8587 40 21.2129C40 21.5671 39.8804 21.8637 39.6412 22.1029C39.4012 22.3429 39.1042 22.4629 38.75 22.4629H31.25ZM31.25 17.4629C30.8958 17.4629 30.5992 17.3433 30.36 17.1041C30.12 16.8641 30 16.5671 30 16.2129C30 15.8587 30.12 15.5616 30.36 15.3216C30.5992 15.0825 30.8958 14.9629 31.25 14.9629H38.75C39.1042 14.9629 39.4012 15.0825 39.6412 15.3216C39.8804 15.5616 40 15.8587 40 16.2129C40 16.5671 39.8804 16.8641 39.6412 17.1041C39.4012 17.3433 39.1042 17.4629 38.75 17.4629H31.25ZM27.5 24.9629H36.875C37.4792 24.9629 38.0417 25.0929 38.5625 25.3529C39.0833 25.6137 39.5208 25.9837 39.875 26.4629L42.5 29.9004V12.4629H27.5V24.9629ZM27.5 32.4629H41.3125L37.9062 27.9941C37.7812 27.8275 37.6304 27.6975 37.4537 27.6041C37.2762 27.51 37.0833 27.4629 36.875 27.4629H27.5V32.4629ZM42.5 34.9629H27.5C26.8125 34.9629 26.2242 34.7183 25.735 34.2291C25.245 33.7391 25 33.1504 25 32.4629V12.4629C25 11.7754 25.245 11.1866 25.735 10.6966C26.2242 10.2075 26.8125 9.96289 27.5 9.96289H42.5C43.1875 9.96289 43.7762 10.2075 44.2662 10.6966C44.7554 11.1866 45 11.7754 45 12.4629V32.4629C45 33.1504 44.7554 33.7391 44.2662 34.2291C43.7762 34.7183 43.1875 34.9629 42.5 34.9629Z" fill="#F3F3F1"/>
<path d="M31.25 22.4629C30.8958 22.4629 30.5992 22.3429 30.36 22.1029C30.12 21.8637 30 21.5671 30 21.2129C30 20.8587 30.12 20.5616 30.36 20.3216C30.5992 20.0825 30.8958 19.9629 31.25 19.9629H38.75C39.1042 19.9629 39.4012 20.0825 39.6412 20.3216C39.8804 20.5616 40 20.8587 40 21.2129C40 21.5671 39.8804 21.8637 39.6412 22.1029C39.4012 22.3429 39.1042 22.4629 38.75 22.4629H31.25ZM31.25 17.4629C30.8958 17.4629 30.5992 17.3433 30.36 17.1041C30.12 16.8641 30 16.5671 30 16.2129C30 15.8587 30.12 15.5616 30.36 15.3216C30.5992 15.0825 30.8958 14.9629 31.25 14.9629H38.75C39.1042 14.9629 39.4012 15.0825 39.6412 15.3216C39.8804 15.5616 40 15.8587 40 16.2129C40 16.5671 39.8804 16.8641 39.6412 17.1041C39.4012 17.3433 39.1042 17.4629 38.75 17.4629H31.25ZM27.5 24.9629H36.875C37.4792 24.9629 38.0417 25.0929 38.5625 25.3529C39.0833 25.6137 39.5208 25.9837 39.875 26.4629L42.5 29.9004V12.4629H27.5V24.9629ZM27.5 32.4629H41.3125L37.9062 27.9941C37.7812 27.8275 37.6304 27.6975 37.4537 27.6041C37.2762 27.51 37.0833 27.4629 36.875 27.4629H27.5V32.4629ZM42.5 34.9629H27.5C26.8125 34.9629 26.2242 34.7183 25.735 34.2291C25.245 33.7391 25 33.1504 25 32.4629V12.4629C25 11.7754 25.245 11.1866 25.735 10.6966C26.2242 10.2075 26.8125 9.96289 27.5 9.96289H42.5C43.1875 9.96289 43.7762 10.2075 44.2662 10.6966C44.7554 11.1866 45 11.7754 45 12.4629V32.4629C45 33.1504 44.7554 33.7391 44.2662 34.2291C43.7762 34.7183 43.1875 34.9629 42.5 34.9629Z" fill="black" fill-opacity="0.15"/>
<path d="M24.9297 42.4746V51.3613H23.7285V46.918H22.8984V50.9316H21.7266V42.6211H22.8984V45.9121H23.7285V42.4746H24.9297ZM18.875 43.4609V48.0996C19.5879 48.085 20.3691 48.0215 21.2285 47.8555L21.3555 48.9297C20.1641 49.1348 19.1484 49.1934 18.2305 49.1934H17.625V43.4609H18.875ZM35.7457 49.3105V50.3262H27.6109V49.3105H31.0387V47.6699H28.4703V43.041H29.7203V44.418H33.5973V43.041H34.8375V47.6699H32.2789V49.3105H35.7457ZM29.7203 46.6738H33.5973V45.4141H29.7203V46.6738ZM40.934 43.1191V43.6758C40.934 44.291 40.934 45.1797 40.7289 46.2832L39.5082 46.166C39.6645 45.3115 39.7035 44.667 39.7133 44.1348H36.3637V43.1191H40.934ZM38.727 45.1699V46.8691C39.6107 46.835 40.5189 46.7666 41.3539 46.6445L41.4223 47.543C39.5766 47.8848 37.4867 47.9141 35.9438 47.9238L35.8363 46.9277C36.3344 46.9277 36.8959 46.9277 37.4867 46.9082V45.1699H38.727ZM43.1117 42.4746V45.1797H44.1859V46.2246H43.1117V49.125H41.8324V42.4746H43.1117ZM43.3852 50.209V51.2051H37.1449V48.5293H38.3949V50.209H43.3852ZM51.3469 42.4746V44.6621H52.548V45.707H51.3469V47.8359H50.0969V42.4746H51.3469ZM51.3469 48.2266V51.2637H45.5363V48.2266H51.3469ZM46.7668 49.2031V50.2676H50.1164V49.2031H46.7668ZM49.5695 43.2754V44.2617H44.2961V43.2754H46.3176V42.4258H47.5578V43.2754H49.5695ZM46.9328 44.5352C48.2219 44.5352 49.1203 45.1895 49.1203 46.127C49.1203 47.0938 48.2219 47.7383 46.9328 47.7383C45.6242 47.7383 44.7258 47.0938 44.7258 46.127C44.7258 45.1895 45.6242 44.5352 46.9328 44.5352ZM46.9328 45.4727C46.3371 45.4727 45.9367 45.707 45.9465 46.127C45.9367 46.5762 46.3371 46.8203 46.9328 46.8203C47.5285 46.8203 47.9387 46.5762 47.9387 46.127C47.9387 45.707 47.5285 45.4727 46.9328 45.4727Z" fill="#F3F3F1"/>
<path d="M24.9297 42.4746V51.3613H23.7285V46.918H22.8984V50.9316H21.7266V42.6211H22.8984V45.9121H23.7285V42.4746H24.9297ZM18.875 43.4609V48.0996C19.5879 48.085 20.3691 48.0215 21.2285 47.8555L21.3555 48.9297C20.1641 49.1348 19.1484 49.1934 18.2305 49.1934H17.625V43.4609H18.875ZM35.7457 49.3105V50.3262H27.6109V49.3105H31.0387V47.6699H28.4703V43.041H29.7203V44.418H33.5973V43.041H34.8375V47.6699H32.2789V49.3105H35.7457ZM29.7203 46.6738H33.5973V45.4141H29.7203V46.6738ZM40.934 43.1191V43.6758C40.934 44.291 40.934 45.1797 40.7289 46.2832L39.5082 46.166C39.6645 45.3115 39.7035 44.667 39.7133 44.1348H36.3637V43.1191H40.934ZM38.727 45.1699V46.8691C39.6107 46.835 40.5189 46.7666 41.3539 46.6445L41.4223 47.543C39.5766 47.8848 37.4867 47.9141 35.9438 47.9238L35.8363 46.9277C36.3344 46.9277 36.8959 46.9277 37.4867 46.9082V45.1699H38.727ZM43.1117 42.4746V45.1797H44.1859V46.2246H43.1117V49.125H41.8324V42.4746H43.1117ZM43.3852 50.209V51.2051H37.1449V48.5293H38.3949V50.209H43.3852ZM51.3469 42.4746V44.6621H52.548V45.707H51.3469V47.8359H50.0969V42.4746H51.3469ZM51.3469 48.2266V51.2637H45.5363V48.2266H51.3469ZM46.7668 49.2031V50.2676H50.1164V49.2031H46.7668ZM49.5695 43.2754V44.2617H44.2961V43.2754H46.3176V42.4258H47.5578V43.2754H49.5695ZM46.9328 44.5352C48.2219 44.5352 49.1203 45.1895 49.1203 46.127C49.1203 47.0938 48.2219 47.7383 46.9328 47.7383C45.6242 47.7383 44.7258 47.0938 44.7258 46.127C44.7258 45.1895 45.6242 44.5352 46.9328 44.5352ZM46.9328 45.4727C46.3371 45.4727 45.9367 45.707 45.9465 46.127C45.9367 46.5762 46.3371 46.8203 46.9328 46.8203C47.5285 46.8203 47.9387 46.5762 47.9387 46.127C47.9387 45.707 47.5285 45.4727 46.9328 45.4727Z" fill="black" fill-opacity="0.15"/>
</svg>
