<svg viewBox="0 0 70 61" fill="none" xmlns="http://www.w3.org/2000/svg">
<rect y="0.0888672" width="70" height="60" rx="10" fill="#0DB659" fill-opacity="0.2"/>
<path d="M37.9375 32.5576L31.25 30.2139L25.4375 32.4639C25.0208 32.6305 24.6354 32.5834 24.2812 32.3226C23.9271 32.0626 23.75 31.7139 23.75 31.2764V13.7764C23.75 13.5055 23.8283 13.2659 23.985 13.0576C24.1408 12.8493 24.3542 12.693 24.625 12.5889L30.4375 10.6201C30.7083 10.5368 30.9792 10.4897 31.25 10.4789C31.5208 10.4689 31.7917 10.5159 32.0625 10.6201L38.75 12.9639L44.5625 10.7139C44.9792 10.5472 45.3646 10.5939 45.7188 10.8539C46.0729 11.1147 46.25 11.4639 46.25 11.9014V29.4014C46.25 29.6722 46.1717 29.9118 46.015 30.1201C45.8592 30.3284 45.6458 30.4847 45.375 30.5889L39.5625 32.5576C39.2917 32.6409 39.0208 32.6876 38.75 32.6976C38.4792 32.7084 38.2083 32.6618 37.9375 32.5576ZM37.5 29.7764V15.1514L32.5 13.4014V28.0264L37.5 29.7764ZM40 29.7764L43.75 28.5264V13.7139L40 15.1514V29.7764ZM26.25 29.4639L30 28.0264V13.4014L26.25 14.6514V29.4639Z" fill="#0DB659"/>
<path d="M37.9375 32.5576L31.25 30.2139L25.4375 32.4639C25.0208 32.6305 24.6354 32.5834 24.2812 32.3226C23.9271 32.0626 23.75 31.7139 23.75 31.2764V13.7764C23.75 13.5055 23.8283 13.2659 23.985 13.0576C24.1408 12.8493 24.3542 12.693 24.625 12.5889L30.4375 10.6201C30.7083 10.5368 30.9792 10.4897 31.25 10.4789C31.5208 10.4689 31.7917 10.5159 32.0625 10.6201L38.75 12.9639L44.5625 10.7139C44.9792 10.5472 45.3646 10.5939 45.7188 10.8539C46.0729 11.1147 46.25 11.4639 46.25 11.9014V29.4014C46.25 29.6722 46.1717 29.9118 46.015 30.1201C45.8592 30.3284 45.6458 30.4847 45.375 30.5889L39.5625 32.5576C39.2917 32.6409 39.0208 32.6876 38.75 32.6976C38.4792 32.7084 38.2083 32.6618 37.9375 32.5576ZM37.5 29.7764V15.1514L32.5 13.4014V28.0264L37.5 29.7764ZM40 29.7764L43.75 28.5264V13.7139L40 15.1514V29.7764ZM26.25 29.4639L30 28.0264V13.4014L26.25 14.6514V29.4639Z" fill="black" fill-opacity="0.4"/>
<path d="M20.8734 44.0225C20.8734 45.458 21.6059 46.9912 23.1 47.6162L22.4262 48.5928C21.3764 48.1484 20.6537 47.2646 20.2582 46.1807C19.8529 47.3574 19.1156 48.334 18.0707 48.8174L17.3578 47.8311C18.8324 47.1768 19.5941 45.5264 19.5941 44.0225V43.4756H17.7094V42.46H22.7289V43.4756H20.8734V44.0225ZM24.8676 41.6006V50.4873H23.6078V41.6006H24.8676ZM33.259 47.2549V50.4873H32.0187V48.2314H27.1555V47.2549H33.259ZM33.259 41.6006V46.8545H32.0187V45.7314H30.0266C29.6018 46.1904 28.9719 46.4639 28.2492 46.4639C26.9016 46.4639 25.8762 45.5361 25.8859 44.2471C25.8762 42.9873 26.9016 42.0693 28.2492 42.0791C28.9719 42.0742 29.6018 42.3428 30.0266 42.792H32.0187V41.6006H33.259ZM28.2492 43.124C27.5559 43.124 27.0578 43.5537 27.0676 44.2471C27.0578 44.9795 27.5559 45.3994 28.2492 45.3994C28.9035 45.3994 29.4113 44.9795 29.4113 44.2471C29.4113 43.5537 28.9035 43.124 28.2492 43.124ZM30.5441 44.7354H32.0187V43.7979H30.5539C30.5783 43.9395 30.593 44.0908 30.593 44.2471C30.593 44.418 30.5734 44.5791 30.5441 44.7354ZM44.241 46.1611V47.1377H40.8914V48.5732H39.6609V47.1377H36.1063V46.1611H44.241ZM43.3426 49.335V50.3311H37.0633V47.8701H38.2938V49.335H43.3426ZM38.3816 41.8838V42.8115H41.9461V41.8838H43.1863V45.5361H37.1512V41.8838H38.3816ZM38.3816 44.5498H41.9461V43.7393H38.3816V44.5498ZM47.7887 42.9873C47.7789 44.0908 48.4039 45.165 49.8102 45.6143L49.1461 46.6006C48.1891 46.2783 47.5396 45.6387 47.1637 44.833C46.7682 45.7119 46.0797 46.4004 45.0738 46.7568L44.4 45.7607C45.8844 45.2822 46.5191 44.1201 46.5289 42.9092V42.0596H47.7887V42.9873ZM51.9488 47.2939V50.4873H50.7086V48.2803H45.8453V47.2939H51.9488ZM51.9488 41.6006V46.8936H50.7086V44.2764H49.0387V43.251H50.7086V41.6006H51.9488Z" fill="#0DB659"/>
<path d="M20.8734 44.0225C20.8734 45.458 21.6059 46.9912 23.1 47.6162L22.4262 48.5928C21.3764 48.1484 20.6537 47.2646 20.2582 46.1807C19.8529 47.3574 19.1156 48.334 18.0707 48.8174L17.3578 47.8311C18.8324 47.1768 19.5941 45.5264 19.5941 44.0225V43.4756H17.7094V42.46H22.7289V43.4756H20.8734V44.0225ZM24.8676 41.6006V50.4873H23.6078V41.6006H24.8676ZM33.259 47.2549V50.4873H32.0187V48.2314H27.1555V47.2549H33.259ZM33.259 41.6006V46.8545H32.0187V45.7314H30.0266C29.6018 46.1904 28.9719 46.4639 28.2492 46.4639C26.9016 46.4639 25.8762 45.5361 25.8859 44.2471C25.8762 42.9873 26.9016 42.0693 28.2492 42.0791C28.9719 42.0742 29.6018 42.3428 30.0266 42.792H32.0187V41.6006H33.259ZM28.2492 43.124C27.5559 43.124 27.0578 43.5537 27.0676 44.2471C27.0578 44.9795 27.5559 45.3994 28.2492 45.3994C28.9035 45.3994 29.4113 44.9795 29.4113 44.2471C29.4113 43.5537 28.9035 43.124 28.2492 43.124ZM30.5441 44.7354H32.0187V43.7979H30.5539C30.5783 43.9395 30.593 44.0908 30.593 44.2471C30.593 44.418 30.5734 44.5791 30.5441 44.7354ZM44.241 46.1611V47.1377H40.8914V48.5732H39.6609V47.1377H36.1063V46.1611H44.241ZM43.3426 49.335V50.3311H37.0633V47.8701H38.2938V49.335H43.3426ZM38.3816 41.8838V42.8115H41.9461V41.8838H43.1863V45.5361H37.1512V41.8838H38.3816ZM38.3816 44.5498H41.9461V43.7393H38.3816V44.5498ZM47.7887 42.9873C47.7789 44.0908 48.4039 45.165 49.8102 45.6143L49.1461 46.6006C48.1891 46.2783 47.5396 45.6387 47.1637 44.833C46.7682 45.7119 46.0797 46.4004 45.0738 46.7568L44.4 45.7607C45.8844 45.2822 46.5191 44.1201 46.5289 42.9092V42.0596H47.7887V42.9873ZM51.9488 47.2939V50.4873H50.7086V48.2803H45.8453V47.2939H51.9488ZM51.9488 41.6006V46.8936H50.7086V44.2764H49.0387V43.251H50.7086V41.6006H51.9488Z" fill="black" fill-opacity="0.4"/>
</svg>
